<svg width="406" height="89" viewBox="0 0 406 89" fill="none" xmlns="http://www.w3.org/2000/svg">
<path d="M279.342 48C294.063 48 304.739 37.3112 304.739 23.834C304.805 10.556 294.063 0 279.342 0C264.621 0 253.879 10.4232 253.879 23.834C253.879 37.112 264.621 48 279.342 48ZM269.13 23.834C269.13 17.6597 273.706 13.0124 279.342 13.0124C284.912 13.0124 289.487 17.5934 289.487 23.834C289.554 30.1411 284.978 34.9875 279.342 34.9875C273.706 34.9875 269.13 30.1411 269.13 23.834Z" fill="#0FB2EF"/>
<path d="M332.201 47.8672C344.335 47.8672 350.966 41.1618 352.955 37.112L343.142 30.4066C342.081 32.3319 339.694 35.5851 332.93 35.5851C327.028 35.5851 321.989 31.1369 321.989 24.0996C321.989 16.9295 327.227 12.2822 333.063 12.3485C338.566 12.4149 341.351 15.1369 342.81 17.3278L352.955 9.9585C349.905 5.04564 342.876 0.199171 332.201 0.199171C318.408 0.199171 306.738 9.62655 306.738 24.0996C306.738 38.7054 318.209 47.8672 332.201 47.8672Z" fill="#0FB2EF"/>
<path d="M356.599 0.730289V47.2033H371.851V34.7884L376.227 30.4066L387.831 47.2033H406L386.969 19.6515L405.735 0.730289H386.571L371.851 15.5353V0.730289H356.599Z" fill="#0FB2EF"/>
<path d="M245.878 0.646483L232.041 0.646482L224.192 25.4546L216.401 0.646481L202.564 0.64648L187.913 47.2033H201.692L209.483 22.5282L217.273 47.2033H231.111L238.96 22.5282L246.75 47.2033H260.53L245.878 0.646483Z" fill="#0FB2EF"/>
<path d="M90.9568 0.730533H75.7057V47.2036H90.9568V0.730533Z" fill="#0B4F6C"/>
<path d="M97.2796 47.2036H112.531V34.7886H115.846L124.135 47.2036H141.375L131.495 32.3986C136.734 29.4774 139.651 24.0998 139.651 17.7928C139.585 8.299 132.954 0.730533 121.549 0.730533H97.2796V47.2036ZM120.554 12.8799C123.604 12.8799 125.13 15.3363 125.13 17.7928C125.13 20.1828 123.604 22.6392 120.554 22.6392H112.531V12.8799H120.554Z" fill="#0B4F6C"/>
<path d="M144.688 0.730533V47.2036H183.081V35.2534H159.939V29.743H179.832V18.1911H159.939V12.6807H183.081V0.730533H144.688Z" fill="#0B4F6C"/>
<path d="M14.6513 47.2036H28.4887L36.3376 22.3954L44.1284 47.2036H57.9657L72.617 0.646729H58.8378L51.047 25.3219L43.2563 0.646729H29.4189L21.57 25.3219L13.7792 0.646729H0L14.6513 47.2036Z" fill="#0B4F6C"/>
<rect width="99" height="32.496" transform="translate(307 56)" fill="#0B4F6C"/>
<path d="M327.479 82.496C325.5 82.496 323.802 82.076 322.383 81.236C320.964 80.3773 319.872 79.192 319.107 77.68C318.342 76.1493 317.959 74.3853 317.959 72.388C317.959 70.3907 318.342 68.6267 319.107 67.096C319.872 65.5653 320.964 64.3707 322.383 63.512C323.802 62.6533 325.5 62.224 327.479 62.224C329.831 62.224 331.754 62.812 333.247 63.988C334.759 65.1453 335.702 66.7787 336.075 68.888H332.127C331.884 67.824 331.362 66.9933 330.559 66.396C329.775 65.78 328.73 65.472 327.423 65.472C325.612 65.472 324.194 66.088 323.167 67.32C322.14 68.552 321.627 70.2413 321.627 72.388C321.627 74.5347 322.14 76.224 323.167 77.456C324.194 78.6693 325.612 79.276 327.423 79.276C328.73 79.276 329.775 78.996 330.559 78.436C331.362 77.8573 331.884 77.064 332.127 76.056H336.075C335.702 78.072 334.759 79.6493 333.247 80.788C331.754 81.9267 329.831 82.496 327.479 82.496Z" fill="white"/>
<path d="M339.163 82.16V62H342.747V82.16H339.163Z" fill="white"/>
<path d="M353.073 82.496C351.729 82.496 350.516 82.188 349.433 81.572C348.369 80.956 347.52 80.1067 346.885 79.024C346.269 77.9227 345.961 76.6533 345.961 75.216C345.961 73.7787 346.279 72.5187 346.913 71.436C347.548 70.3347 348.397 69.476 349.461 68.86C350.544 68.244 351.757 67.936 353.101 67.936C354.427 67.936 355.621 68.244 356.685 68.86C357.768 69.476 358.617 70.3347 359.233 71.436C359.868 72.5187 360.185 73.7787 360.185 75.216C360.185 76.6533 359.868 77.9227 359.233 79.024C358.617 80.1067 357.768 80.956 356.685 81.572C355.603 82.188 354.399 82.496 353.073 82.496ZM353.073 79.388C354.007 79.388 354.819 79.0427 355.509 78.352C356.2 77.6427 356.545 76.5973 356.545 75.216C356.545 73.8347 356.2 72.7987 355.509 72.108C354.819 71.3987 354.016 71.044 353.101 71.044C352.149 71.044 351.328 71.3987 350.637 72.108C349.965 72.7987 349.629 73.8347 349.629 75.216C349.629 76.5973 349.965 77.6427 350.637 78.352C351.328 79.0427 352.14 79.388 353.073 79.388Z" fill="white"/>
<path d="M368.598 82.496C366.862 82.496 365.518 81.9547 364.566 80.872C363.633 79.7893 363.166 78.2027 363.166 76.112V68.272H366.722V75.776C366.722 76.9707 366.965 77.8853 367.45 78.52C367.935 79.1547 368.701 79.472 369.746 79.472C370.735 79.472 371.547 79.1173 372.182 78.408C372.835 77.6987 373.162 76.7093 373.162 75.44V68.272H376.746V82.16H373.582L373.302 79.808C372.873 80.6293 372.247 81.2827 371.426 81.768C370.623 82.2533 369.681 82.496 368.598 82.496Z" fill="white"/>
<path d="M386.809 82.496C385.502 82.496 384.336 82.1787 383.309 81.544C382.282 80.9093 381.47 80.0413 380.873 78.94C380.276 77.8387 379.977 76.588 379.977 75.188C379.977 73.788 380.276 72.5467 380.873 71.464C381.47 70.3627 382.282 69.504 383.309 68.888C384.336 68.2533 385.502 67.936 386.809 67.936C387.854 67.936 388.769 68.132 389.553 68.524C390.337 68.916 390.972 69.4667 391.457 70.176V62H395.041V82.16H391.849L391.457 80.172C391.009 80.788 390.412 81.3293 389.665 81.796C388.937 82.2627 387.985 82.496 386.809 82.496ZM387.565 79.36C388.722 79.36 389.665 78.9773 390.393 78.212C391.14 77.428 391.513 76.4293 391.513 75.216C391.513 74.0027 391.14 73.0133 390.393 72.248C389.665 71.464 388.722 71.072 387.565 71.072C386.426 71.072 385.484 71.4547 384.737 72.22C383.99 72.9853 383.617 73.9747 383.617 75.188C383.617 76.4013 383.99 77.4 384.737 78.184C385.484 78.968 386.426 79.36 387.565 79.36Z" fill="white"/>
</svg>
