<svg width="170" height="40" viewBox="0 0 170 40" fill="none" xmlns="http://www.w3.org/2000/svg">
<path d="M116.966 19.9406C123.13 19.9406 127.6 15.5002 127.6 9.90137C127.628 4.38529 123.13 0 116.966 0C110.802 0 106.304 4.33013 106.304 9.90137C106.304 15.4175 110.802 19.9406 116.966 19.9406ZM112.69 9.90137C112.69 7.33639 114.606 5.40576 116.966 5.40576C119.298 5.40576 121.214 7.30881 121.214 9.90137C121.242 12.5215 119.326 14.5349 116.966 14.5349C114.606 14.5349 112.69 12.5215 112.69 9.90137Z" fill="#FF9505"/>
<path d="M139.099 19.8855C144.18 19.8855 146.956 17.0999 147.789 15.4175L143.68 12.6318C143.236 13.4317 142.236 14.7831 139.404 14.7831C136.933 14.7831 134.823 12.9352 134.823 10.0117C134.823 7.033 137.016 5.10238 139.46 5.12996C141.764 5.15754 142.93 6.28833 143.541 7.19849L147.789 4.13706C146.512 2.09611 143.569 0.0827418 139.099 0.0827418C133.324 0.0827418 128.437 3.99916 128.437 10.0117C128.437 16.0794 133.24 19.8855 139.099 19.8855Z" fill="#FF9505"/>
<path d="M149.315 0.303384V19.6097H155.701V14.4521L157.534 12.6318L162.392 19.6097H170L162.031 8.1638L169.889 0.303384H161.865L155.701 6.45382V0.303384H149.315Z" fill="#FF9505"/>
<path d="M102.954 0.268569L97.16 0.268568L93.8735 10.5746L90.6114 0.268568L84.8174 0.268567L78.6826 19.6097H84.4522L87.7144 9.35889L90.9765 19.6097H96.7705L100.057 9.35889L103.319 19.6097H109.089L102.954 0.268569Z" fill="#FF9505"/>
<path d="M38.0854 0.303492H31.6994V19.6098H38.0854V0.303492Z" fill="#0FB2EF"/>
<path d="M40.7328 19.6098H47.1188V14.4522H48.507L51.9777 19.6098H59.1966L55.0596 13.4593C57.253 12.2458 58.4747 10.0118 58.4747 7.39166C58.4469 3.44766 55.6704 0.303492 50.8948 0.303492H40.7328V19.6098ZM50.4784 5.35071C51.7556 5.35071 52.3942 6.37118 52.3942 7.39166C52.3942 8.38455 51.7556 9.40503 50.4784 9.40503H47.1188V5.35071H50.4784Z" fill="#0FB2EF"/>
<path d="M60.5837 0.303492V19.6098H76.6597V14.6453H66.9697V12.3561H75.2992V7.55714H66.9697V5.26797H76.6597V0.303492H60.5837Z" fill="#0FB2EF"/>
<path d="M6.13479 19.6098H11.9288L15.2152 9.30374L18.4774 19.6098H24.2714L30.4062 0.268677H24.6365L21.3744 10.5195L18.1122 0.268677H12.3183L9.03177 10.5195L5.76962 0.268677H0L6.13479 19.6098Z" fill="#0FB2EF"/>
<rect x="127.38" y="25.2213" width="42.6197" height="14.7787" fill="#24B3ED"/>
<path d="M136.107 37.0156C135.249 37.0156 134.513 36.8351 133.898 36.474C133.282 36.105 132.809 35.5954 132.477 34.9455C132.145 34.2876 131.979 33.5293 131.979 32.6708C131.979 31.8122 132.145 31.054 132.477 30.3961C132.809 29.7381 133.282 29.2246 133.898 28.8555C134.513 28.4864 135.249 28.3019 136.107 28.3019C137.127 28.3019 137.96 28.5546 138.608 29.0601C139.263 29.5576 139.672 30.2596 139.834 31.1663H138.122C138.017 30.709 137.79 30.3519 137.442 30.0952C137.102 29.8304 136.649 29.698 136.083 29.698C135.298 29.698 134.683 29.9628 134.237 30.4923C133.792 31.0219 133.57 31.7481 133.57 32.6708C133.57 33.5935 133.792 34.3197 134.237 34.8492C134.683 35.3708 135.298 35.6316 136.083 35.6316C136.649 35.6316 137.102 35.5112 137.442 35.2705C137.79 35.0217 138.017 34.6807 138.122 34.2475H139.834C139.672 35.114 139.263 35.792 138.608 36.2815C137.96 36.7709 137.127 37.0156 136.107 37.0156Z" fill="white"/>
<path d="M141.173 36.8712V28.2056H142.727V36.8712H141.173Z" fill="white"/>
<path d="M147.204 37.0156C146.621 37.0156 146.095 36.8833 145.625 36.6185C145.164 36.3537 144.796 35.9886 144.521 35.5232C144.254 35.0498 144.12 34.5042 144.12 33.8864C144.12 33.2686 144.258 32.727 144.533 32.2616C144.808 31.7882 145.176 31.4191 145.638 31.1543C146.107 30.8895 146.633 30.7571 147.216 30.7571C147.79 30.7571 148.308 30.8895 148.77 31.1543C149.239 31.4191 149.607 31.7882 149.874 32.2616C150.149 32.727 150.287 33.2686 150.287 33.8864C150.287 34.5042 150.149 35.0498 149.874 35.5232C149.607 35.9886 149.239 36.3537 148.77 36.6185C148.3 36.8833 147.778 37.0156 147.204 37.0156ZM147.204 35.6797C147.608 35.6797 147.96 35.5313 148.26 35.2344C148.559 34.9295 148.709 34.4801 148.709 33.8864C148.709 33.2926 148.559 32.8473 148.26 32.5504C147.96 32.2455 147.612 32.0931 147.216 32.0931C146.803 32.0931 146.447 32.2455 146.147 32.5504C145.856 32.8473 145.71 33.2926 145.71 33.8864C145.71 34.4801 145.856 34.9295 146.147 35.2344C146.447 35.5313 146.799 35.6797 147.204 35.6797Z" fill="white"/>
<path d="M153.934 37.0156C153.182 37.0156 152.599 36.783 152.186 36.3176C151.781 35.8522 151.579 35.1702 151.579 34.2715V30.9015H153.121V34.1271C153.121 34.6406 153.226 35.0338 153.436 35.3066C153.647 35.5794 153.979 35.7158 154.432 35.7158C154.861 35.7158 155.213 35.5633 155.488 35.2584C155.771 34.9535 155.913 34.5283 155.913 33.9827V30.9015H157.467V36.8712H156.095L155.974 35.8602C155.787 36.2133 155.516 36.4941 155.16 36.7027C154.812 36.9113 154.404 37.0156 153.934 37.0156Z" fill="white"/>
<path d="M161.83 37.0156C161.263 37.0156 160.757 36.8792 160.312 36.6064C159.867 36.3336 159.515 35.9605 159.256 35.4871C158.997 35.0137 158.868 34.4761 158.868 33.8743C158.868 33.2726 158.997 32.739 159.256 32.2736C159.515 31.8002 159.867 31.4311 160.312 31.1663C160.757 30.8935 161.263 30.7571 161.83 30.7571C162.283 30.7571 162.679 30.8414 163.019 31.0099C163.359 31.1784 163.634 31.4151 163.845 31.72V28.2056H165.399V36.8712H164.015L163.845 36.0167C163.651 36.2815 163.392 36.5142 163.068 36.7148C162.752 36.9154 162.34 37.0156 161.83 37.0156ZM162.157 35.6677C162.659 35.6677 163.068 35.5032 163.384 35.1742C163.707 34.8372 163.869 34.4079 163.869 33.8864C163.869 33.3648 163.707 32.9396 163.384 32.6106C163.068 32.2736 162.659 32.1051 162.157 32.1051C161.664 32.1051 161.255 32.2696 160.931 32.5986C160.608 32.9275 160.446 33.3528 160.446 33.8743C160.446 34.3959 160.608 34.8252 160.931 35.1622C161.255 35.4992 161.664 35.6677 162.157 35.6677Z" fill="white"/>
</svg>

