<svg xmlns="http://www.w3.org/2000/svg" width="33" height="32" viewBox="0 0 33 32" fill="none">
<path fill-rule="evenodd" clip-rule="evenodd" d="M16.334 8.00004C12.6521 8.00004 9.66736 10.9848 9.66736 14.6667C9.66736 15.4031 9.0704 16 8.33402 16C5.95208 16 4.33402 17.6541 4.33402 19.3334C4.33402 21.0127 5.95208 22.6667 8.33403 22.6667H24.334C26.716 22.6667 28.334 21.0127 28.334 19.3334C28.334 17.6541 26.716 16 24.334 16C23.5976 16 23.0007 15.4031 23.0007 14.6667C23.0007 10.9848 20.0159 8.00004 16.334 8.00004ZM7.08039 13.4415C7.68034 8.86586 11.5947 5.33337 16.334 5.33337C21.0734 5.33337 24.9877 8.86586 25.5877 13.4415C28.5612 13.9584 31.0007 16.2786 31.0007 19.3334C31.0007 22.8088 27.8431 25.3334 24.334 25.3334H8.33403C4.82493 25.3334 1.66736 22.8088 1.66736 19.3334C1.66736 16.2786 4.10689 13.9584 7.08039 13.4415Z" fill="white"/>
</svg>
