<svg xmlns="http://www.w3.org/2000/svg" width="33" height="32" viewBox="0 0 33 32" fill="none">
  <path d="M20.7556 2.73541C21.4542 2.96827 21.8318 3.72337 21.5989 4.42196L13.5989 28.422C13.366 29.1206 12.611 29.4981 11.9124 29.2652C11.2138 29.0324 10.8362 28.2773 11.0691 27.5787L19.0691 3.57868C19.302 2.88009 20.057 2.50255 20.7556 2.73541Z" fill="#0F0F0F"/>
  <path d="M9.27677 9.72414C9.79747 10.2448 9.79747 11.0891 9.27677 11.6098L4.88625 16.0003L9.27677 20.3908C9.79747 20.9115 9.79747 21.7557 9.27677 22.2764C8.75607 22.7971 7.91185 22.7971 7.39115 22.2764L2.05782 16.9431C1.53712 16.4224 1.53712 15.5782 2.05782 15.0575L7.39115 9.72414C7.91185 9.20344 8.75607 9.20344 9.27677 9.72414Z" fill="#0F0F0F"/>
  <path d="M23.3912 11.6098C22.8705 11.0891 22.8705 10.2448 23.3912 9.72414C23.9119 9.20344 24.7561 9.20344 25.2768 9.72414L30.6101 15.0575C31.1308 15.5782 31.1308 16.4224 30.6101 16.9431L25.2768 22.2764C24.7561 22.7971 23.9119 22.7971 23.3912 22.2764C22.8705 21.7557 22.8705 20.9115 23.3912 20.3908L27.7817 16.0003L23.3912 11.6098Z" fill="#0F0F0F"/>
</svg>
