<svg width="106" height="25" viewBox="0 0 106 25" fill="none" xmlns="http://www.w3.org/2000/svg">
<path d="M4.04026 12.3901L0 0.269348H4.17493L6.06038 6.06038L7.94584 0.269348H11.4474L13.4675 6.06038L15.2183 0.269348H19.2586L15.353 12.3901H11.8514L9.69661 6.46441L7.54181 12.3901H4.04026Z" fill="#0FB2EF"/>
<path d="M53.1967 0.269341L49.1564 12.3901H53.3314L55.2168 6.59907L57.1023 12.3901H60.6038L62.624 6.59907L64.3747 12.3901H68.415L64.5094 0.269341H61.0078L58.853 6.19505L56.6982 0.269341H53.1967Z" fill="#F59121"/>
<path d="M20.0666 0.269348H24.1068V12.3901H20.0666L20.0666 0.269348Z" fill="#0FB2EF"/>
<path fill-rule="evenodd" clip-rule="evenodd" d="M48.3484 3.63623V0.269349L37.8438 0.269348V0.269353V3.63623V4.71363V7.67648V9.02324V12.3901H41.884L48.3484 12.3901V9.02324H41.884V7.67648L47.8097 7.67648V4.71363L41.884 4.71363V3.63623L48.3484 3.63623Z" fill="#0FB2EF"/>
<path fill-rule="evenodd" clip-rule="evenodd" d="M28.1471 0.269348H32.7261C35.1062 0.269348 37.0357 2.19882 37.0357 4.57895C37.0357 6.25064 36.0839 7.70002 34.6926 8.41473L37.305 12.3901H32.7261L30.4366 8.88856L30.4366 8.88856H29.4939V12.3901H25.4536V0.269353H28.1471V0.269348ZM29.4939 3.63621V6.06036H31.7833C32.4528 6.06036 32.9954 5.5177 32.9954 4.84828C32.9954 4.17887 32.4528 3.63621 31.7833 3.63621H29.4939Z" fill="#0FB2EF"/>
<path fill-rule="evenodd" clip-rule="evenodd" d="M73.3979 12.6595C77.1169 12.6595 80.1317 9.82555 80.1317 6.32973C80.1317 2.83392 77.1169 0 73.3979 0C69.679 0 66.6642 2.83392 66.6642 6.32973C66.6642 9.82555 69.679 12.6595 73.3979 12.6595ZM75.8221 6.32974C75.8221 4.84216 74.7368 3.63624 73.3979 3.63624C72.0591 3.63624 70.9738 4.84216 70.9738 6.32974C70.9738 7.81733 72.0591 9.02325 73.3979 9.02325C74.7368 9.02325 75.8221 7.81733 75.8221 6.32974Z" fill="#F59121"/>
<path fill-rule="evenodd" clip-rule="evenodd" d="M92.7275 9.50629C91.6081 11.3918 89.5226 12.6595 87.1348 12.6595C83.5646 12.6595 80.6704 9.82555 80.6704 6.32973C80.6704 2.83392 83.5646 0 87.1348 0C89.5069 0 91.5805 1.25098 92.7052 3.11591L89.2387 5.17704C88.8655 4.26615 88.0637 3.63624 87.1348 3.63624C85.8495 3.63624 84.8076 4.84216 84.8076 6.32974C84.8076 7.81733 85.8495 9.02325 87.1348 9.02325C88.119 9.02325 88.9605 8.31616 89.3007 7.31697L92.7275 9.50629Z" fill="#F59121"/>
<path fill-rule="evenodd" clip-rule="evenodd" d="M97.6395 4.78748V0.269365H93.5992V12.3901H97.6395V9.86545L98.7298 8.61236L101.276 12.3901H105.855L101.486 5.44492L105.989 0.269348H101.141L97.6395 4.78748Z" fill="#F59121"/>
<rect width="26" height="9" transform="translate(80 16)" fill="#0FB2EF"/>
<path d="M85.3572 23.096C86.5732 23.096 87.2452 22.448 87.6292 21.784L86.6532 21.312C86.4292 21.752 85.9492 22.088 85.3572 22.088C84.4292 22.088 83.7252 21.344 83.7252 20.336C83.7252 19.328 84.4292 18.584 85.3572 18.584C85.9492 18.584 86.4292 18.928 86.6532 19.36L87.6292 18.88C87.2532 18.216 86.5732 17.576 85.3572 17.576C83.7972 17.576 82.5572 18.696 82.5572 20.336C82.5572 21.976 83.7972 23.096 85.3572 23.096ZM88.2813 23H89.2973V17.664H88.2813V23ZM92.0968 23.096C93.3768 23.096 94.1448 22.168 94.1448 21.064C94.1448 19.968 93.3768 19.04 92.0968 19.04C90.8248 19.04 90.0568 19.968 90.0568 21.064C90.0568 22.168 90.8248 23.096 92.0968 23.096ZM92.0968 22.192C91.4648 22.192 91.1128 21.672 91.1128 21.064C91.1128 20.464 91.4648 19.944 92.0968 19.944C92.7288 19.944 93.0888 20.464 93.0888 21.064C93.0888 21.672 92.7288 22.192 92.0968 22.192ZM97.5065 23H98.5225V19.136H97.5065V21.752C97.3305 21.976 97.0185 22.192 96.6265 22.192C96.1945 22.192 95.9145 22.016 95.9145 21.48V19.136H94.8985V21.88C94.8985 22.632 95.2985 23.096 96.1465 23.096C96.7785 23.096 97.2425 22.808 97.5065 22.512V23ZM102.187 23H103.211V17.664H102.187V19.632C101.883 19.24 101.451 19.04 100.995 19.04C100.011 19.04 99.2833 19.808 99.2833 21.072C99.2833 22.36 100.019 23.096 100.995 23.096C101.459 23.096 101.883 22.888 102.187 22.512V23ZM102.187 21.752C102.011 22.008 101.651 22.192 101.307 22.192C100.731 22.192 100.331 21.736 100.331 21.072C100.331 20.4 100.731 19.944 101.307 19.944C101.651 19.944 102.011 20.128 102.187 20.384V21.752Z" fill="white"/>
</svg>
