<?xml version="1.0" encoding="iso-8859-1"?>
<!-- Uploaded to: SVG Repo, www.svgrepo.com, Generator: SVG Repo Mixer Tools -->
<!DOCTYPE svg PUBLIC "-//W3C//DTD SVG 1.1//EN" "http://www.w3.org/Graphics/SVG/1.1/DTD/svg11.dtd">
<svg fill="#000000" height="800px" width="800px" version="1.1" id="Capa_1" xmlns="http://www.w3.org/2000/svg" xmlns:xlink="http://www.w3.org/1999/xlink" 
	 viewBox="0 0 311.539 311.539" xml:space="preserve">
<g>
	<polygon points="214.696,98.019 132.761,179.955 95.716,142.908 67.43,171.193 132.761,236.523 242.981,126.305 	"/>
	<path d="M155.77,0C69.74,0,0,69.74,0,155.77s69.74,155.77,155.77,155.77s155.77-69.74,155.77-155.77S241.799,0,155.77,0z
		 M155.77,271.539C91.784,271.539,40,219.761,40,155.77C40,91.784,91.778,40,155.77,40c63.986,0,115.77,51.778,115.77,115.77
		C271.539,219.755,219.761,271.539,155.77,271.539z"/>
</g>
</svg>