<?xml version="1.0" encoding="iso-8859-1"?>
<!-- Uploaded to: SVG Repo, www.svgrepo.com, Generator: SVG Repo Mixer Tools -->
<svg height="800px" width="800px" version="1.1" id="Layer_1" xmlns="http://www.w3.org/2000/svg" xmlns:xlink="http://www.w3.org/1999/xlink" 
	 viewBox="0 0 508 508" xml:space="preserve">
<path style="fill:#F4EFEF;" d="M343.6,37.2C224.4-12.4,87.2,44.4,38,164c-49.6,119.2,7.2,256.4,126.8,305.6
	c119.2,49.6,256.4-7.2,305.6-126.8C519.6,223.6,462.8,86.8,343.6,37.2z M394.4,311.6c-32,77.6-121.2,114.4-198.8,82.4
	S81.2,272.8,113.2,195.2c32-77.6,121.2-114.4,198.8-82.4C389.6,145.2,426.8,234,394.4,311.6z"/>
<g>
	<path style="fill:#DF5C4E;" d="M312,394l31.2,75.6c55.2-22.8,102-66.8,126.8-126.8l-75.6-31.2C378.4,350.4,348,379.2,312,394z"/>
	<path style="fill:#DF5C4E;" d="M196.4,113.2c-38.8,16-67.6,46.4-82.4,82.4l-75.6-31.2c22.8-55.2,66.8-102,126.8-126.8L196.4,113.2z
		"/>
	<path style="fill:#DF5C4E;" d="M113.6,311.6L38,342.8c22.8,55.2,66.8,102,126.8,126.8L196,394C156.8,378,128.4,347.6,113.6,311.6z"
		/>
	<path style="fill:#DF5C4E;" d="M312,113.2c38.8,16,67.6,46.4,82.4,82.4l75.6-31.2c-22.8-55.2-66.8-102-126.8-126.8L312,113.2z"/>
</g>
<path d="M253.6,491.6c-30.4,0-61.2-6-90.8-18C41.6,423.2-16,284,34,162.8C58.4,104,104,58.4,162.8,34s123.6-24.4,182,0l0,0
	C466,84.4,523.6,223.6,473.6,344.8C436,436,347.2,491.6,253.6,491.6z M254,23.6c-30,0-59.6,6-88,17.6
	C109.2,64.8,65.2,108.8,41.6,165.6C-6.8,282.8,48.8,417.6,166,466s252-7.2,300.4-124.4c48.4-117.2-7.2-252-124.4-300.4l0,0
	C313.6,29.2,283.6,23.6,254,23.6z M254,409.6c-20.4,0-40.4-4-59.6-12c-79.6-32.8-117.6-124.4-84.4-204c16-38.4,46-68.4,84.4-84.4
	s80.8-16,119.6,0c38.4,16,68.4,46,84.4,84.4s16,80.8,0,119.6l0,0c-16,38.4-46,68.4-84.4,84.4C294.4,405.6,274,409.6,254,409.6z
	 M254,105.2c-19.2,0-38.4,3.6-56.8,11.2c-36.4,15.2-65.2,43.6-80,80C86,272,122,358.8,197.2,390c36.4,15.2,76.8,15.2,113.2,0
	s65.2-43.6,80-80l0,0c15.2-36.4,15.2-76.8,0-113.2c-15.2-36.4-43.6-65.2-80-80C292.4,109.2,273.2,105.2,254,105.2z"/>
<path d="M113.6,199.2c-0.4,0-1.2,0-1.6-0.4l-57.2-23.6c-2-0.8-3.2-3.2-2-5.2c0.8-2,3.2-3.2,5.2-2l53.2,22
	c15.6-35.6,43.6-63.6,79.2-79.2l-22.8-54.4c-0.8-2,0-4.4,2-5.2c2-0.8,4.4,0,5.2,2l24,58.4c0.8,2,0,4.4-2,5.2
	c-36.4,15.2-65.2,43.6-80,80C116.4,198.4,115.2,199.2,113.6,199.2z"/>
<path d="M38,168c-0.4,0-1.2,0-1.6-0.4c-2-0.8-3.2-3.2-2-5.2c24.4-58.8,70-104.4,128.8-128.8c2-0.8,4.4,0,5.2,2s0,4.4-2,5.2
	C109.6,64.4,65.6,108.4,42,165.2C40.8,167.2,39.2,168,38,168z"/>
<path d="M394.4,199.2c-0.4,0-1.2,0-1.6-0.4c-0.8-0.4-1.6-1.2-2-2c-15.2-36.4-43.6-65.2-80-80c-2-0.8-3.2-3.2-2-5.2L340,36
	c0.8-2,3.2-3.2,5.2-2C404,58.4,449.6,104,474,162.8c0.4,0.8,0.4,2,0,3.2c-0.4,0.8-1.2,1.6-2,2l-75.6,31.2
	C395.6,199.2,394.8,199.2,394.4,199.2z M317.2,110.8c35.6,15.6,63.6,43.6,79.2,79.2l68.4-28.4c-23.2-53.6-65.6-96-119.2-119.2
	L317.2,110.8z"/>
<path d="M343.6,473.6c-0.4,0-1.2,0-1.6-0.4c-0.8-0.4-1.6-1.2-2-2l-31.2-75.6c-0.8-2,0-4.4,2-5.2c36.4-15.2,65.2-43.6,80-80
	c0.8-2,3.2-3.2,5.2-2l75.6,31.2c0.8,0.4,1.6,1.2,2,2s0.4,2,0,3.2c-24.4,58.8-70,104.4-128.8,128.8
	C344.4,473.6,344,473.6,343.6,473.6z M317.2,396l28.4,68.4c53.6-23.2,96-65.6,119.2-119.2l-68.4-28.4
	C380.8,352.4,352.8,380.4,317.2,396z"/>
<path d="M164.4,473.6c-0.4,0-1.2,0-1.6-0.4C104,448.8,58.4,403.2,34,344.4c-0.8-2,0-4.4,2-5.2l75.6-31.2c0.8-0.4,2-0.4,3.2,0
	s1.6,1.2,2,2c15.2,36.4,43.6,65.2,80,80c0.8,0.4,1.6,1.2,2,2s0.4,2,0,3.2l-31.2,75.6C167.6,472.8,166,473.6,164.4,473.6z
	 M43.2,345.2c23.2,53.6,65.6,96,119.2,119.2l28.4-68.4c-35.6-15.6-63.6-43.6-79.2-79.2L43.2,345.2z"/>
<path d="M18,267.6h-6c-6.4,0-12-5.2-12-12s5.2-12,12-12h6c2.4,0,4,1.6,4,4s-1.6,4-4,4h-6c-2,0-4,2-4,4s2,4,4,4h6c2.4,0,4,1.6,4,4
	S20.4,267.6,18,267.6z"/>
<path d="M496,267.6h-6c-2.4,0-4-1.6-4-4s1.6-4,4-4h6c2,0,4-2,4-4s-2-4-4-4h-6c-2.4,0-4-1.6-4-4s1.6-4,4-4h6c6.4,0,12,5.2,12,12
	S502.8,267.6,496,267.6z"/>
<path d="M250,507.6c-6.4,0-12-5.6-12-12v-4c0-2.4,1.6-4,4-4s4,1.6,4,4v4c0,2.4,1.6,4,4,4c2,0,4-2,4-4v-4c0-2.4,1.6-4,4-4s4,1.6,4,4
	v4C262,502,256.4,507.6,250,507.6z"/>
<path d="M258,23.6c-2.4,0-4-1.6-4-4v-7.2c0-2-2-4-4-4s-4,1.6-4,4v7.2c0,2.4-1.6,4-4,4s-4-1.6-4-4v-7.2c0-6.4,5.2-12,12-12
	s12,5.2,12,12v7.2C262,22,260.4,23.6,258,23.6z"/>
<path d="M443.2,157.2c-1.6,0-2.8-0.8-3.6-2c-19.6-36.8-49.2-66.8-86-86.4c-2-1.2-2.8-3.6-1.6-5.6s3.6-2.8,5.6-1.6
	c38,20.4,69.2,51.6,89.6,90c1.2,2,0.4,4.4-1.6,5.6C444.4,156.8,443.6,157.2,443.2,157.2z"/>
<path d="M315.2,52.4c-0.4,0-0.8,0-1.2,0c-20-6-40.8-8.8-61.6-8.8c-2,0-4-1.6-4-4s1.6-4,4-4c21.6,0,43.2,2.8,64,9.2
	c2,0.8,3.2,2.8,2.8,4.8C318.4,51.2,316.8,52.4,315.2,52.4z"/>
</svg>