<svg xmlns="http://www.w3.org/2000/svg" viewBox="0 0 750 750"><title>Sally</title><path d="M622.439,213.041c-13.928,4.46-24.166,15.139-33.141,26.56-8.764,11.144-17.566,22.261-26.086,33.592-8.555,11.381-19.133,19.67-32.908,23.869-8.746,2.665-17.309,5.927-25.958,8.922,2.828-5.4,6.252-10.053,9.425-14.863,13.758-20.87,26.119-42.431,31.785-67.127,9.534-41.6,5.977-79.189-15.056-115.943-5.4-9.446-46.177-110.516-176.591-93.126-73.916,12.856-130.721,63.7-145.5,127.352-5.284,22.759-7.733,45.057-3.342,67.92,7.679,40,26.8,74.374,52.607,105.365,3.53,4.242,3.332,11.895-2.082,13.263-42.814,10.83-69.7,50.927-86.452,75.418a48.693,48.693,0,0,0-2.888,4.793c-6.394,12.214-7.024,24.357.205,36.557,5.542,9.351,13.513,16.094,22.561,21.722,6.5,4.047,13.135,7.89,19.68,11.869,3.827,2.33,7.533,4.859,11.4,7.115,7.175,4.182,14.429,8.232,21.81,12.426-1.17,3.6-2.588,7.074-3.416,10.685-1.6,6.991-5.247,11.9-11.477,15.92-10.484,6.766-19.669,15.239-26.075,26.234-6.447,11.059-7.285,22.487-.859,33.73,2.853,5,6.9,9.313,10.653,14.255-1.071.677-2.411,1.557-3.79,2.382-8.424,5.063-16.895,10.053-25.26,15.222a14.591,14.591,0,0,0-4.536,4.258c-20.09,31.044-22.1,63.82-8.247,97.6,5.407,13.184,15.448,22.1,29.541,19.814,11.568-1.872,20.905-8.069,30.607-14.3,2.395-1.541,6.7-5.72,9.5-6.386,5.05-1.22,10.416-1.4,15.282-3.086,24.879-8.578,46.43-13.974,69.713-26.23,12.394-6.524,27.9-17.631,36.057-29.653,5.354-7.89,11.243-15.315,20.03-19.561,5.635-2.723,17.541-2.77,21.6-7.3,16.165-18.043,31.849-36.544,47.278-55.231a194.088,194.088,0,0,0,37.873-73.029c8.545-31.143,9.442-65.635,14.686-97.462.481-2.923,1.688-4.084,4.374-5.029,10.675-3.76,21.487-7.288,31.785-11.922,16-7.2,31.768-14.95,47.366-22.986,17.392-8.956,34.016-19.187,48.681-32.324,19.057-17.077,41.232-38.6,51.269-62.3,8.657-29.94-17.239-73.349-62.105-58.978" style="fill:#171c21;fill-rule:evenodd"/><path d="M194.211,745.231c-13.324,0-24.65-8.637-30.918-23.922-14.934-36.41-11.985-71.128,8.767-103.191A20.659,20.659,0,0,1,178.5,612c5.854-3.616,11.843-7.195,17.634-10.655l5.613-3.361a72.391,72.391,0,0,1-6.925-9.682c-7.328-12.82-7.03-26.206.886-39.788,6.4-10.985,15.568-20.234,28.024-28.274,4.992-3.223,7.641-6.866,8.856-12.178a62.71,62.71,0,0,1,1.954-6.542l-2.01-1.138c-4.8-2.716-10.251-5.8-15.482-8.844-2.338-1.364-4.607-2.814-6.8-4.218l-.155-.1c-1.507-.962-3.016-1.926-4.544-2.856q-3.831-2.328-7.692-4.619l-.151-.09c-3.876-2.311-7.886-4.7-11.89-7.193-11.324-7.042-19.132-14.6-24.571-23.777-7.958-13.43-8.08-27.715-.361-42.458a55.048,55.048,0,0,1,3.254-5.4l.73-1.068c15.069-22.045,37.84-55.359,72.865-71.086A100.071,100.071,0,0,1,253.884,323c.009-.028.018-.062.026-.1a4.413,4.413,0,0,0-.9-3.468c-28.991-34.818-46.622-70.178-53.9-108.1-4.058-21.131-3.012-42.854,3.39-70.432,11.8-50.8,48.534-93.387,100.792-116.851a208.135,208.135,0,0,1,49.576-15.1l.156-.024C434.439-1.925,498.842,31.256,534.39,102.362c.555,1.116,1.079,2.165,1.373,2.679,21.079,36.837,26.068,75.066,15.7,120.307-6.062,26.421-19.26,48.818-32.622,69.088,3.207-1.107,6.443-2.182,9.7-3.171a55.8,55.8,0,0,0,6.583-2.467c8.916-4,16.52-10.3,23.246-19.248,7.521-10,15.372-19.978,22.965-29.625l3.2-4.071c7.654-9.742,17.272-20.509,30.568-26.479a52.6,52.6,0,0,1,5.491-2.107c20.745-6.643,40-2.683,54.232,11.148,14.49,14.084,20.882,36.819,15.542,55.287l-.158.447c-10.376,24.535-32.559,46.464-52.89,64.679-13.395,12-29.268,22.55-49.951,33.2-17.414,8.974-33,16.538-47.656,23.126-8.758,3.933-17.779,7.071-26.5,10.1l-5.762,2.011c-.13.045-.253.091-.37.14-.009.045-.017.094-.026.149-1.894,11.482-3.246,23.627-4.554,35.371l-.012.1c-2.317,20.845-4.714,42.4-10.256,62.61a201.154,201.154,0,0,1-39.044,75.284c-17.7,21.441-32.776,39.051-47.438,55.418a15.644,15.644,0,0,1-5.384,3.761,52.457,52.457,0,0,1-10.792,3.021,42.111,42.111,0,0,0-7.1,1.84c-7.333,3.553-12.272,9.371-17.856,17.6-8.934,13.168-25.617,24.964-38.25,31.614-3.873,2.037-7.73,3.913-11.79,5.737h0c-13.614,6.113-26.744,10.363-40.644,14.863-5.878,1.9-11.868,3.838-18.128,6a57.026,57.026,0,0,1-10.056,2.2l-.133.02c-1.88.291-3.824.592-5.571,1.012a29.582,29.582,0,0,0-4.391,3.12c-1.3,1.033-2.366,1.872-3.327,2.49l-.961.617a137.258,137.258,0,0,1-17.786,10.215,56.238,56.238,0,0,1-14.17,4.356A32.416,32.416,0,0,1,194.211,745.231ZM354.164,16.849a200.1,200.1,0,0,0-47.593,14.5c-49.959,22.431-85.05,63.022-96.276,111.362-6.137,26.436-7.163,47.135-3.327,67.115,7.018,36.558,24.091,70.737,52.194,104.49a12.433,12.433,0,0,1,2.543,10.384,7.772,7.772,0,0,1-4.343,5.551,7.867,7.867,0,0,1-1.3.449,91.962,91.962,0,0,0-15.061,5.261c-32.968,14.8-54.974,47-69.536,68.3l-.731,1.069a46.99,46.99,0,0,0-2.775,4.606c-6.341,12.114-6.289,23.778.161,34.661,4.758,8.032,11.722,14.725,21.914,21.063,3.941,2.451,7.917,4.823,11.763,7.116l.151.091c2.588,1.544,5.176,3.088,7.751,4.653,1.579.961,3.136,1.955,4.691,2.948l.158.1c2.128,1.363,4.326,2.768,6.523,4.048,5.184,3.023,10.606,6.088,15.39,8.792l7.809,4.42-1.077,3.143q-.3.874-.607,1.742a67.478,67.478,0,0,0-2.208,7.125c-1.678,7.333-5.591,12.771-12.316,17.113-11.373,7.342-19.7,15.71-25.451,25.581-6.463,11.089-6.741,21.487-.852,31.791a72.584,72.584,0,0,0,6.888,9.472c.734.906,1.471,1.815,2.2,2.74l2.754,3.476-3.741,2.382c-.617.393-1.265.8-1.925,1.193l-7.71,4.616c-5.767,3.445-11.73,7.009-17.531,10.593a12.75,12.75,0,0,0-3.924,3.658c-19.245,29.737-21.964,61.972-8.083,95.813,5.725,13.96,15.467,20.581,27.435,18.634A48.237,48.237,0,0,0,210.3,733.15a131.118,131.118,0,0,0,16.712-9.629l.986-.634c.7-.448,1.791-1.319,2.67-2.019a32.263,32.263,0,0,1,6.064-4.145,7.542,7.542,0,0,1,1.381-.481c2.068-.5,4.208-.832,6.277-1.152l.136-.022a50.123,50.123,0,0,0,8.665-1.854c6.337-2.184,12.364-4.132,18.191-6.017,13.771-4.458,26.7-8.643,39.915-14.578l1.638,3.65-1.638-3.65c3.908-1.754,7.618-3.559,11.343-5.518,11.776-6.2,27.249-17.079,35.354-29.026,6.167-9.088,12.107-16.024,21.051-20.338l.1-.046a44.715,44.715,0,0,1,8.813-2.4,47.023,47.023,0,0,0,9.127-2.483,7.929,7.929,0,0,0,2.7-1.8c14.587-16.283,29.594-33.816,47.225-55.171a193.2,193.2,0,0,0,37.5-72.308c5.377-19.6,7.737-40.838,10.02-61.378l.012-.1c1.319-11.847,2.683-24.1,4.611-35.784.511-3.117,1.809-4.879,4.48-6.078.367-.164.754-.319,1.174-.465l5.736-2c8.6-2.989,17.448-6.068,25.887-9.858,14.521-6.527,29.984-14.031,47.271-22.94,20.062-10.33,35.4-20.512,48.276-32.046,19.609-17.568,40.96-38.62,50.765-61.615,4.438-15.712-1.093-35.047-13.5-47.1-12.012-11.674-28.426-14.963-46.218-9.264a44.411,44.411,0,0,0-4.652,1.785c-11.713,5.259-20.5,15.147-27.556,24.126l-3.2,4.074c-7.565,9.613-15.389,19.554-22.856,29.484C557.2,284.414,548.579,291.525,538.4,296.1a63.879,63.879,0,0,1-7.529,2.821c-5.974,1.819-11.98,3.963-17.789,6.037l-13.6,4.846,6.017-9.709c1.409-2.274,2.875-4.435,4.293-6.525.815-1.2,1.594-2.349,2.353-3.507,12.958-19.654,25.742-41.309,31.521-66.5,9.89-43.161,5.172-79.56-14.849-114.546-.388-.68-.856-1.613-1.587-3.079C493.344,38.151,431.877,6.517,354.164,16.849ZM239.993,724.02l-.016,0Z" style="fill:#171c21"/><path d="M194.076,743.183c-12.522,0-22.878-8.032-28.876-22.658-14.662-35.746-11.772-69.824,8.59-101.287a18.564,18.564,0,0,1,5.791-5.487c5.916-3.656,11.971-7.273,17.826-10.772q3.718-2.221,7.431-4.45c-.268-.332-.536-.662-.8-.989a78.137,78.137,0,0,1-7.43-10.264c-6.838-11.964-6.536-25.011.877-37.726,6.234-10.7,15.183-19.721,27.361-27.58,5.487-3.543,8.4-7.567,9.748-13.451a72.082,72.082,0,0,1,2.4-7.769l.063-.182-3.533-2c-5.077-2.87-10.327-5.839-15.435-8.815-2.3-1.344-4.553-2.782-6.729-4.173-1.572-1.006-3.144-2.012-4.738-2.981q-3.918-2.382-7.868-4.723c-3.893-2.321-7.918-4.723-11.845-7.166-11.034-6.863-18.625-14.2-23.888-23.079-7.57-12.775-7.674-26.385-.308-40.452a52.677,52.677,0,0,1,3.129-5.2l.731-1.068c16.6-24.282,44.379-64.924,88.042-75.969a1.634,1.634,0,0,0,1.225-1.268,6.384,6.384,0,0,0-1.236-5.558c-28.763-34.545-46.25-69.6-53.461-107.17-4-20.834-2.961-42.293,3.374-69.579,7.481-32.216,25.4-61.547,51.828-84.823,26.574-23.406,60.077-39.163,96.885-45.565l.156-.024C406.062,3.934,450.7,14.917,486.061,43.6c28,22.714,41.429,49.575,46.484,59.688.631,1.261,1.129,2.257,1.427,2.778,20.807,36.36,25.728,74.117,15.484,118.824C543.465,251,530.369,273.21,517.11,293.322c-.791,1.2-1.6,2.389-2.406,3.583q-.517.764-1.038,1.534c5.064-1.8,10.257-3.614,15.473-5.2,12.223-3.726,22.323-11.069,30.876-22.446,7.571-10.069,15.479-20.117,23.127-29.833l3.011-3.828c8.656-11.014,19.59-22.942,35.067-27.9,19.981-6.4,38.508-2.614,52.168,10.661,13.968,13.576,20.136,35.468,15,53.237l-.159.449c-10.145,23.954-32.123,45.651-52.284,63.716-13.26,11.879-29,22.334-49.518,32.9-17.361,8.945-32.917,16.493-47.557,23.078-8.617,3.877-17.645,7.015-26.376,10.049q-2.864,1-5.721,2c-1.532.539-1.548.643-1.757,1.907-1.9,11.564-3.263,23.771-4.577,35.575-2.311,20.78-4.7,42.266-10.2,62.3A199.061,199.061,0,0,1,451.6,579.614c-17.7,21.438-32.756,39.027-47.384,55.355-3.34,3.728-9.3,4.955-15.054,6.14a39.321,39.321,0,0,0-7.785,2.095c-7.542,3.644-12.834,9.913-18.461,18.205-8.717,12.85-25.089,24.411-37.5,30.946-17.755,9.346-34.484,14.76-52.194,20.491-5.842,1.89-11.883,3.844-18.08,5.981a54.78,54.78,0,0,1-9.7,2.111c-2.085.321-4.055.624-5.95,1.083-1.036.246-3.693,2.36-5.12,3.5-1.134.9-2.2,1.754-3.154,2.365l-.961.618c-9.42,6.06-19.162,12.326-31.172,14.27A31.252,31.252,0,0,1,194.076,743.183Zm160.44-724.3c-35.323,6.158-67.441,21.259-92.89,43.674C236.46,84.719,219.405,112.6,212.3,143.182c-6.07,26.142-7.091,46.578-3.311,66.26,6.95,36.207,23.878,70.082,51.753,103.56a14.388,14.388,0,0,1,2.695,13.152,9.645,9.645,0,0,1-6.872,6.549c-40.727,10.3-66.405,47.869-83.4,72.727l-.731,1.07a44.735,44.735,0,0,0-2.649,4.4c-6.074,11.6-6.041,22.286.1,32.658,4.584,7.734,11.331,14.2,21.233,20.364,3.864,2.4,7.856,4.785,11.717,7.088,2.647,1.579,5.295,3.158,7.927,4.759,1.647,1,3.269,2.039,4.891,3.076,2.107,1.347,4.287,2.741,6.449,4,5.061,2.951,10.055,5.774,15.342,8.762q3.2,1.81,6.429,3.642l2.837,1.612-1.009,3.1c-.376,1.154-.775,2.3-1.174,3.434a65.205,65.205,0,0,0-2.147,6.907c-1.8,7.891-6,13.734-13.206,18.387-11.1,7.162-19.2,15.3-24.789,24.888-5.976,10.25-6.259,20.253-.842,29.732a71.107,71.107,0,0,0,6.7,9.192c1.2,1.484,2.448,3.019,3.669,4.628l2.635,3.472-4.622,2.926c-.9.576-1.907,1.221-2.936,1.835q-3.731,2.244-7.487,4.483c-5.83,3.483-11.858,7.086-17.723,10.71a10.642,10.642,0,0,0-3.278,3.023c-18.857,29.139-21.516,60.733-7.907,93.911,3.084,7.52,10.459,19.785,25.2,17.383,10.365-1.678,18.991-7.227,28.124-13.1l.961-.618c.609-.391,1.528-1.123,2.5-1.9,2.694-2.145,5.479-4.361,8.237-5.017,2.209-.533,4.439-.877,6.6-1.209a48.126,48.126,0,0,0,8.3-1.765c6.271-2.163,12.349-4.129,18.226-6.032,17.375-5.622,33.785-10.932,50.931-19.958,11.559-6.084,26.721-16.729,34.61-28.358,5.5-8.1,11.915-16.238,21.6-20.917a43.024,43.024,0,0,1,9.653-2.728c4.067-.836,9.129-1.878,10.708-3.642,14.556-16.246,29.545-33.758,47.173-55.11a191.108,191.108,0,0,0,37.1-71.54c5.329-19.421,7.685-40.59,9.962-61.063,1.325-11.906,2.7-24.219,4.634-35.991.7-4.235,2.79-6.672,6.994-8.152q2.87-1.01,5.751-2.007c8.568-2.977,17.425-6.056,25.721-9.789,14.51-6.526,29.941-14.015,47.176-22.894,19.9-10.248,35.1-20.336,47.843-31.748,19.438-17.418,40.584-38.236,50.16-60.655,4.235-15.013-1.073-33.5-12.954-45.052-11.439-11.116-27.118-14.236-44.152-8.779h0c-13.418,4.3-23.309,15.161-31.216,25.222l-3.015,3.832c-7.621,9.682-15.5,19.7-23.019,29.692-9.606,12.78-21.036,21.053-34.939,25.292-5.941,1.809-11.939,3.95-17.74,6.021-2.689.96-5.378,1.92-8.076,2.854l-9.531,3.3,4.679-8.935a119.824,119.824,0,0,1,7.28-11.711c.789-1.166,1.577-2.327,2.349-3.5,12.846-19.486,25.52-40.946,31.227-65.819,9.768-42.627,5.118-78.553-14.63-113.062-.41-.716-.925-1.747-1.638-3.175-4.844-9.689-17.71-35.428-44.369-57.051C447.453,22.585,404.9,12.178,354.516,18.879Z" style="fill:#171c21"/><path d="M431.838,337.075a158.7,158.7,0,1,0-202.454-96.847,158.693,158.693,0,0,0,202.454,96.847" style="fill:#fff"/><path d="M230.86,592.388c.323.027,6.115.368,14.673-8.522,6.941-7.2,2.507-42.2.311-56.745a97.119,97.119,0,0,0-24.674,20.1c-22.109,25.009-10.087,41.667,9.69,45.169" style="fill:#fff"/><path d="M525.306,166.792c4.034,25.236,1.191,81.6-36.917,114.759-43.7,38.021-103.88,49.291-157.583,13.14-32.777-22.067-57.369-77.789-25.789-108.671s87.361-28.072,135.746-34.537c51.765-6.917,81.425-4.249,84.543,15.309" style="fill:#171c21"/><path d="M287.6,78.193C342.105,30.86,438.333,40.562,439.355,40.667a158.681,158.681,0,1,0-41.31,304.3c-36.823-1.435-82.127-20.334-122.128-77.978C235.886,209.3,232.8,125.784,287.6,78.193" style="fill:#e6e7e8"/><path d="M624.838,221.033C600.3,232.18,580.756,276.41,559,292.212c-18.161,13.189-68.955,28.294-68.958,28.289l-.007.038a.235.235,0,0,0,0-.033,185.526,185.526,0,0,1-215.786,3.9c-.445,2.769-.9,5.7-1.381,8.745l0,0a13.147,13.147,0,0,0-1.342.147c-30.4,5.129-81.432,56.294-86.266,88.136-.072.48-.12.967-.147,1.454-.007.157,0,.318-.007.482,0,.329-.011.651,0,.978.007.2.032.393.046.587.024.3.044.593.085.887.029.211.068.417.1.628.047.285.1.575.16.86.049.22.106.433.163.647.073.289.148.577.233.857q.1.332.213.649c.1.292.195.575.307.865.087.212.175.433.267.658.119.287.245.574.376.858.1.221.209.44.314.659.146.287.3.581.453.869.117.223.232.432.354.648.171.3.35.6.53.895.13.209.254.419.391.631.2.306.405.615.613.926.137.2.27.4.412.6.232.322.477.65.718.977.139.183.273.37.415.552.281.361.575.722.874,1.088.122.144.233.3.355.441.413.5.837.979,1.276,1.465a.887.887,0,0,0,.054.071c.47.515.953,1.037,1.454,1.554.078.084.162.166.244.249.414.427.84.864,1.277,1.287.156.15.316.3.478.453.371.36.742.718,1.124,1.068.195.188.4.367.6.55.353.326.712.652,1.085.978.218.19.441.381.663.576.365.317.732.63,1.107.943.236.2.473.394.71.588.375.31.75.623,1.13.928l.753.593c.385.308.771.607,1.162.912l.785.6c.4.3.8.6,1.206.9.266.193.532.386.8.593.41.294.829.593,1.251.9.268.192.543.385.819.586.433.3.867.6,1.305.906.27.185.542.373.814.557.458.313.921.619,1.384.93.267.174.531.356.795.525.5.333,1,.656,1.5.976.24.159.476.313.718.466.593.38,1.2.759,1.807,1.134.156.1.306.2.46.287.771.482,1.547.951,2.331,1.421.116.073.236.139.353.212.659.39,1.316.785,1.986,1.171.286.163.578.332.871.5.5.292,1,.578,1.5.866.337.188.676.376,1.012.565.466.26.932.523,1.394.776.365.206.731.4,1.1.6.444.248.885.483,1.328.722.392.213.779.42,1.169.624.423.221.85.453,1.275.672.405.213.814.432,1.226.642s.819.42,1.234.635.846.432,1.27.643c.4.207.8.407,1.2.606.434.219.87.437,1.3.642.391.2.779.382,1.164.571.458.221.909.444,1.367.658.362.172.723.35,1.087.52.476.225.957.457,1.443.686.326.153.654.3.987.457.512.24,1.026.471,1.539.707.275.125.544.243.823.372.562.253,1.129.514,1.694.766l.474.207c3.827,1.695,7.633,3.288,11.356,4.751.068.025.143.058.218.086.679.268,1.349.522,2.025.782.117.04.241.091.364.137.653.253,1.308.492,1.955.738.13.045.256.1.39.149.648.242,1.3.473,1.935.7.121.046.247.088.368.135.642.233,1.282.451,1.916.681.116.04.235.082.351.115.648.236,1.291.453,1.93.672.089.031.173.057.257.078.665.228,1.319.449,1.974.661.05.017.105.033.157.049,8.572,2.793,16.115,4.644,21.674,5.261l.007,0a27.054,27.054,0,0,0,5.692.144A18.929,18.929,0,0,0,308,491.776c.213-.09.42-.161.632-.256l.018-.008a24.6,24.6,0,0,0,2.466-1.282l0-.008c.45-.269.89-.553,1.331-.852h0c.74-.5,1.465-1.044,2.175-1.629.006,0,.011-.011.013-.012.276-.225.55-.473.821-.715.392-.345.777-.689,1.159-1.054s.738-.717,1.1-1.1c0-.007,0-.008.008-.009.351-.366.688-.751,1.032-1.132.142-.155.282-.3.418-.467a.011.011,0,0,1,.006-.008c.41-.466.812-.953,1.208-1.45.066-.081.132-.16.193-.246l.01,0c.2-.258.41-.513.613-.775,0,0,0,0,0-.01.1-.125.194-.261.293-.389.588-.791,1.156-1.607,1.712-2.436a.035.035,0,0,0,.014-.021c.117-.179.24-.353.356-.54l0-.008c.352-.537.7-1.078,1.033-1.628.012-.027.029-.047.042-.074,0,0,0-.006,0-.007a75.649,75.649,0,0,0,6.718-14.414.315.315,0,0,1,.027-.08c.192-.573.379-1.139.559-1.7.035-.1.065-.2.1-.305.538-1.716,1-3.417,1.392-5.078.022-.083.044-.173.064-.255.112-.486.209-.958.308-1.438.039-.186.079-.363.111-.543.087-.468.177-.928.26-1.377.02-.15.044-.295.065-.442.168-1.008.3-2,.4-2.953a.151.151,0,0,0,.006-.043c2.939,12.125,2.448,29.125-12.562,47.437-.342.413-.692.807-1.05,1.191-.023,0-.049-.018-.069-.015-9.924,10.776-26.551,12.075-43.851,8.786-.048-.015-.092-.021-.14-.032-.656-.126-1.312-.257-1.976-.4-.215-.044-.429-.095-.638-.133l-1.513-.341c-.411-.1-.822-.2-1.231-.293-.318-.078-.638-.155-.957-.239-.673-.17-1.346-.342-2.018-.525a1.9,1.9,0,0,1-.19-.05,145.487,145.487,0,0,1-14.217-4.673c-.264,7.556-.332,14.639-.169,21.026a.279.279,0,0,0,0,.063c-.917,19.021.88,42.245,1.524,55.735,0,.059,0,.111.01.17.023.556.047,1.1.073,1.628,0,.072,0,.13,0,.2.019.412.032.807.046,1.2.007.19.011.375.018.565.009.269.022.53.023.778.006.2.014.379.016.565,0,.243.006.47.012.7,0,.167.008.337.006.5,0,.289.008.563.007.836,0,.156,0,.309-.008.464,0,.24-.007.468-.009.684,0,.116-.013.218-.017.329-.005.175-.014.344-.024.5-.005.1-.015.2-.02.3-.013.147-.028.294-.046.428,0,.076-.016.148-.021.218-.03.185-.061.362-.095.5a3.3,3.3,0,0,1-.244.637c-.044.093-.1.183-.155.293-.057.087-.123.193-.191.288a15.853,15.853,0,0,1-3.451,3.349s.01,0,.016.008c-11.067,8.445-41.552,20.922-52.6,29.038a14.688,14.688,0,0,0-4.368,5.808c-7.765,11.439-22.579,38.885-15.949,74.618,7.866,42.4,39.769,31.3,52.646,5.186-17.6-2.916-25.952-15.7-24.153-15.046.505.46,1.019.906,1.547,1.328l.022.021a15.18,15.18,0,0,0,6.5,3.743c.1.045.21.093.316.131C242.708,704.56,339.014,674.4,351.28,640.352c1.409-3.9,2.956-8.088,4.568-12.443l0,0,0-.014c.007-.012,0-.027,0-.05.235-.651.487-1.37.751-2.136,5.059-14.656,15.591-48.653,16.144-51.307.567-2.694,3.671,9.9-2.657,49.891-.22,1.432.227,3.217,2.8,2.794,7-1.325,12.807-3.976,16.788-8.369,27.418-30.252,46.788-55.719,64.189-85.84a3.861,3.861,0,0,0,.439-1.344c15.961-30.231,27.283-81.325,32.8-128.615.5-8.81.969-19.412.974-28.281,0-.021,0-.049,0-.074,0-2.11-.025-4.118-.088-5.983,0-.182-.006-.369-.014-.558-.032-.883-.066-1.745-.112-2.549-.017-.188-.017-.36-.021-.5a.781.781,0,0,1,.007-.135c0-.093,0-.18,0-.26s.015-.145.026-.208c0-.025.007-.055.007-.073.19-1.054,1.046.547,2.256,3.829,0,0,0,0,0-.013,1.667,4.554,4.02,12.388,6.3,21.2,33.29-12.44,85.341-32.7,98.839-42.553,22.153-16.193,80.622-70.212,79.178-89.016-1.857-24.238-25.1-47.86-49.631-36.71M267.574,413.464c.022-.044.039-.079.06-.119.077-.148.162-.306.264-.48a.116.116,0,0,0,.024-.045c.113-.182.24-.387.384-.6.035-.062.08-.116.118-.179.129-.187.267-.38.413-.587.03-.041.054-.076.083-.117.174-.243.363-.5.566-.759.055-.071.116-.154.175-.232.169-.217.345-.45.528-.685.055-.064.1-.124.154-.188.222-.287.461-.588.708-.892.081-.1.171-.205.252-.312.189-.226.381-.465.573-.705.093-.109.181-.216.272-.321l.788-.954c.139-.158.276-.324.413-.493.159-.184.317-.375.479-.567,5.164-6.134,12.558-14.529,18.966-22.945a.188.188,0,0,1,.019-.026q1.331-1.747,2.594-3.485c.018-.021.031-.042.045-.06q1.254-1.735,2.412-3.437a.424.424,0,0,0,.048-.067c.369-.546.731-1.089,1.089-1.636a.626.626,0,0,1,.045-.06c.361-.557.715-1.111,1.053-1.658a.384.384,0,0,0,.044-.069c.32-.518.634-1.021.932-1.531.03-.047.057-.1.082-.144.316-.529.619-1.057.907-1.575l.006-.015,0,0c2.59,5.69-10,33.7-17.059,48.57-.1-.006-.193-.011-.293-.021-.485-.027-.964-.061-1.435-.088-.17-.01-.34-.022-.513-.037-.392-.023-.785-.046-1.172-.074-.665-.041-1.323-.086-1.956-.121-.1-.006-.21-.013-.316-.024-.514-.029-1.014-.065-1.5-.1-.1-.011-.2-.014-.291-.02q-.657-.045-1.282-.095a1.858,1.858,0,0,1-.2-.018c-.455-.028-.889-.066-1.315-.1-.093-.014-.181-.014-.271-.025-.427-.035-.837-.075-1.229-.123,0,0-.013,0-.02,0-.391-.039-.762-.084-1.12-.132-.075-.009-.157-.021-.231-.028-.35-.051-.686-.1-1-.151a.242.242,0,0,1-.08-.016c-.287-.046-.556-.106-.813-.156-.059-.013-.116-.028-.167-.038-.267-.061-.514-.131-.735-.2-.04-.009-.07-.021-.109-.03a4.7,4.7,0,0,1-.534-.2.852.852,0,0,1-.1-.04,3.28,3.28,0,0,1-.444-.248c-.019-.016-.046-.035-.074-.059a1.553,1.553,0,0,1-.272-.264.21.21,0,0,0-.027-.034.717.717,0,0,1-.134-.319c0-.027-.01-.057-.011-.078a1.069,1.069,0,0,1,.036-.375,2.926,2.926,0,0,1,.174-.418" style="fill:#fff"/><path d="M245.532,583.866c2.175-2.258,3.223-7.255,3.587-13.49-1.9.345-4.747,1.01-9.112,2.152-15.253,3.98-27.19-13.2-27.25-13.3-9.385,18.345,1.777,30.306,18.275,33.165,1.085.013,6.622-.34,14.5-8.524" style="fill:#e6e7e8"/><path d="M224.247,702.552c-1.55,1.922-3.679,4.6-6.693,8.423-12.512,15.87-29.667,6.655-33.524,4.268,12.111,22.332,36.344,11.086,47.2-10.889a41.536,41.536,0,0,1-6.982-1.8" style="fill:#e6e7e8"/><path d="M643.65,257.735c-.429,1.161-52.362,71.823-57.068,67.623S565.931,307.526,566.84,310.1s10.171,16.966,4.262,21.559c-5.587,4.348-73.066,34.272-80.551,37.587.932,2.661,2.031,6.14,3.194,10.184l2.707,9.885c33.322-12.47,85.49-32.8,98.839-42.553,19.53-14.276,67.262-57.94,77.3-80.958-12.961,7.943-28.515-9.223-28.942-8.066" style="fill:#e6e7e8"/><path d="M471.14,399.911a66.813,66.813,0,0,1,16.186-1.129c.465-9.026.847-19.158.734-27.32a91.972,91.972,0,0,0-16.92,28.449" style="fill:#e6e7e8"/><path d="M468.238,467.731c-3.79.555-7.868,1.111-11.993,1.643-.2.03-.4.053-.6.076-.684.089-1.37.177-2.055.258-.856.112-1.717.216-2.574.328-10.917,1.35-21.457,2.481-27.132,3.077,20.972,2.977,19.952,16.252,19.926,16.591-12.57,33.849-26.44,67.037-31.219,73.887-8.541,12.236-36.063,22.653-38.625,23.605-.2,8.028-1.18,20.061-3.869,37.094-.217,1.418.233,3.147,2.714,2.788,7.044-1.3,12.871-3.953,16.874-8.362,27.421-30.253,46.789-55.723,64.192-85.842a3.847,3.847,0,0,0,.432-1.385c8.816-16.7,16.208-39.776,21.993-65.047-2.44.431-5.169.862-8.064,1.289" style="fill:#e6e7e8"/><path d="M316.049,415.036q.525-5.964.922-12.388a.51.51,0,0,0-.065-.017c-1.369,4.072-2.789,7.961-4.26,11.628-.566-.126-1.134-.251-1.7-.372q-1.089-6.168-2.254-12.629a.622.622,0,0,0-.063,0q-.447,6.219-1.017,11.949c-.579-.114-1.152-.224-1.729-.33.467-4.568.875-9.4,1.228-14.453q1.352.169,2.713.36,1.165,6.3,2.257,12.358c.027.006.055.009.082.015,1.364-3.609,2.682-7.413,3.953-11.382.963.165,1.927.342,2.9.525-.29,5.27-.642,10.347-1.056,15.194q-.957-.233-1.912-.456" style="fill:#171c21"/><path d="M318.23,415.866l-.34-.083q-.956-.231-1.91-.455l-.252-.059.022-.259c.3-3.364.563-6.851.8-10.388-1.188,3.44-2.4,6.712-3.62,9.748l-.1.236-.5-.11c-.482-.106-.964-.213-1.444-.315l-.2-.042-.035-.2q-.914-5.169-1.879-10.547c-.254,3.332-.543,6.633-.861,9.842l-.032.329-.324-.064c-.578-.113-1.15-.224-1.725-.329l-.272-.05.028-.275c.456-4.469.87-9.328,1.227-14.444l.022-.316.315.039q1.353.169,2.717.361l.214.03.039.213q1.079,5.827,2.092,11.445c1.224-3.286,2.44-6.811,3.619-10.492l.08-.248.257.044c.964.165,1.93.343,2.9.526l.258.049-.015.262c-.288,5.253-.644,10.369-1.056,15.2Zm-1.859-1.062q.66.154,1.32.314c.393-4.644.733-9.545,1.012-14.574-.8-.148-1.587-.294-2.378-.432-1.263,3.931-2.567,7.68-3.878,11.15l-.091.24-.449-.1-.118-.213q-1.074-5.949-2.218-12.144-1.092-.151-2.18-.29c-.345,4.9-.742,9.564-1.178,13.87q.567.105,1.136.217c.371-3.78.7-7.684.983-11.613l.019-.266.283-.013.3.017.054.233q1.142,6.353,2.218,12.432c.416.089.833.181,1.25.273h0c1.4-3.515,2.8-7.34,4.16-11.376l.089-.265.573.174-.014.223C317.016,406.8,316.713,410.883,316.371,414.8Z" style="fill:#171c21"/><path d="M332.21,419.223c.341-5.146.62-10.487.838-15.985l1.928.452c-.207,5.527-.475,10.9-.806,16.084q-.981-.276-1.96-.551" style="fill:#171c21"/><path d="M334.446,420.164l-2.552-.717.016-.243c.338-5.078.619-10.453.838-15.977l.015-.364,2.523.592-.01.247c-.21,5.58-.481,11-.807,16.092ZM332.525,419l1.369.384c.31-4.907.57-10.106.773-15.459l-1.334-.313C333.12,408.928,332.848,414.1,332.525,419Z" style="fill:#171c21"/><path d="M356,425.921a3.933,3.933,0,0,1-2.311-.072,5.75,5.75,0,0,1-2.342-1.352,7.74,7.74,0,0,1-1.68-2.328,11.626,11.626,0,0,1-.971-3.052,15.9,15.9,0,0,1-.25-3.584,14.512,14.512,0,0,1,.5-3.416,7.95,7.95,0,0,1,1.182-2.532,4.091,4.091,0,0,1,1.778-1.429,3.629,3.629,0,0,1,2.312-.1,5.8,5.8,0,0,1,2.171,1.067,5.973,5.973,0,0,1,1.611,2q-.63.588-1.265,1.166a5.016,5.016,0,0,0-1.107-1.452,3.445,3.445,0,0,0-1.366-.735,2.066,2.066,0,0,0-1.571.157,3.068,3.068,0,0,0-1.132,1.219,7.76,7.76,0,0,0-.71,2.026,15.076,15.076,0,0,0-.3,2.6,15.815,15.815,0,0,0,.128,2.7,10.589,10.589,0,0,0,.588,2.344,5.822,5.822,0,0,0,1.066,1.793,3.343,3.343,0,0,0,1.575,1,2.068,2.068,0,0,0,1.479-.054,2.264,2.264,0,0,0,1.063-.869q.579.879,1.163,1.761A3.364,3.364,0,0,1,356,425.921" style="fill:#171c21"/><path d="M355.049,426.362a5.16,5.16,0,0,1-1.443-.225,6.05,6.05,0,0,1-2.462-1.421A8.089,8.089,0,0,1,349.4,422.3a11.834,11.834,0,0,1-1-3.128,16.079,16.079,0,0,1-.255-3.649,14.892,14.892,0,0,1,.508-3.487,8.275,8.275,0,0,1,1.229-2.629,4.395,4.395,0,0,1,1.906-1.529,3.924,3.924,0,0,1,2.5-.11,6.106,6.106,0,0,1,2.282,1.122,6.321,6.321,0,0,1,1.693,2.1l.1.2-.166.156q-.633.588-1.268,1.168l-.285.259-.182-.339a4.69,4.69,0,0,0-1.038-1.368,3.15,3.15,0,0,0-1.249-.67,1.754,1.754,0,0,0-1.344.127,2.774,2.774,0,0,0-1.017,1.1,7.416,7.416,0,0,0-.68,1.947,14.582,14.582,0,0,0-.295,2.542,15.464,15.464,0,0,0,.125,2.647,10.25,10.25,0,0,0,.571,2.277,5.484,5.484,0,0,0,1.009,1.7,3.043,3.043,0,0,0,1.434.912,1.778,1.778,0,0,0,1.273-.039,1.987,1.987,0,0,0,.938-.763l.252-.375,1.529,2.315-.131.17A3.661,3.661,0,0,1,356.1,426.2l-.006,0A3.392,3.392,0,0,1,355.049,426.362Zm-1.893-18.145a3.027,3.027,0,0,0-1.141.217,3.793,3.793,0,0,0-1.646,1.328,7.68,7.68,0,0,0-1.137,2.439,14.3,14.3,0,0,0-.484,3.343,15.448,15.448,0,0,0,.245,3.517,11.211,11.211,0,0,0,.946,2.976,7.473,7.473,0,0,0,1.615,2.241,5.458,5.458,0,0,0,2.221,1.283,3.659,3.659,0,0,0,2.132.075,3.042,3.042,0,0,0,1.328-.882l-.813-1.231a2.5,2.5,0,0,1-.931.639,2.375,2.375,0,0,1-1.674.063,3.648,3.648,0,0,1-1.713-1.087,6.079,6.079,0,0,1-1.123-1.885,10.862,10.862,0,0,1-.605-2.411,15.954,15.954,0,0,1-.131-2.75,15.213,15.213,0,0,1,.309-2.649,8.048,8.048,0,0,1,.739-2.107A3.353,3.353,0,0,1,352.538,410a2.36,2.36,0,0,1,1.8-.189,3.751,3.751,0,0,1,1.488.8,4.931,4.931,0,0,1,.987,1.2q.41-.374.817-.753a5.632,5.632,0,0,0-1.423-1.7,5.524,5.524,0,0,0-2.059-1.012A4,4,0,0,0,353.156,408.217Z" style="fill:#171c21"/><path d="M377.736,432.239q-1.308-4.295-2.623-8.6c-.615-.152-1.228-.309-1.84-.463q-.05,3.947-.129,7.842-.995-.276-1.992-.556c.125-5.79.193-11.683.209-17.648q2.044.512,4.1,1.009a6.187,6.187,0,0,1,1.644.662,5.034,5.034,0,0,1,1.366,1.176,5.615,5.615,0,0,1,.92,1.748,7.45,7.45,0,0,1,.338,2.346,5.908,5.908,0,0,1-.252,1.851,3.792,3.792,0,0,1-.657,1.22,2.543,2.543,0,0,1-.878.686,2.45,2.45,0,0,1-.927.195q1.465,4.565,2.923,9.117c-.733-.195-1.466-.387-2.2-.583m-.028-12.893a4.7,4.7,0,0,0-.222-1.549,3.671,3.671,0,0,0-.586-1.091,2.851,2.851,0,0,0-.82-.693,4.037,4.037,0,0,0-.945-.363l-1.81-.453q-.009,3.126-.035,6.225c.62.16,1.244.318,1.864.478a1.906,1.906,0,0,0,1.852-.363,2.91,2.91,0,0,0,.7-2.191" style="fill:#171c21"/><path d="M380.393,433.253l-2.9-.767-.049-.16q-1.281-4.212-2.572-8.438l-1.308-.33q-.048,3.756-.124,7.464l-.008.385-.372-.1q-1-.276-1.993-.556l-.224-.063.006-.233c.121-5.647.191-11.583.208-17.641v-.383l.372.092q2.043.512,4.1,1.007a6.547,6.547,0,0,1,1.726.7,5.325,5.325,0,0,1,1.445,1.243,5.9,5.9,0,0,1,.972,1.844,7.762,7.762,0,0,1,.353,2.442,6.153,6.153,0,0,1-.267,1.947,4.113,4.113,0,0,1-.712,1.318,2.561,2.561,0,0,1-1.633.952q1.407,4.386,2.809,8.759Zm-2.419-1.261,1.512.4q-1.374-4.3-2.756-8.6l-.124-.389.409,0a2.152,2.152,0,0,0,.812-.172,2.241,2.241,0,0,0,.765-.6,3.505,3.505,0,0,0,.6-1.125,5.569,5.569,0,0,0,.236-1.755,7.167,7.167,0,0,0-.324-2.25,5.277,5.277,0,0,0-.868-1.654,4.729,4.729,0,0,0-1.28-1.1,5.952,5.952,0,0,0-1.569-.633q-1.865-.452-3.729-.915c-.018,5.847-.086,11.575-.2,17.038l1.395.389q.078-3.7.121-7.453l0-.38,2.373.6.049.162Q376.693,427.779,377.974,431.992Zm-2.162-9.708a3.064,3.064,0,0,1-.729-.094l-2.1-.537,0-.234q.027-3.1.035-6.223v-.383l2.182.546a4.322,4.322,0,0,1,1.015.39,3.113,3.113,0,0,1,.909.767,3.932,3.932,0,0,1,.637,1.179,5.045,5.045,0,0,1,.239,1.652,3.209,3.209,0,0,1-.794,2.407A2.008,2.008,0,0,1,375.812,422.284Zm-2.22-1.095,1.637.419a1.609,1.609,0,0,0,1.576-.293,2.66,2.66,0,0,0,.6-1.969h0a4.431,4.431,0,0,0-.205-1.45,3.292,3.292,0,0,0-.536-1,2.506,2.506,0,0,0-.73-.619,3.709,3.709,0,0,0-.875-.336l-1.438-.36Q373.615,418.4,373.592,421.189Z" style="fill:#171c21"/><path d="M403.963,429.06a18.371,18.371,0,0,1-.3,3.9,9.035,9.035,0,0,1-1.029,2.859,4.181,4.181,0,0,1-1.688,1.65,3.418,3.418,0,0,1-2.292.223,4.917,4.917,0,0,1-2.308-1.186,7.989,7.989,0,0,1-1.735-2.334,13.077,13.077,0,0,1-1.1-3.268,20.852,20.852,0,0,1-.4-4,18.761,18.761,0,0,1,.315-3.85,8.708,8.708,0,0,1,1.007-2.815,3.955,3.955,0,0,1,1.669-1.607,3.45,3.45,0,0,1,2.291-.257,4.632,4.632,0,0,1,2.263,1.117,7.808,7.808,0,0,1,1.728,2.252,13.336,13.336,0,0,1,1.135,3.263,21.511,21.511,0,0,1,.446,4.045m-2.122-.384a20.7,20.7,0,0,0-.263-3,13.754,13.754,0,0,0-.664-2.524,6.353,6.353,0,0,0-1.055-1.8,2.525,2.525,0,0,0-1.426-.849A1.752,1.752,0,0,0,397,420.8a3.341,3.341,0,0,0-1.017,1.4,9.007,9.007,0,0,0-.583,2.275,19.983,19.983,0,0,0-.163,2.886,22.2,22.2,0,0,0,.239,2.979,11.574,11.574,0,0,0,.638,2.509,5.982,5.982,0,0,0,1.059,1.823,2.618,2.618,0,0,0,1.467.874,1.666,1.666,0,0,0,1.43-.281,3.477,3.477,0,0,0,1.011-1.4,9.466,9.466,0,0,0,.594-2.277,17.481,17.481,0,0,0,.165-2.909" style="fill:#171c21"/><path d="M399.528,438.094a4.451,4.451,0,0,1-.939-.105,5.209,5.209,0,0,1-2.446-1.255,8.286,8.286,0,0,1-1.8-2.422,13.4,13.4,0,0,1-1.131-3.343,21.1,21.1,0,0,1-.4-4.055,19.072,19.072,0,0,1,.321-3.91,9.02,9.02,0,0,1,1.044-2.912,4.263,4.263,0,0,1,1.8-1.724,3.766,3.766,0,0,1,2.476-.279,4.929,4.929,0,0,1,2.406,1.186,8.153,8.153,0,0,1,1.794,2.336,13.718,13.718,0,0,1,1.162,3.341,21.992,21.992,0,0,1,.453,4.1h0a18.7,18.7,0,0,1-.309,3.969,9.184,9.184,0,0,1-1.067,2.957,4.479,4.479,0,0,1-1.81,1.762A3.454,3.454,0,0,1,399.528,438.094Zm-1.966-19.5a2.883,2.883,0,0,0-1.327.308,3.679,3.679,0,0,0-1.547,1.5,8.463,8.463,0,0,0-.97,2.719,18.589,18.589,0,0,0-.31,3.788,20.61,20.61,0,0,0,.39,3.94,12.8,12.8,0,0,0,1.078,3.192,7.724,7.724,0,0,0,1.668,2.247,4.637,4.637,0,0,0,2.168,1.114,3.112,3.112,0,0,0,2.1-.2,3.914,3.914,0,0,0,1.563-1.535,8.765,8.765,0,0,0,.992-2.766,18.113,18.113,0,0,0,.3-3.839h0a21.353,21.353,0,0,0-.439-3.987,13.106,13.106,0,0,0-1.108-3.189,7.526,7.526,0,0,0-1.659-2.163,4.328,4.328,0,0,0-2.123-1.048A4,4,0,0,0,397.562,418.6Zm1.522,17.3a2.34,2.34,0,0,1-.51-.058,2.9,2.9,0,0,1-1.624-.967,6.265,6.265,0,0,1-1.115-1.917,11.794,11.794,0,0,1-.654-2.57,22.252,22.252,0,0,1-.243-3.019,20.282,20.282,0,0,1,.166-2.932,9.209,9.209,0,0,1,.605-2.352,3.632,3.632,0,0,1,1.113-1.52,2.065,2.065,0,0,1,1.665-.361,2.833,2.833,0,0,1,1.595.945,6.718,6.718,0,0,1,1.11,1.892,14.184,14.184,0,0,1,.682,2.584,20.978,20.978,0,0,1,.267,3.047,17.775,17.775,0,0,1-.167,2.959,9.782,9.782,0,0,1-.616,2.35,3.743,3.743,0,0,1-1.1,1.525A1.918,1.918,0,0,1,399.084,435.9Zm-1.051-15.14a1.4,1.4,0,0,0-.854.287,3.059,3.059,0,0,0-.919,1.274,8.764,8.764,0,0,0-.562,2.2,19.632,19.632,0,0,0-.16,2.842,21.771,21.771,0,0,0,.236,2.938,11.217,11.217,0,0,0,.621,2.443,5.668,5.668,0,0,0,1,1.736,2.318,2.318,0,0,0,1.3.777,1.378,1.378,0,0,0,1.194-.228,3.172,3.172,0,0,0,.914-1.283,9.237,9.237,0,0,0,.573-2.2,17.1,17.1,0,0,0,.161-2.858h0a20.165,20.165,0,0,0-.259-2.959,13.572,13.572,0,0,0-.648-2.467,6.149,6.149,0,0,0-1-1.714,2.214,2.214,0,0,0-1.255-.75A1.888,1.888,0,0,0,398.033,420.758Z" style="fill:#171c21"/><path d="M425.416,441.414q-3.541-9.453-7.081-18.862a.314.314,0,0,1-.04-.013q.333,9.054.6,18.159c-.162-.02-.324-.039-.488-.057-.172-6.288-.378-12.582-.6-18.844l.772.095q3.528,9.384,7.058,18.811a.42.42,0,0,0,.045.011q-.339-9.158-.74-18.24c.157.009.316.02.471.033q.4,9.43.759,18.964Z" style="fill:#171c21"/><path d="M426.479,441.8l-1.277-.1-.067-.178q-3.238-8.646-6.477-17.256c.22,6.091.4,11.481.536,16.426l.01.349-1.091-.126-.007-.263c-.16-5.817-.357-11.98-.6-18.84l-.013-.351,1.3.158.064.17q3.23,8.588,6.457,17.208c-.229-6.057-.478-11.946-.675-16.508l-.015-.331.331.019c.16.009.321.021.48.034l.263.021.012.265c.3,7.038.551,13.242.759,18.967Zm-.849-.668.225.017,0-.087-.272-.06C425.6,441.042,425.613,441.086,425.63,441.129Zm-7.515-18.991.276.115c-.011-.028-.022-.058-.033-.085Z" style="fill:#171c21"/><path d="M445.183,436.369q-2.456.141-4.976.175-.391,2.75-.8,5.5c-.151,0-.3.008-.458.01.918-6.425,1.78-12.846,2.618-19.212.25-.01.5-.028.748-.041q2.286,9.4,4.626,18.987c-.144.012-.286.024-.432.034q-.671-2.733-1.33-5.455m-4.9-.355q2.412-.045,4.766-.185-1.532-6.338-3.038-12.593h-.08q-.8,6.358-1.648,12.779" style="fill:#171c21"/><path d="M438.606,442.36l.05-.346c1.006-7.04,1.927-13.964,2.617-19.208l.034-.25.252-.011c.158-.007.316-.017.474-.026l.518-.03,4.768,19.57-1.036.083-1.333-5.459c-1.476.082-2.982.134-4.482.158q-.375,2.622-.76,5.25l-.037.251Zm3.445-17.678q-.694,5.49-1.426,11.025c1.36-.029,2.719-.081,4.047-.156Q443.352,430.085,442.051,424.682Z" style="fill:#171c21"/><path d="M463.993,434.7a11.93,11.93,0,0,1-.3,2.557,5.115,5.115,0,0,1-.823,1.867,2.524,2.524,0,0,1-1.464.971,1.967,1.967,0,0,1-1.6-.221,3.371,3.371,0,0,1-1.125-1.392,9.119,9.119,0,0,1-.715-2.29,27.711,27.711,0,0,1-.383-2.941q-.461-6.115-.9-12.11c.131-.029.262-.053.39-.081q.425,5.85.883,11.823c.073.865.17,1.729.3,2.587a10.555,10.555,0,0,0,.586,2.259,3.628,3.628,0,0,0,1,1.5,1.635,1.635,0,0,0,1.52.32,2.257,2.257,0,0,0,1.382-1,5.629,5.629,0,0,0,.7-1.9,12.206,12.206,0,0,0,.187-2.435c-.014-.892-.049-1.789-.132-2.7q-.5-5.967-.963-11.808l.359-.1q.477,5.979,1,12.106a25.987,25.987,0,0,1,.1,3" style="fill:#171c21"/><path d="M460.827,440.471a2.152,2.152,0,0,1-1.183-.343,3.663,3.663,0,0,1-1.233-1.516,9.46,9.46,0,0,1-.739-2.362,27.709,27.709,0,0,1-.387-2.974q-.461-6.115-.9-12.112l-.02-.26.983-.207.024.344q.424,5.847.883,11.821c.078.921.176,1.761.3,2.565a10.23,10.23,0,0,0,.566,2.193,3.361,3.361,0,0,0,.909,1.376,1.35,1.35,0,0,0,1.264.258,1.958,1.958,0,0,0,1.194-.872,5.349,5.349,0,0,0,.657-1.8,11.758,11.758,0,0,0,.182-2.372c-.016-1.022-.057-1.874-.132-2.683q-.5-5.971-.962-11.812l-.019-.249.947-.252.028.358q.478,5.978,1,12.1a26.424,26.424,0,0,1,.105,3.029,12.127,12.127,0,0,1-.311,2.621,5.43,5.43,0,0,1-.872,1.975,2.849,2.849,0,0,1-1.633,1.082A2.7,2.7,0,0,1,460.827,440.471Z" style="fill:#171c21"/><path d="M474.286,415.238q.855,9.091,1.882,18.594l-.307.184q-1.006-9.49-1.874-18.6-.954.558-1.947,1.077c-.017-.173-.032-.351-.046-.525a41.448,41.448,0,0,0,4.089-2.436c.017.182.033.361.054.545-.6.4-1.219.786-1.851,1.159" style="fill:#171c21"/><path d="M475.612,434.515l-.049-.467c-.759-7.162-1.343-12.942-1.832-18.136-.5.288-1.024.572-1.552.849l-.395.207-.043-.445c-.016-.175-.032-.353-.046-.53l-.015-.2.175-.092a41.249,41.249,0,0,0,4.059-2.419l.422-.286.046.507c.016.181.032.357.054.538l.021.183-.153.1c-.534.357-1.093.708-1.7,1.07.509,5.413,1.119,11.435,1.863,18.4l.02.19Z" style="fill:#171c21"/><path d="M367.266,189.5c.477-1.708-1.836-3.242-5.023-3.462s-5.811.676-6.021,2.072c-2.153,16-21.037,43.647-34.333,65.029a3.932,3.932,0,0,0,1.617,5.548,4.167,4.167,0,0,0,5.577-1.735c13.015-21.223,33.635-48.674,38.183-67.452" style="fill:#fff"/><path d="M344.737,196.178c.338-1.049-1.533-2.123-4.14-2.346s-4.736.271-4.858,1.083c-1.352,9.324-12.05,25.313-19.964,37.9-.722,1.2.176,2.83,1.835,3.692s3.4.635,4.1-.553c7.727-12.454,19.781-28.323,23.023-39.771" style="fill:#fff"/><path d="M253.921,394.16a1,1,0,1,0,.007-1.419,1,1,0,0,0-.007,1.419" style="fill:#171c21"/><path d="M254.63,394.557h-.007a1.09,1.09,0,0,1-.773-.327h0a1.1,1.1,0,0,1,.781-1.877h.007a1.1,1.1,0,0,1-.008,2.2Zm-.637-.467a.881.881,0,0,0,.631.266h.006a.9.9,0,0,0,.636-.262.883.883,0,0,0,.267-.633.9.9,0,0,0-.9-.908h-.006a.9.9,0,0,0-.633.259.906.906,0,0,0,0,1.278Z" style="fill:#171c21"/><path d="M255.51,389.677a1,1,0,1,0-.7-1.231,1,1,0,0,0,.7,1.231" style="fill:#171c21"/><path d="M255.776,389.812a1.088,1.088,0,0,1-.293-.039h0a1.1,1.1,0,1,1,1.253-1.6,1.1,1.1,0,0,1-.96,1.639Zm0-2a.9.9,0,0,0-.238,1.77h0a.9.9,0,0,0,.688-.088.9.9,0,0,0,.338-1.221.9.9,0,0,0-.551-.429A.841.841,0,0,0,255.774,387.81Z" style="fill:#171c21"/><path d="M254.142,383.061a1,1,0,1,0,1.221.713,1,1,0,0,0-1.221-.713" style="fill:#171c21"/><path d="M254.389,385.132a1.094,1.094,0,0,1-.557-.153,1.076,1.076,0,0,1-.5-.667,1.1,1.1,0,0,1,.788-1.347h0a1.1,1.1,0,1,1,.552,2.131A1.12,1.12,0,0,1,254.389,385.132Zm-.222-1.974h0a.9.9,0,0,0-.645,1.1.9.9,0,0,0,1.1.64.9.9,0,1,0-.452-1.744Z" style="fill:#171c21"/><path d="M251.568,379.966a1,1,0,1,0-.008,1.417,1,1,0,0,0,.008-1.417" style="fill:#171c21"/><path d="M250.858,381.769a1.107,1.107,0,0,1-.785-.327,1.1,1.1,0,0,1,.781-1.876h.009a1.092,1.092,0,0,1,.776.33h0a1.1,1.1,0,0,1-.781,1.873Zm0-2a.9.9,0,0,0-.639,1.535.9.9,0,1,0,1.282-1.265h0a.892.892,0,0,0-.636-.27Z" style="fill:#171c21"/><path d="M245.846,380.49a1,1,0,1,0-.7-1.231,1,1,0,0,0,.7,1.231" style="fill:#171c21"/><path d="M246.116,380.627a1.1,1.1,0,1,1,.287-2.167,1.1,1.1,0,0,1,.25,2.024A1.083,1.083,0,0,1,246.116,380.627Zm0-2a.9.9,0,0,0-.244,1.771h0a.879.879,0,0,0,.681-.082.9.9,0,0,0,.428-.548.9.9,0,0,0-.866-1.141Z" style="fill:#171c21"/><path d="M241.18,379.939a1,1,0,1,0,1.222.715,1,1,0,0,0-1.222-.715" style="fill:#171c21"/><path d="M241.429,382.011a1.1,1.1,0,0,1-.274-2.169,1.1,1.1,0,1,1,.555,2.132A1.124,1.124,0,0,1,241.429,382.011Zm0-2.005a.93.93,0,0,0-.227.029h0a.894.894,0,0,0-.643,1.1.9.9,0,1,0,.87-1.126Z" style="fill:#171c21"/><path d="M238.784,383.739a1,1,0,1,0-.01,1.417,1,1,0,0,0,.01-1.417" style="fill:#171c21"/><path d="M238.069,385.544a1.1,1.1,0,0,1-.781-.322,1.1,1.1,0,0,1,.787-1.881h.011a1.086,1.086,0,0,1,.769.328,1.1,1.1,0,0,1-.786,1.875Zm.006-2a.9.9,0,1,0,.637.269h0a.881.881,0,0,0-.628-.269Z" style="fill:#171c21"/><path d="M237.193,388.22a1,1,0,1,0-.531,1.933,1,1,0,0,0,.531-1.933" style="fill:#171c21"/><path d="M236.931,390.29a1.159,1.159,0,0,1-.3-.04,1.1,1.1,0,1,1,.585-2.127h0a1.1,1.1,0,0,1,.249,2.024A1.084,1.084,0,0,1,236.931,390.29Zm0-2.006a.9.9,0,0,0-.241,1.773.888.888,0,0,0,.682-.083.9.9,0,0,0-.2-1.658h0A.926.926,0,0,0,236.93,388.284Z" style="fill:#171c21"/><path d="M238.563,394.837a1,1,0,1,0-1.223-.716,1,1,0,0,0,1.223.716" style="fill:#171c21"/><path d="M238.311,394.97a1.1,1.1,0,0,1-.279-2.169,1.088,1.088,0,0,1,.841.118,1.11,1.11,0,0,1,.388,1.5,1.1,1.1,0,0,1-.673.514h0A1.1,1.1,0,0,1,238.311,394.97Zm0-2.005a.948.948,0,0,0-.23.029.9.9,0,1,0,.455,1.746h0a.9.9,0,0,0,.55-.42.885.885,0,0,0,.09-.68.875.875,0,0,0-.407-.549A.89.89,0,0,0,238.313,392.965Z" style="fill:#171c21"/><path d="M241.134,397.934a1,1,0,1,0,.01-1.418,1,1,0,0,0-.01,1.418" style="fill:#171c21"/><path d="M241.844,398.331h-.009a1.094,1.094,0,0,1-.773-.327h0a1.1,1.1,0,1,1,.782.327Zm0-2a.9.9,0,0,0-.642,1.535h0a.89.89,0,0,0,.632.268h.007a.9.9,0,1,0,0-1.8Z" style="fill:#171c21"/><path d="M246.856,397.409a1,1,0,1,0,.7,1.228,1,1,0,0,0-.7-1.228" style="fill:#171c21"/><path d="M246.581,399.476a1.1,1.1,0,0,1-.282-.038,1.113,1.113,0,0,1-.774-1.356,1.1,1.1,0,0,1,2.02-.256,1.084,1.084,0,0,1,.105.837A1.111,1.111,0,0,1,246.581,399.476Zm0-2a.9.9,0,0,0-.867.662.9.9,0,1,0,1.74.476.9.9,0,0,0-.086-.685.887.887,0,0,0-.542-.419h0A.887.887,0,0,0,246.585,397.472Z" style="fill:#171c21"/><path d="M251.523,397.958a1,1,0,1,0-1.222-.714,1,1,0,0,0,1.222.714" style="fill:#171c21"/><path d="M251.271,398.09a1.1,1.1,0,0,1-.95-1.658,1.1,1.1,0,1,1,1.227,1.623h0A1.1,1.1,0,0,1,251.271,398.09Zm.007-2a.927.927,0,0,0-.233.031.9.9,0,0,0-.647,1.1.906.906,0,0,0,1.1.642h0a.9.9,0,0,0,.641-1.1.891.891,0,0,0-.861-.673Z" style="fill:#171c21"/><path d="M259.4,395.309a1.176,1.176,0,1,0-.013,1.664,1.179,1.179,0,0,0,.013-1.664" style="fill:#171c21"/><path d="M258.559,397.408a1.273,1.273,0,1,1,.906-2.17h0a1.273,1.273,0,0,1-.907,2.169Zm0-2.343a1.074,1.074,0,0,0-.764,1.829,1.076,1.076,0,1,0,.764-1.829Z" style="fill:#171c21"/><path d="M260.208,390.2a1.172,1.172,0,1,0-.825-1.444,1.175,1.175,0,0,0,.825,1.444" style="fill:#171c21"/><path d="M260.516,390.345a1.285,1.285,0,0,1-.334-.045h0a1.28,1.28,0,0,1-.9-1.568,1.275,1.275,0,0,1,2.46.675A1.278,1.278,0,0,1,260.516,390.345Zm-.282-.239a1.075,1.075,0,0,0,1.217-1.569,1.058,1.058,0,0,0-.649-.5,1.077,1.077,0,0,0-1.323.747,1.081,1.081,0,0,0,.755,1.321Z" style="fill:#171c21"/><path d="M257.546,382.267a1.173,1.173,0,1,0,.838-1.433,1.169,1.169,0,0,0-.838,1.433" style="fill:#171c21"/><path d="M258.676,383.246a1.254,1.254,0,0,1-.639-.175,1.276,1.276,0,0,1,.321-2.334A1.274,1.274,0,0,1,259,383.2,1.3,1.3,0,0,1,258.676,383.246Zm0-2.35a1.033,1.033,0,0,0-.268.035,1.072,1.072,0,0,0-.766,1.31h0a1.069,1.069,0,0,0,1.308.769,1.074,1.074,0,0,0-.274-2.114Z" style="fill:#171c21"/><path d="M252.706,377.566a1.173,1.173,0,1,0,.008-1.657,1.168,1.168,0,0,0-.008,1.657" style="fill:#171c21"/><path d="M253.539,378.015h0a1.265,1.265,0,0,1-.9-.378h0a1.275,1.275,0,0,1,.907-2.17h.007a1.274,1.274,0,0,1-.009,2.548Zm0-2.348a1.073,1.073,0,0,0-.765,1.829h0a1.065,1.065,0,0,0,.758.318h0a1.074,1.074,0,0,0,.008-2.147Z" style="fill:#171c21"/><path d="M246.784,373.651a1.173,1.173,0,1,0,.82,1.44,1.179,1.179,0,0,0-.82-1.44" style="fill:#171c21"/><path d="M246.476,376.057a1.274,1.274,0,1,1,.335-2.5h0a1.274,1.274,0,0,1-.336,2.5Zm0-2.348a1.073,1.073,0,0,0-.288,2.108,1.072,1.072,0,0,0,1.32-.753,1.076,1.076,0,0,0-.75-1.316h0A1.059,1.059,0,0,0,246.476,373.709Z" style="fill:#171c21"/><path d="M238.239,376.918a1.173,1.173,0,1,0,.839-1.431,1.175,1.175,0,0,0-.839,1.431" style="fill:#171c21"/><path d="M239.375,377.9a1.275,1.275,0,0,1-1.232-.952h0a1.273,1.273,0,1,1,2.462-.645,1.279,1.279,0,0,1-.91,1.556A1.306,1.306,0,0,1,239.375,377.9Zm-1.039-1a1.075,1.075,0,1,0,.768-1.31,1.071,1.071,0,0,0-.768,1.31Z" style="fill:#171c21"/><path d="M233.309,382.587a1.174,1.174,0,1,0,.011-1.662,1.173,1.173,0,0,0-.011,1.662" style="fill:#171c21"/><path d="M234.142,383.033a1.265,1.265,0,0,1-.9-.376h0a1.274,1.274,0,0,1,.907-2.17h.008a1.274,1.274,0,0,1,.885,2.181A1.276,1.276,0,0,1,234.142,383.033Zm-.762-.516a1.075,1.075,0,0,0,1.517.008,1.073,1.073,0,1,0-1.826-.771,1.071,1.071,0,0,0,.309.763Z" style="fill:#171c21"/><path d="M232.5,387.7a1.173,1.173,0,1,0,.821,1.442,1.167,1.167,0,0,0-.821-1.442" style="fill:#171c21"/><path d="M232.186,390.1a1.275,1.275,0,0,1-1.11-.65,1.278,1.278,0,0,1,.477-1.73,1.268,1.268,0,0,1,.971-.122h0a1.274,1.274,0,0,1-.338,2.5Zm0-2.349a1.074,1.074,0,0,0-.281,2.109,1.073,1.073,0,1,0,.57-2.069A1.106,1.106,0,0,0,232.182,387.752Z" style="fill:#171c21"/><path d="M235.159,395.633a1.175,1.175,0,1,0-.843,1.43,1.171,1.171,0,0,0,.843-1.43" style="fill:#171c21"/><path d="M234.027,397.2a1.274,1.274,0,0,1-.326-2.507,1.25,1.25,0,0,1,.961.129,1.272,1.272,0,0,1,.593.785h0a1.28,1.28,0,0,1-.914,1.553A1.213,1.213,0,0,1,234.027,397.2Zm0-2.349a1.039,1.039,0,0,0-.275.036,1.069,1.069,0,1,0,.809.108A1.057,1.057,0,0,0,234.027,394.851Z" style="fill:#171c21"/><path d="M240,400.335a1.173,1.173,0,1,0-.009,1.659,1.172,1.172,0,0,0,.009-1.659" style="fill:#171c21"/><path d="M239.165,402.43a1.273,1.273,0,1,1,.9-2.165,1.27,1.27,0,0,1-.9,2.165Zm0-2.345a1.058,1.058,0,0,0-.751.309,1.076,1.076,0,1,0,1.518.011h0a1.071,1.071,0,0,0-.757-.32Z" style="fill:#171c21"/><path d="M245.918,404.244a1.172,1.172,0,1,0-.82-1.44,1.173,1.173,0,0,0,.82,1.44" style="fill:#171c21"/><path d="M246.226,404.385a1.277,1.277,0,0,1-.334-.044h0a1.272,1.272,0,1,1,.675-2.453,1.267,1.267,0,0,1,.891,1.563A1.276,1.276,0,0,1,246.226,404.385Zm-.282-.238a1.075,1.075,0,0,0,1.219-1.567,1.061,1.061,0,0,0-.648-.5,1.072,1.072,0,1,0-.571,2.066Z" style="fill:#171c21"/><path d="M254.466,400.982a1.173,1.173,0,1,0-.84,1.432,1.175,1.175,0,0,0,.84-1.432" style="fill:#171c21"/><path d="M253.329,402.553a1.277,1.277,0,0,1-1.231-.954,1.28,1.28,0,0,1,.91-1.554,1.274,1.274,0,1,1,.321,2.508Zm0-2.35a1.075,1.075,0,0,0-1.039,1.345,1.074,1.074,0,0,0,1.309.769,1.07,1.07,0,0,0,.768-1.309h0a1.078,1.078,0,0,0-1.038-.805Z" style="fill:#171c21"/><path d="M260.58,401.51a1.513,1.513,0,1,0,.012-2.141,1.511,1.511,0,0,0-.012,2.141" style="fill:#171c21"/><path d="M261.654,402.055a1.609,1.609,0,0,1-1.144-.475h0a1.616,1.616,0,0,1,.012-2.283,1.6,1.6,0,0,1,1.132-.466h.011a1.612,1.612,0,0,1-.011,3.224Zm-1-.616a1.416,1.416,0,0,0,2,.008,1.407,1.407,0,0,0,.012-1.994,1.406,1.406,0,0,0-1-.422h-.01a1.4,1.4,0,0,0-.991.408,1.416,1.416,0,0,0-.012,2Z" style="fill:#171c21"/><path d="M266.813,391.651a1.513,1.513,0,1,0-1.862,1.062,1.514,1.514,0,0,0,1.862-1.062" style="fill:#171c21"/><path d="M265.349,392.866a1.637,1.637,0,0,1-.424-.056,1.615,1.615,0,1,1,1.984-1.133h0A1.622,1.622,0,0,1,265.349,392.866Zm0-3.028a1.414,1.414,0,0,0-1.23,2.112,1.413,1.413,0,1,0,1.606-2.06A1.358,1.358,0,0,0,265.354,389.838Z" style="fill:#171c21"/><path d="M265.423,381.058a1.512,1.512,0,1,0-1.082,1.846,1.516,1.516,0,0,0,1.082-1.846" style="fill:#171c21"/><path d="M263.953,383.055a1.614,1.614,0,0,1-1.388-2.422,1.613,1.613,0,0,1,2.955.4h0a1.61,1.61,0,0,1-.17,1.225,1.593,1.593,0,0,1-.984.744A1.621,1.621,0,0,1,263.953,383.055Zm0-3.025a1.4,1.4,0,0,0-.355.046,1.411,1.411,0,0,0-1.008,1.724,1.411,1.411,0,0,0,2.583.355,1.41,1.41,0,0,0,.15-1.072h0A1.423,1.423,0,0,0,263.957,380.03Z" style="fill:#171c21"/><path d="M256.771,374.706a1.512,1.512,0,1,0,.015-2.141,1.514,1.514,0,0,0-.015,2.141" style="fill:#171c21"/><path d="M257.849,375.255a1.613,1.613,0,0,1-1.149-.478h0a1.62,1.62,0,1,1,1.149.478Zm-1.007-.619a1.412,1.412,0,1,0,.014-2,1.421,1.421,0,0,0-.014,2Z" style="fill:#171c21"/><path d="M248.254,371.406a1.512,1.512,0,1,0-1.058-1.859,1.517,1.517,0,0,0,1.058,1.859" style="fill:#171c21"/><path d="M248.649,371.559a1.6,1.6,0,0,1-.42-.056h0a1.611,1.611,0,1,1,.852-3.108,1.612,1.612,0,0,1,1.13,1.979A1.623,1.623,0,0,1,248.649,371.559Zm-.369-.249a1.425,1.425,0,0,0,1.738-.991,1.413,1.413,0,0,0-2.726-.746,1.422,1.422,0,0,0,.988,1.737Z" style="fill:#171c21"/><path d="M240.309,370.958a1.513,1.513,0,1,0-1.08,1.85,1.513,1.513,0,0,0,1.08-1.85" style="fill:#171c21"/><path d="M238.854,372.955a1.623,1.623,0,0,1-1.568-1.206,1.61,1.61,0,0,1,1.151-1.967,1.614,1.614,0,0,1,1.968,1.15h0a1.625,1.625,0,0,1-1.151,1.973A1.66,1.66,0,0,1,238.854,372.955Zm-.008-3.026a1.411,1.411,0,0,0-1.367,1.769,1.412,1.412,0,1,0,2.733-.715h0A1.416,1.416,0,0,0,238.846,369.929Z" style="fill:#171c21"/><path d="M232.123,376.391a1.514,1.514,0,1,0-.014,2.137,1.516,1.516,0,0,0,.014-2.137" style="fill:#171c21"/><path d="M231.045,379.064a1.612,1.612,0,1,1,1.149-2.744h0a1.615,1.615,0,0,1-.014,2.28A1.615,1.615,0,0,1,231.045,379.064Zm0-3.022a1.412,1.412,0,1,0,.994,2.415,1.412,1.412,0,0,0,.012-2h0A1.411,1.411,0,0,0,231.045,376.042Z" style="fill:#171c21"/><path d="M227.751,385.188a1.512,1.512,0,1,0,1.06,1.857,1.512,1.512,0,0,0-1.06-1.857" style="fill:#171c21"/><path d="M227.349,388.258a1.614,1.614,0,0,1-1.556-2.038,1.611,1.611,0,0,1,1.984-1.128h0a1.611,1.611,0,0,1-.428,3.166Zm0-3.025a1.419,1.419,0,1,0,.379.052h0A1.408,1.408,0,0,0,227.345,385.233Z" style="fill:#171c21"/><path d="M230.209,396.072a1.513,1.513,0,1,0-1.082,1.847,1.51,1.51,0,0,0,1.082-1.847" style="fill:#171c21"/><path d="M228.742,398.069a1.613,1.613,0,1,1,1.563-2.022h0a1.615,1.615,0,0,1-1.153,1.969A1.591,1.591,0,0,1,228.742,398.069Zm.01-3.026a1.433,1.433,0,0,0-.366.049,1.411,1.411,0,0,0,.716,2.73,1.415,1.415,0,0,0,1.01-1.724h0a1.409,1.409,0,0,0-1.36-1.055Z" style="fill:#171c21"/><path d="M235.933,403.193a1.513,1.513,0,1,0-.017,2.137,1.513,1.513,0,0,0,.017-2.137" style="fill:#171c21"/><path d="M234.855,405.866h-.01a1.6,1.6,0,0,1-1.137-.477,1.612,1.612,0,0,1,1.15-2.746h.014a1.61,1.61,0,0,1,1.595,1.615,1.613,1.613,0,0,1-1.612,1.608Zm0-3.023a1.406,1.406,0,0,0-1,.408,1.422,1.422,0,0,0-.011,2,1.4,1.4,0,0,0,1,.419h.009a1.413,1.413,0,0,0,1.007-2.4h0a1.387,1.387,0,0,0-.99-.421Z" style="fill:#171c21"/><path d="M244.448,406.492a1.513,1.513,0,1,0,1.057,1.86,1.506,1.506,0,0,0-1.057-1.86" style="fill:#171c21"/><path d="M244.054,409.564a1.64,1.64,0,0,1-.432-.058,1.617,1.617,0,0,1-1.125-1.984,1.587,1.587,0,0,1,.753-.973,1.606,1.606,0,0,1,1.224-.153h0a1.617,1.617,0,0,1,1.126,1.983,1.608,1.608,0,0,1-1.547,1.185Zm-.01-3.027a1.41,1.41,0,0,0-1.355,1.038,1.416,1.416,0,0,0,.987,1.737,1.388,1.388,0,0,0,1.069-.131,1.4,1.4,0,0,0,.663-.855,1.417,1.417,0,0,0-.987-1.737A1.393,1.393,0,0,0,244.044,406.537Z" style="fill:#171c21"/><path d="M254.241,408.019a1.513,1.513,0,1,0-1.846-1.078,1.511,1.511,0,0,0,1.846,1.078" style="fill:#171c21"/><path d="M253.855,408.169a1.616,1.616,0,1,1,.412-.054h0A1.607,1.607,0,0,1,253.855,408.169Zm0-3.024a1.459,1.459,0,0,0-.351.043,1.42,1.42,0,0,0-1.009,1.728,1.414,1.414,0,0,0,1.724,1.006h0a1.412,1.412,0,0,0-.364-2.777Z" style="fill:#171c21"/><path d="M264.751,405.068a1.763,1.763,0,1,0-.014,2.492,1.767,1.767,0,0,0,.014-2.492" style="fill:#171c21"/><path d="M263.5,408.166a1.867,1.867,0,0,1-1.329-.553,1.86,1.86,0,0,1,.017-2.634,1.873,1.873,0,0,1,2.634.019h0a1.858,1.858,0,0,1-1.322,3.168Zm0-3.519a1.661,1.661,0,1,0,1.185.492h0A1.667,1.667,0,0,0,263.5,404.647Z" style="fill:#171c21"/><path d="M269.41,397.11a1.764,1.764,0,1,0-1.234-2.167,1.761,1.761,0,0,0,1.234,2.167" style="fill:#171c21"/><path d="M269.879,397.273a1.874,1.874,0,0,1-.5-.066h0a1.88,1.88,0,0,1-1.3-2.29,1.863,1.863,0,1,1,1.8,2.356Zm-.443-.259a1.664,1.664,0,1,0-1.164-2.045,1.68,1.68,0,0,0,1.164,2.045Z" style="fill:#171c21"/><path d="M268.25,383.224a1.762,1.762,0,1,0,1.259-2.15,1.766,1.766,0,0,0-1.259,2.15" style="fill:#171c21"/><path d="M269.958,384.644a1.87,1.87,0,0,1-1.805-1.395h0a1.86,1.86,0,0,1,1.331-2.271,1.863,1.863,0,0,1,.942,3.605A1.845,1.845,0,0,1,269.958,384.644Zm-.008-3.526a1.707,1.707,0,0,0-.416.053,1.661,1.661,0,0,0-1.187,2.027h0a1.662,1.662,0,1,0,1.6-2.08Z" style="fill:#171c21"/><path d="M262.454,373.045a1.764,1.764,0,1,0,.015-2.5,1.767,1.767,0,0,0-.015,2.5" style="fill:#171c21"/><path d="M263.708,373.665a1.865,1.865,0,0,1-1.325-.549h0a1.871,1.871,0,1,1,1.326.55Zm-1.184-.691a1.663,1.663,0,1,0,.015-2.353,1.671,1.671,0,0,0-.015,2.353Z" style="fill:#171c21"/><path d="M252.346,367.124a1.762,1.762,0,1,0-1.234-2.168,1.771,1.771,0,0,0,1.234,2.168" style="fill:#171c21"/><path d="M252.806,367.285a1.864,1.864,0,0,1-.487-.065h0a1.862,1.862,0,1,1,2.291-1.3A1.877,1.877,0,0,1,252.806,367.285Zm-.434-.258a1.662,1.662,0,1,0,.878-3.206,1.662,1.662,0,1,0-.878,3.206Z" style="fill:#171c21"/><path d="M238.476,365.791a1.763,1.763,0,1,0,1.259-2.15,1.761,1.761,0,0,0-1.259,2.15" style="fill:#171c21"/><path d="M240.179,367.206a1.865,1.865,0,0,1-1.8-1.39h0a1.858,1.858,0,1,1,1.8,1.39Zm-1.607-1.44a1.664,1.664,0,1,0,.176-1.263,1.662,1.662,0,0,0-.176,1.263Z" style="fill:#171c21"/><path d="M230.459,370.354a1.762,1.762,0,1,0-.014,2.492,1.762,1.762,0,0,0,.014-2.492" style="fill:#171c21"/><path d="M229.206,373.454a1.862,1.862,0,1,1,0-3.723h.013a1.862,1.862,0,0,1-.014,3.723Zm0-3.523a1.666,1.666,0,1,0,1.181.494h0a1.645,1.645,0,0,0-1.17-.494Z" style="fill:#171c21"/><path d="M223.291,380.789a1.763,1.763,0,1,0,1.235,2.17,1.755,1.755,0,0,0-1.235-2.17" style="fill:#171c21"/><path d="M222.824,384.353a1.862,1.862,0,0,1-1.793-2.359,1.841,1.841,0,0,1,.867-1.123,1.87,1.87,0,0,1,1.419-.18h0a1.864,1.864,0,0,1-.493,3.662Zm0-3.529a1.657,1.657,0,0,0-1.6,1.223,1.663,1.663,0,1,0,2.041-1.162h0A1.7,1.7,0,0,0,222.82,380.824Z" style="fill:#171c21"/><path d="M224.453,394.673a1.762,1.762,0,1,0-1.26,2.15,1.761,1.761,0,0,0,1.26-2.15" style="fill:#171c21"/><path d="M222.739,396.982a1.864,1.864,0,1,1,1.81-2.335h0a1.871,1.871,0,0,1-1.81,2.335Zm.012-3.527a1.7,1.7,0,0,0-.423.055,1.662,1.662,0,1,0,2.028,1.188h0a1.66,1.66,0,0,0-1.6-1.243Z" style="fill:#171c21"/><path d="M230.248,404.857a1.761,1.761,0,1,0-.013,2.491,1.759,1.759,0,0,0,.013-2.491" style="fill:#171c21"/><path d="M228.993,407.957h-.011a1.836,1.836,0,0,1-1.311-.554,1.861,1.861,0,1,1,1.322.554Zm0-3.524a1.66,1.66,0,0,0-1.18,2.83,1.642,1.642,0,0,0,1.169.494h.01a1.664,1.664,0,0,0,1.666-1.654,1.639,1.639,0,0,0-.481-1.176h0A1.655,1.655,0,0,0,228.994,404.433Z" style="fill:#171c21"/><path d="M240.359,410.777a1.763,1.763,0,1,0,1.236,2.166,1.765,1.765,0,0,0-1.236-2.166" style="fill:#171c21"/><path d="M239.885,414.338a1.861,1.861,0,0,1-.91-3.484,1.843,1.843,0,0,1,1.41-.173h0a1.861,1.861,0,0,1-.5,3.657Zm0-3.526a1.663,1.663,0,0,0-.436,3.267,1.662,1.662,0,1,0,.882-3.2h0A1.661,1.661,0,0,0,239.886,410.812Z" style="fill:#171c21"/><path d="M254.226,412.111a1.762,1.762,0,1,0-1.258,2.146,1.757,1.757,0,0,0,1.258-2.146" style="fill:#171c21"/><path d="M252.514,414.416a1.864,1.864,0,1,1,1.809-2.331h0a1.86,1.86,0,0,1-1.33,2.269A1.875,1.875,0,0,1,252.514,414.416Zm.012-3.525a1.666,1.666,0,0,0-1.442.824,1.663,1.663,0,1,0,3.045.421h0a1.656,1.656,0,0,0-1.6-1.244Z" style="fill:#171c21"/><path d="M250.359,392.513c-.567.148-1.1.305-1.645.424a10.068,10.068,0,0,1-1.254.179,1.756,1.756,0,0,1-1.516-.686,1.127,1.127,0,0,1-.195-1.209,3.394,3.394,0,0,1-2.246-.067c-.221.24-.445.488-.671.734a3.256,3.256,0,0,0-.293.334.333.333,0,0,1-.446.123c-.49-.166-1.572-.489-1.649-.513,1.975-2.165,3.933-4.319,5.9-6.47.534.309,1.052.618,1.593.932-.318.35-3.118,3.438-3.151,3.477a.537.537,0,0,0,.313.92,4.071,4.071,0,0,0,.864.029c.042,0,.094-.057.128-.1q1.569-1.712,3.134-3.439a1.137,1.137,0,0,1,.086-.082c.525.31,1.047.612,1.584.928-.325.355-2.379,2.629-3.093,3.421a1.1,1.1,0,0,0-.144.212.428.428,0,0,0,.083.573.8.8,0,0,0,.565.252,5.288,5.288,0,0,0,.679-.036,4.4,4.4,0,0,0,.727-.13.674.674,0,0,1,.652.194" style="fill:#171c21;fill-rule:evenodd"/><path d="M247.312,393.223a1.889,1.889,0,0,1-1.443-.727,1.19,1.19,0,0,1-.264-1.15c-.057.008-.113.018-.169.028a3,3,0,0,1-1.91-.1l-.3.332-.316.346c-.028.031-.057.062-.086.092a2.045,2.045,0,0,0-.2.231.427.427,0,0,1-.56.161c-.284-.1-.813-.26-1.575-.49l-.223-.067.107-.117q1.509-1.656,3.009-3.3,1.445-1.586,2.887-3.167l.054-.06.069.04c.295.17.584.34.874.511.237.14.476.28.719.421l.107.063-.083.091c-.328.361-3.1,3.417-3.149,3.475a.526.526,0,0,0-.108.487.477.477,0,0,0,.368.271,2.519,2.519,0,0,0,.595.03c.082,0,.163,0,.245,0,0,0,.012-.014.051-.062.864-.943,1.72-1.885,2.578-2.829l.56-.616c.017-.019.038-.038.06-.058l.086-.081.065.039.865.508.719.42.106.063-.083.091c-.332.362-2.389,2.639-3.093,3.421a.961.961,0,0,0-.13.192.33.33,0,0,0,.066.454.685.685,0,0,0,.494.223l.086,0a4.816,4.816,0,0,0,.579-.032,4.575,4.575,0,0,0,.714-.128.773.773,0,0,1,.742.214l.154.124-.192.049q-.264.069-.522.14c-.386.1-.751.2-1.127.284a9.976,9.976,0,0,1-1.267.182C247.416,393.221,247.364,393.223,247.312,393.223ZM245.9,391.1l-.058.158a1.021,1.021,0,0,0,.177,1.109,1.653,1.653,0,0,0,1.431.652,10.109,10.109,0,0,0,1.242-.178c.371-.081.733-.179,1.117-.282l.317-.085a.459.459,0,0,0-.394-.056,4.764,4.764,0,0,1-.742.133,4.822,4.822,0,0,1-.6.034H248.3a.889.889,0,0,1-.637-.28.527.527,0,0,1-.1-.695,1.092,1.092,0,0,1,.156-.227c.658-.733,2.506-2.777,3.01-3.331l-.612-.359-.8-.469a.158.158,0,0,0-.023.022l-.562.619q-1.289,1.416-2.574,2.824a.281.281,0,0,1-.2.132h-.024c-.069,0-.145,0-.22,0a2.592,2.592,0,0,1-.646-.035.67.67,0,0,1-.511-.4.723.723,0,0,1,.139-.68c.037-.044,2.519-2.782,3.074-3.4l-.612-.359c-.267-.157-.533-.313-.8-.47l-2.832,3.108-2.9,3.185c.72.217,1.225.374,1.5.468.166.058.244.038.333-.086a2.021,2.021,0,0,1,.217-.255c.028-.029.056-.058.083-.089l.316-.345c.119-.131.238-.261.356-.388l.052-.058.068.037a2.735,2.735,0,0,0,1.852.111l.332-.054Z" style="fill:#171c21"/></svg>