<?xml version="1.0" encoding="UTF-8" standalone="no"?>
<svg
   width="64"
   height="64"
   version="1.1"
   id="svg8"
   sodipodi:docname="wiremock_cloud_favicon.svg"
   inkscape:version="1.2.2 (732a01da63, 2022-12-09)"
   xmlns:inkscape="http://www.inkscape.org/namespaces/inkscape"
   xmlns:sodipodi="http://sodipodi.sourceforge.net/DTD/sodipodi-0.dtd"
   xmlns="http://www.w3.org/2000/svg"
   xmlns:svg="http://www.w3.org/2000/svg">
  <defs
     id="defs12" />
  <sodipodi:namedview
     id="namedview10"
     pagecolor="#ffffff"
     bordercolor="#000000"
     borderopacity="0.25"
     inkscape:showpageshadow="2"
     inkscape:pageopacity="0.0"
     inkscape:pagecheckerboard="0"
     inkscape:deskcolor="#d1d1d1"
     showgrid="false"
     inkscape:zoom="11.40799"
     inkscape:cx="41.199195"
     inkscape:cy="22.96636"
     inkscape:window-width="3440"
     inkscape:window-height="1369"
     inkscape:window-x="-8"
     inkscape:window-y="-8"
     inkscape:window-maximized="1"
     inkscape:current-layer="svg8" />
  <!--http://www.w3.org/TR/SVG/paths.html#PathDataEllipticalArcCommands-->
  <path
     d="M 15.188661,34.696938 H 7.7371732 L 0.12543024,11.060461 H 8.1778506 Z"
     fill="#0fb2ef"
     id="path348"
     style="stroke-width:0.248509" />
  <path
     d="M 15.188661,34.696938 H 7.8974013 L 14.868167,11.060461 h 8.092503 z"
     fill="#0fb2ef"
     id="path350"
     style="stroke-width:0.248509" />
  <path
     d="M 26.266025,34.696938 H 22.51998 L 14.868192,11.060461 h 8.092478 l 6.730297,23.636477 z"
     fill="#0fb2ef"
     id="path352"
     style="stroke-width:0.248509" />
  <path
     d="m 29.690967,34.696938 h -7.130918 l 6.850596,-23.636477 h 8.052421 z"
     fill="#0fb2ef"
     id="path354"
     style="stroke-width:0.248509" />
  <path
     d="m 37.602982,11.060461 h 3.746006 l 7.651825,23.636477 H 40.908387 L 34.178038,11.060461 Z"
     fill="#f59122"
     id="path356"
     style="stroke-width:0.248509" />
  <path
     d="m 48.680243,11.060461 h 7.451515 l 7.611819,23.636477 h -8.052422 z"
     fill="#f59122"
     id="path358"
     style="stroke-width:0.248509" />
  <path
     d="m 48.680243,11.060461 h 7.291236 l -6.970666,23.636477 h -8.092426 z"
     fill="#f59121"
     id="path360"
     style="stroke-width:0.248509" />
  <path
     d="m 34.178038,11.060461 h 7.130943 l -6.850633,23.636477 h -8.052409 z"
     fill="#f59121"
     id="path362"
     style="stroke-width:0.248509" />
  <rect
     width="63.498085"
     height="18.200357"
     fill="#0fb2ef"
     id="rect153"
     x="0.33374342"
     y="37.5061"
     style="stroke-width:2.22236" />
  <path
     d="m 13.417265,53.669743 c 2.969757,0 4.610938,-1.582568 5.548756,-3.20421 l -2.38362,-1.152735 c -0.547062,1.074584 -1.719332,1.895173 -3.165136,1.895173 -2.266392,0 -3.9857256,-1.817023 -3.9857256,-4.278796 0,-2.461771 1.7193336,-4.278793 3.9857256,-4.278793 1.445804,0 2.618074,0.840129 3.165136,1.895173 l 2.38362,-1.17227 C 18.04774,41.751641 16.387022,40.18861 13.417265,40.18861 c -3.8098833,0 -6.8382549,2.735303 -6.8382549,6.740565 0,4.005264 3.0283716,6.740568 6.8382549,6.740568 z m 7.141337,-0.234454 h 2.481309 V 40.403527 h -2.481309 z m 9.318345,0.234454 c 3.126059,0 5.001694,-2.266393 5.001694,-4.96262 0,-2.676687 -1.875635,-4.943083 -5.001694,-4.943083 -3.106524,0 -4.982158,2.266396 -4.982158,4.943083 0,2.696227 1.875634,4.96262 4.982158,4.96262 z m 0,-2.207781 c -1.543492,0 -2.403161,-1.26996 -2.403161,-2.754839 0,-1.465339 0.859669,-2.735301 2.403161,-2.735301 1.543491,0 2.422695,1.269962 2.422695,2.735301 0,1.484879 -0.879204,2.754839 -2.422695,2.754839 z m 13.211752,1.973327 h 2.48131 v -9.436792 h -2.48131 v 6.388885 c -0.429833,0.547057 -1.19181,1.07458 -2.149167,1.07458 -1.055045,0 -1.738869,-0.429831 -1.738869,-1.73887 v -5.724595 h -2.481311 v 6.70149 c 0,1.836558 0.976894,2.969756 3.047909,2.969756 1.543491,0 2.676689,-0.703364 3.321438,-1.426264 z m 11.430876,0 h 2.500848 V 40.403527 h -2.500848 v 4.806317 c -0.742438,-0.957356 -1.797483,-1.445804 -2.911143,-1.445804 -2.403158,0 -4.180371,1.875638 -4.180371,4.962621 0,3.145599 1.796751,4.943082 4.180371,4.943082 1.133197,0 2.168705,-0.507986 2.911143,-1.426264 z m 0,-3.047907 c -0.429833,0.62521 -1.309037,1.07458 -2.149165,1.07458 -1.406727,0 -2.383622,-1.113657 -2.383622,-2.735301 0,-1.641179 0.976895,-2.754839 2.383622,-2.754839 0.840128,0 1.719332,0.44937 2.149165,1.074583 z"
     fill="#ffffff"
     id="path155"
     style="stroke-width:2.44224" />
</svg>
