<svg width="12" height="12" viewBox="0 0 12 12" fill="none" xmlns="http://www.w3.org/2000/svg">
<path d="M6 0.500001C7.45869 0.500001 8.85764 1.07946 9.88909 2.11091C10.9205 3.14236 11.5 4.54131 11.5 6C11.5 7.45869 10.9205 8.85764 9.88909 9.88909C8.85764 10.9205 7.45869 11.5 6 11.5C4.54131 11.5 3.14236 10.9205 2.11091 9.88909C1.07946 8.85764 0.5 7.45869 0.5 6C0.5 4.54131 1.07946 3.14236 2.11091 2.11091C3.14236 1.07946 4.54131 0.500001 6 0.500001ZM3.59375 5.65625C3.50258 5.65625 3.41515 5.69247 3.35068 5.75693C3.28622 5.8214 3.25 5.90883 3.25 6C3.25 6.09117 3.28622 6.1786 3.35068 6.24307C3.41515 6.30753 3.50258 6.34375 3.59375 6.34375L7.57644 6.34375L6.10038 7.81912C6.03583 7.88367 5.99957 7.97122 5.99957 8.0625C5.99957 8.15378 6.03583 8.24133 6.10038 8.30588C6.16492 8.37042 6.25247 8.40668 6.34375 8.40668C6.43503 8.40668 6.52258 8.37042 6.58713 8.30588L8.64963 6.24337C8.68164 6.21144 8.70704 6.17351 8.72436 6.13175C8.74169 6.08999 8.75061 6.04522 8.75061 6C8.75061 5.95478 8.74169 5.91001 8.72436 5.86825C8.70704 5.82649 8.68164 5.78856 8.64963 5.75663L6.58713 3.69413C6.52258 3.62958 6.43503 3.59332 6.34375 3.59332C6.25247 3.59332 6.16492 3.62958 6.10038 3.69413C6.03583 3.75867 5.99957 3.84622 5.99957 3.9375C5.99957 4.02878 6.03583 4.11633 6.10038 4.18088L7.57644 5.65625L3.59375 5.65625Z" fill="#0FB2EF" fill-opacity="0.5"/>
</svg>
