<svg width="30" height="27" viewBox="0 0 30 27" fill="none" xmlns="http://www.w3.org/2000/svg">
<path d="M16 6.66695L14.5126 3.69217C14.0845 2.83602 13.8705 2.40793 13.5512 2.09517C13.2688 1.81859 12.9284 1.60825 12.5548 1.47936C12.1322 1.33362 11.6536 1.33362 10.6964 1.33362H5.59999C4.10652 1.33362 3.35978 1.33362 2.78935 1.62427C2.28759 1.87993 1.87964 2.28788 1.62398 2.78964C1.33333 3.36007 1.33333 4.10681 1.33333 5.60029V6.66695M1.33333 6.66695H21.6C23.8402 6.66695 24.9603 6.66695 25.816 7.10293C26.5686 7.48642 27.1805 8.09834 27.564 8.85099C28 9.70664 28 10.8267 28 13.067V18.9336C28 21.1738 28 22.2939 27.564 23.1496C27.1805 23.9022 26.5686 24.5142 25.816 24.8976C24.9603 25.3336 23.8402 25.3336 21.6 25.3336H7.73333C5.49312 25.3336 4.37301 25.3336 3.51737 24.8976C2.76472 24.5142 2.1528 23.9022 1.7693 23.1496C1.33333 22.2939 1.33333 21.1738 1.33333 18.9336V6.66695ZM17.3333 19.3336L20.6667 16.0003L17.3333 12.667M12 12.667L8.66666 16.0003L12 19.3336" stroke="#2D69F6" stroke-width="2.66667" stroke-linecap="round" stroke-linejoin="round"/>
</svg>
