<svg width="42" height="42" viewBox="0 0 42 42" fill="none" xmlns="http://www.w3.org/2000/svg">
<path d="M26.4278 31.3333C28.1104 31.3333 29.4758 29.9693 29.4758 28.2853V22.1907L30.9998 20.6667L29.4758 19.1427V13.048C29.4758 11.364 28.1118 10 26.4278 10M6.90537 10C5.22137 10 3.85737 11.364 3.85737 13.048V19.1427L2.33337 20.6667L3.85737 22.1907V28.2853C3.85737 29.9693 5.22137 31.3333 6.90537 31.3333" stroke="#2D69F6" stroke-width="2.66667" stroke-linecap="round" stroke-linejoin="round"/>
<path d="M9.11438 20.8941C9.43012 21.4209 10.1281 21.8933 11.4575 20.8941C12.7869 19.8948 14 19.0772 15.0303 19.0045C15.8546 18.9464 16.5702 19.4648 16.825 19.7313C17.0798 19.4648 17.8121 18.9464 18.6364 19.0045C19.6667 19.0772 20.8798 19.8948 22.2092 20.8941C23.5386 21.8933 24.2366 21.4209 24.5523 20.8941" stroke="#FF9507" stroke-width="2.5" stroke-linecap="round"/>
</svg>
