<svg width="42" height="42" viewBox="0 0 42 42" fill="none" xmlns="http://www.w3.org/2000/svg">
<path d="M2 14.8923C2 11.0858 8.26801 8 16 8C23.732 8 30 11.0858 30 14.8923V32.1231C30 33.4237 28.6991 34.6121 26.5516 35.5206C25.9256 35.7854 25.2604 35.3021 25.2604 34.6223V29.3662C22.7924 28.5619 19.5506 28.0738 16 28.0738C12.4494 28.0738 9.20758 28.5619 6.73961 29.3662V34.6223C6.73961 35.3021 6.07439 35.7854 5.44837 35.5206C3.30086 34.6121 2 33.4237 2 32.1231V14.8923Z" fill="white"/>
<path d="M30 14.8923C30 11.0858 23.732 8 16 8C8.26801 8 2 11.0858 2 14.8923M30 14.8923V32.1231C30 33.4237 28.6991 34.6121 26.5516 35.5206C25.9256 35.7854 25.2604 35.3021 25.2604 34.6223V29.3662M30 14.8923C30 16.8063 28.4152 18.5381 25.8564 19.787C25.4985 19.9617 25.2604 20.3191 25.2604 20.7173V28.0308V29.3662M2 14.8923V32.1231C2 33.4237 3.30086 34.6121 5.44837 35.5206C6.07439 35.7854 6.73961 35.3021 6.73961 34.6223V29.3662M2 14.8923C2 16.8063 3.58479 18.5381 6.14361 19.787C6.50147 19.9617 6.73961 20.3191 6.73961 20.7173V29.3662M25.2604 29.3662C22.7924 28.5619 19.5506 28.0738 16 28.0738C12.4494 28.0738 9.20758 28.5619 6.73961 29.3662" stroke="#2D69F6" stroke-width="2.5"/>
<path d="M16.3334 13.6V19.5733M16.3334 23.3066H16.3467" stroke="#FF9507" stroke-width="2.5" stroke-linecap="round" stroke-linejoin="round"/>
</svg>
