<svg width="42" height="42" viewBox="0 0 42 42" fill="none" xmlns="http://www.w3.org/2000/svg">
<g clip-path="url(#clip0_183_1107)">
<path fill-rule="evenodd" clip-rule="evenodd" d="M20.9374 0C9.35957 0 0 9.42857 0 21.093C0 30.417 5.997 38.3096 14.3164 41.103C15.3566 41.313 15.7376 40.6491 15.7376 40.0907C15.7376 39.6017 15.7033 37.9256 15.7033 36.1791C9.879 37.4366 8.66614 33.6647 8.66614 33.6647C7.73014 31.2201 6.34329 30.5919 6.34329 30.5919C4.437 29.2997 6.48214 29.2997 6.48214 29.2997C8.59671 29.4394 9.70629 31.4649 9.70629 31.4649C11.5779 34.6774 14.5937 33.7697 15.807 33.2109C15.9801 31.8489 16.5351 30.906 17.1244 30.3823C12.4791 29.8933 7.59171 28.0774 7.59171 19.9753C7.59171 17.6704 8.42314 15.7847 9.74057 14.3181C9.53271 13.7944 8.80457 11.6289 9.94886 8.73043C9.94886 8.73043 11.7167 8.17157 15.7029 10.8956C17.4095 10.4339 19.1695 10.199 20.9374 10.197C22.7053 10.197 24.5074 10.4417 26.1716 10.8956C30.1581 8.17157 31.926 8.73043 31.926 8.73043C33.0703 11.6289 32.3417 13.7944 32.1339 14.3181C33.486 15.7847 34.2831 17.6704 34.2831 19.9753C34.2831 28.0774 29.3957 29.8581 24.7157 30.3823C25.4786 31.0457 26.1369 32.3027 26.1369 34.2934C26.1369 37.122 26.1026 39.3921 26.1026 40.0903C26.1026 40.6491 26.484 41.313 27.5237 41.1034C35.8431 38.3091 41.8401 30.417 41.8401 21.093C41.8744 9.42857 32.4806 0 20.9374 0Z" fill="#24292F"/>
</g>
<defs>
<clipPath id="clip0_183_1107">
<rect width="42" height="41.1429" fill="white"/>
</clipPath>
</defs>
</svg>
