<svg width="42" height="42" viewBox="0 0 42 42" fill="none" xmlns="http://www.w3.org/2000/svg">
<path d="M30.75 17.75V30C30.75 31.5188 29.5188 32.75 28 32.75H6C4.48122 32.75 3.25 31.5188 3.25 30V17.75H30.75ZM6 9.25H28C29.5188 9.25 30.75 10.4812 30.75 12V15.25H3.25V12C3.25 10.4812 4.48122 9.25 6 9.25Z" stroke="#2D69F6" stroke-width="2.5"/>
<mask id="path-2-outside-1_183_989" maskUnits="userSpaceOnUse" x="12" y="19" width="9" height="11" fill="black">
<rect fill="white" x="12" y="19" width="9" height="11"/>
<path d="M13.21 29.19L15.71 20.16H17.16L14.66 29.19H13.21ZM16.1741 29.19L18.6741 20.16H20.1241L17.6241 29.19H16.1741Z"/>
</mask>
<path d="M13.21 29.19L15.71 20.16H17.16L14.66 29.19H13.21ZM16.1741 29.19L18.6741 20.16H20.1241L17.6241 29.19H16.1741Z" fill="#FF9507"/>
<path d="M13.21 29.19L12.8245 29.0833L12.6842 29.59H13.21V29.19ZM15.71 20.16V19.76H15.4057L15.3245 20.0533L15.71 20.16ZM17.16 20.16L17.5455 20.2667L17.6858 19.76H17.16V20.16ZM14.66 29.19V29.59H14.9643L15.0455 29.2967L14.66 29.19ZM13.21 29.19L13.5955 29.2967L16.0955 20.2667L15.71 20.16L15.3245 20.0533L12.8245 29.0833L13.21 29.19ZM15.71 20.16V20.56H17.16V20.16V19.76H15.71V20.16ZM17.16 20.16L16.7745 20.0533L14.2745 29.0833L14.66 29.19L15.0455 29.2967L17.5455 20.2667L17.16 20.16ZM14.66 29.19V28.79H13.21V29.19V29.59H14.66V29.19ZM16.1741 29.19L15.7886 29.0833L15.6483 29.59H16.1741V29.19ZM18.6741 20.16V19.76H18.3698L18.2886 20.0533L18.6741 20.16ZM20.1241 20.16L20.5096 20.2667L20.6499 19.76H20.1241V20.16ZM17.6241 29.19V29.59H17.9284L18.0096 29.2967L17.6241 29.19ZM16.1741 29.19L16.5596 29.2967L19.0596 20.2667L18.6741 20.16L18.2886 20.0533L15.7886 29.0833L16.1741 29.19ZM18.6741 20.16V20.56H20.1241V20.16V19.76H18.6741V20.16ZM20.1241 20.16L19.7386 20.0533L17.2386 29.0833L17.6241 29.19L18.0096 29.2967L20.5096 20.2667L20.1241 20.16ZM17.6241 29.19V28.79H16.1741V29.19V29.59H17.6241V29.19Z" fill="#FF9507" mask="url(#path-2-outside-1_183_989)"/>
</svg>
