<svg width="42" height="42" viewBox="0 0 42 42" fill="none" xmlns="http://www.w3.org/2000/svg">
<path d="M12.6666 17.1611C12.6666 16.6293 12.6666 16.3634 12.7807 16.2168C12.8801 16.0891 13.0321 16.0101 13.1965 16.0006C13.3853 15.9896 13.613 16.1371 14.0683 16.4321L19.9937 20.271C20.37 20.5147 20.5581 20.6366 20.6236 20.7902C20.681 20.9245 20.681 21.0755 20.6236 21.2098C20.5581 21.3634 20.37 21.4853 19.9937 21.729L14.0683 25.5679C13.613 25.8629 13.3853 26.0104 13.1965 25.9994C13.0321 25.9899 12.8801 25.9109 12.7807 25.7832C12.6666 25.6366 12.6666 25.3707 12.6666 24.8389V17.1611Z" stroke="#FF9507" stroke-width="2.66667" stroke-linecap="round" stroke-linejoin="round"/>
<circle cx="15.6666" cy="21" r="13.75" stroke="#2D69F6" stroke-width="2.5"/>
</svg>
