<svg width="43" height="42" viewBox="0 0 43 42" fill="none" xmlns="http://www.w3.org/2000/svg">
<rect x="1.25" y="6" width="18" height="30" rx="4" stroke="#2D69F6" stroke-width="2.5"/>
<path d="M7.25 32H13.25" stroke="#2D69F6" stroke-width="2.5" stroke-linecap="round"/>
<path d="M27.05 14H13.45C12.3299 14 11.7698 14 11.342 14.218C10.9657 14.4097 10.6597 14.7157 10.468 15.092C10.25 15.5198 10.25 16.0799 10.25 17.2V20.8C10.25 21.9201 10.25 22.4802 10.468 22.908C10.6597 23.2843 10.9657 23.5903 11.342 23.782C11.7698 24 12.3299 24 13.45 24H27.05C28.1701 24 28.7302 24 29.158 23.782C29.5343 23.5903 29.8403 23.2843 30.032 22.908C30.25 22.4802 30.25 21.9201 30.25 20.8V17.2C30.25 16.0799 30.25 15.5198 30.032 15.092C29.8403 14.7157 29.5343 14.4097 29.158 14.218C28.7302 14 28.1701 14 27.05 14Z" fill="white"/>
<path d="M20.5 19C20.5 19.1381 20.3881 19.25 20.25 19.25C20.1119 19.25 20 19.1381 20 19C20 18.8619 20.1119 18.75 20.25 18.75C20.3881 18.75 20.5 18.8619 20.5 19Z" fill="white"/>
<path d="M25.5 19C25.5 19.1381 25.3881 19.25 25.25 19.25C25.1119 19.25 25 19.1381 25 19C25 18.8619 25.1119 18.75 25.25 18.75C25.3881 18.75 25.5 18.8619 25.5 19Z" fill="white"/>
<path d="M15.5 19C15.5 19.1381 15.3881 19.25 15.25 19.25C15.1119 19.25 15 19.1381 15 19C15 18.8619 15.1119 18.75 15.25 18.75C15.3881 18.75 15.5 18.8619 15.5 19Z" fill="white"/>
<path d="M20.25 19H20.255M25.25 19H25.255M15.25 19H15.255M13.45 14H27.05C28.1701 14 28.7302 14 29.158 14.218C29.5343 14.4097 29.8403 14.7157 30.032 15.092C30.25 15.5198 30.25 16.0799 30.25 17.2V20.8C30.25 21.9201 30.25 22.4802 30.032 22.908C29.8403 23.2843 29.5343 23.5903 29.158 23.782C28.7302 24 28.1701 24 27.05 24H13.45C12.3299 24 11.7698 24 11.342 23.782C10.9657 23.5903 10.6597 23.2843 10.468 22.908C10.25 22.4802 10.25 21.9201 10.25 20.8V17.2C10.25 16.0799 10.25 15.5198 10.468 15.092C10.6597 14.7157 10.9657 14.4097 11.342 14.218C11.7698 14 12.3299 14 13.45 14ZM20.5 19C20.5 19.1381 20.3881 19.25 20.25 19.25C20.1119 19.25 20 19.1381 20 19C20 18.8619 20.1119 18.75 20.25 18.75C20.3881 18.75 20.5 18.8619 20.5 19ZM25.5 19C25.5 19.1381 25.3881 19.25 25.25 19.25C25.1119 19.25 25 19.1381 25 19C25 18.8619 25.1119 18.75 25.25 18.75C25.3881 18.75 25.5 18.8619 25.5 19ZM15.5 19C15.5 19.1381 15.3881 19.25 15.25 19.25C15.1119 19.25 15 19.1381 15 19C15 18.8619 15.1119 18.75 15.25 18.75C15.3881 18.75 15.5 18.8619 15.5 19Z" stroke="#FF9507" stroke-width="2.5" stroke-linecap="round" stroke-linejoin="round"/>
</svg>
