<svg width="42" height="42" viewBox="0 0 42 42" fill="none" xmlns="http://www.w3.org/2000/svg">
<g clip-path="url(#clip0_183_1093)">
<path d="M8.99527 26.4567C8.99527 28.8708 7.04408 30.822 4.62991 30.822C2.21574 30.822 0.264557 28.8708 0.264557 26.4567C0.264557 24.0425 2.21574 22.0913 4.62991 22.0913H8.99527V26.4567ZM11.1779 26.4567C11.1779 24.0425 13.1291 22.0913 15.5433 22.0913C17.9575 22.0913 19.9087 24.0425 19.9087 26.4567V37.37C19.9087 39.7842 17.9575 41.7354 15.5433 41.7354C13.1291 41.7354 11.1779 39.7842 11.1779 37.37V26.4567Z" fill="#E01E5A"/>
<path d="M15.5433 8.9292C13.1291 8.9292 11.178 6.97801 11.178 4.56384C11.178 2.14967 13.1291 0.198486 15.5433 0.198486C17.9575 0.198486 19.9087 2.14967 19.9087 4.56384V8.9292H15.5433ZM15.5433 11.1449C17.9575 11.1449 19.9087 13.0961 19.9087 15.5103C19.9087 17.9245 17.9575 19.8757 15.5433 19.8757H4.59686C2.18269 19.8757 0.231506 17.9245 0.231506 15.5103C0.231506 13.0961 2.18269 11.1449 4.59686 11.1449H15.5433Z" fill="#36C5F0"/>
<path d="M33.0378 15.5103C33.0378 13.0961 34.989 11.1449 37.4031 11.1449C39.8173 11.1449 41.7685 13.0961 41.7685 15.5103C41.7685 17.9245 39.8173 19.8757 37.4031 19.8757H33.0378V15.5103ZM30.8551 15.5103C30.8551 17.9245 28.9039 19.8757 26.4898 19.8757C24.0756 19.8757 22.1244 17.9245 22.1244 15.5103V4.56384C22.1244 2.14967 24.0756 0.198486 26.4898 0.198486C28.9039 0.198486 30.8551 2.14967 30.8551 4.56384V15.5103Z" fill="#2EB67D"/>
<path d="M26.4898 33.0047C28.9039 33.0047 30.8551 34.9559 30.8551 37.37C30.8551 39.7842 28.9039 41.7354 26.4898 41.7354C24.0756 41.7354 22.1244 39.7842 22.1244 37.37V33.0047H26.4898ZM26.4898 30.822C24.0756 30.822 22.1244 28.8708 22.1244 26.4567C22.1244 24.0425 24.0756 22.0913 26.4898 22.0913H37.4362C39.8504 22.0913 41.8016 24.0425 41.8016 26.4567C41.8016 28.8708 39.8504 30.822 37.4362 30.822H26.4898Z" fill="#ECB22E"/>
</g>
<defs>
<clipPath id="clip0_183_1093">
<rect width="42" height="42" fill="white"/>
</clipPath>
</defs>
</svg>
