<svg width="42" height="42" viewBox="0 0 42 42" fill="none" xmlns="http://www.w3.org/2000/svg">
<path d="M7.6 24.4H7.614M6.48 30H25.52C27.0881 30 27.8722 30 28.4712 29.6949C28.998 29.4264 29.4264 28.9981 29.6948 28.4712C30 27.8723 30 27.0882 30 25.52V23.28C30 21.7119 30 20.9278 29.6948 20.3289C29.4264 19.802 28.998 19.3737 28.4712 19.1052C27.8722 18.8 27.0881 18.8 25.52 18.8H6.48C4.91185 18.8 4.12778 18.8 3.52883 19.1052C3.00197 19.3737 2.57363 19.802 2.30518 20.3289C2 20.9278 2 21.7119 2 23.28V25.52C2 27.0882 2 27.8723 2.30518 28.4712C2.57363 28.9981 3.00197 29.4264 3.52883 29.6949C4.12778 30 4.91185 30 6.48 30Z" stroke="#2D69F6" stroke-width="2.5" stroke-linecap="round" stroke-linejoin="round"/>
<path d="M4.24 7.6H4.2456M3.792 13.2H11.408C12.0353 13.2 12.3489 13.2 12.5885 12.8948C12.7992 12.6264 12.9705 12.198 13.0779 11.6712C13.2 11.0722 13.2 10.2881 13.2 8.72V6.48C13.2 4.91185 13.2 4.12778 13.0779 3.52883C12.9705 3.00197 12.7992 2.57363 12.5885 2.30518C12.3489 2 12.0353 2 11.408 2H3.792C3.16474 2 2.85111 2 2.61153 2.30518C2.40079 2.57363 2.22945 3.00197 2.12207 3.52883C2 4.12778 2 4.91185 2 6.48V8.72C2 10.2881 2 11.0722 2.12207 11.6712C2.22945 12.198 2.40079 12.6264 2.61153 12.8948C2.85111 13.2 3.16474 13.2 3.792 13.2Z" stroke="#FF9507" stroke-width="2.5" stroke-linecap="round" stroke-linejoin="round"/>
</svg>
