<svg xmlns="http://www.w3.org/2000/svg" width="32" height="32" viewBox="0 0 32 32" fill="none">
<g clip-path="url(#clip0_18795_2018)">
<path d="M20 5.33329V14.6666H6.89329L6.10663 15.4533L5.33329 16.2266V5.33329H20ZM21.3333 2.66663H3.99996C3.26663 2.66663 2.66663 3.26663 2.66663 3.99996V22.6666L7.99996 17.3333H21.3333C22.0666 17.3333 22.6666 16.7333 22.6666 16V3.99996C22.6666 3.26663 22.0666 2.66663 21.3333 2.66663ZM28 7.99996H25.3333V20H7.99996V22.6666C7.99996 23.4 8.59996 24 9.33329 24H24L29.3333 29.3333V9.33329C29.3333 8.59996 28.7333 7.99996 28 7.99996Z" fill="#323232"/>
</g>
<defs>
<clipPath id="clip0_18795_2018">
<rect width="32" height="32" fill="white"/>
</clipPath>
</defs>
</svg>
