<?xml version="1.0" encoding="UTF-8"?>
<svg id="Layer_1" data-name="Layer 1" xmlns="http://www.w3.org/2000/svg" xmlns:xlink="http://www.w3.org/1999/xlink" viewBox="0 0 178.2727 204.1672" width="178.2727" height="204.1672">
  <g id="logoMark">
    <a xlink:href="82.6941176470588">
      <path id="logoMark__PathItem_" data-name="logoMark &amp;lt;PathItem&amp;gt;" d="M178.2295,54.0101c.007-.1125,.0108-.2252,.0108-.3387-.0003-.3132-.0292-.6227-.0845-.9254-.2605-1.5138-1.198-2.8471-2.5561-3.6312-.1525-.088-.3085-.1677-.4676-.2389L91.7738,.6984c-1.6101-.9305-3.5944-.9312-5.2054-.0025L2.648,49.0976c-1.6107,.9292-2.6035,2.647-2.6044,4.5068L0,150.4826c-.0006,1.8598,.9906,3.5785,2.6006,4.5093l83.877,48.477c.7917,.4575,1.6901,.6983,2.6044,.6983h.1087c.9146,0,1.8131-.2408,2.6047-.6983l83.8767-48.477c1.6101-.9308,2.6016-2.6495,2.6006-4.5093l-.0432-96.4725Z" style="fill: #361e5b; fill-rule: evenodd;"/>
    </a>
    <a xlink:href="39.2619607843137">
      <polygon id="logoMark__PathItem_-2" data-name="logoMark &amp;lt;PathItem&amp;gt;" points="89.1362 11.187 10.4214 56.6396 10.4214 147.5275 89.1362 192.9799 167.8515 147.5275 167.8515 56.6396 89.1362 11.187" style="fill: #16d6c7;"/>
    </a>
    <a xlink:href="63.4670588235294">
      <polygon id="logoMark__PathItem_-3" data-name="logoMark &amp;lt;PathItem&amp;gt;" points="167.8514 56.6395 167.8514 147.5274 89.1364 192.98 89.1364 102.0921 167.8514 56.6395" style="fill: #027f9e;"/>
    </a>
    <a xlink:href="51.1329411764706">
      <polygon id="logoMark__PathItem_-4" data-name="logoMark &amp;lt;PathItem&amp;gt;" points="167.8514 56.6395 89.1364 102.0921 10.4215 56.6395 89.1364 11.187 167.8514 56.6395" style="fill: #17a6b2;"/>
    </a>
  </g>
</svg>