<?xml version="1.0" encoding="UTF-8"?>
<!-- Generator: visioncortex VTracer -->
<svg id="svg" version="1.1" xmlns="http://www.w3.org/2000/svg" style="display: block;" viewBox="0 0 1822 2048"><path d="M0 0 C0.77707306 -0.00696899 1.55414612 -0.01393799 2.35476685 -0.02111816 C4.84464004 -0.03839191 7.33428816 -0.04483626 9.82421875 -0.046875 C10.67420441 -0.04788208 11.52419006 -0.04888916 12.39993286 -0.04992676 C24.99041263 -0.03982573 37.19179748 0.37168859 49.51171875 3.203125 C50.16994629 3.34766113 50.82817383 3.49219727 51.50634766 3.64111328 C74.91932469 8.90160551 94.65905942 20.42411727 115.140625 32.46484375 C121.53638628 36.22433464 127.95808432 39.93769289 134.38671875 43.640625 C135.46622803 44.26275879 136.5457373 44.88489258 137.65795898 45.52587891 C139.84836625 46.78810333 142.03887747 48.05014737 144.22949219 49.31201172 C149.65831817 52.43992648 155.08491156 55.57170948 160.51171875 58.703125 C162.67837458 59.95314379 164.84504125 61.20314378 167.01171875 62.453125 C206.01171875 84.953125 245.01171875 107.453125 284.01171875 129.953125 C285.08437988 130.57195557 286.15704102 131.19078613 287.26220703 131.82836914 C289.42728946 133.07748018 291.59232857 134.32666629 293.75732422 135.57592773 C299.19787581 138.71514809 304.63919091 141.85303063 310.08203125 144.98828125 C320.53378074 151.01059829 330.97471423 157.04981837 341.38671875 163.140625 C350.06434116 168.21587623 358.77777443 173.22571267 367.51171875 178.203125 C377.23287492 183.7431423 386.92066533 189.33687309 396.57861328 194.98657227 C407.102565 201.14079242 417.66552012 207.22682496 428.22949219 213.31201172 C433.65831817 216.43992648 439.08491156 219.57170948 444.51171875 222.703125 C446.67837458 223.95314379 448.84504125 225.20314378 451.01171875 226.453125 C542.01171875 278.953125 633.01171875 331.453125 724.01171875 383.953125 C725.08437988 384.57195557 726.15704102 385.19078613 727.26220703 385.82836914 C729.42728946 387.07748018 731.59232857 388.32666629 733.75732422 389.57592773 C739.19787581 392.71514809 744.63919091 395.85303063 750.08203125 398.98828125 C760.53378074 405.01059829 770.97471423 411.04981837 781.38671875 417.140625 C789.4729882 421.87001365 797.58817302 426.54635126 805.7265625 431.18527222 C809.84465359 433.53330784 813.95982925 435.88645051 818.07519531 438.23925781 C820.33676473 439.531675 822.59911431 440.82272812 824.86230469 442.11230469 C870.94818674 468.41363469 903.43053673 504.48704158 917.78515625 556.7578125 C919.97787321 565.08957757 921.6348018 573.17330466 921.64051992 581.82032746 C921.64379211 583.12100949 921.6470643 584.42169152 921.65043566 585.76178816 C921.64902578 587.19593456 921.64752378 588.63008088 921.64593983 590.0642271 C921.64789397 591.60121891 921.65028328 593.13821021 921.6530678 594.67520073 C921.65946312 598.91022136 921.65962979 603.14522301 921.65879039 607.38024755 C921.65895998 611.98354447 921.66486718 616.58683461 921.67003125 621.19012815 C921.67935759 630.32553651 921.68327936 639.46094004 921.68555022 648.59635257 C921.68851222 659.5369467 921.69720966 670.4775344 921.7059645 681.41812516 C921.72681062 707.86410231 921.73727919 734.31008059 921.7460941 760.75606405 C921.75030061 773.2675036 921.75552262 785.77894267 921.76077863 798.29038182 C921.77838911 840.44839199 921.79344125 882.60640255 921.80074887 924.76441586 C921.80133283 928.12460213 921.8019301 931.48478839 921.80252649 934.84497466 C921.80264461 935.51151867 921.80276273 936.17806269 921.80288442 936.86480501 C921.80408179 943.61765877 921.80529055 950.37051252 921.80651696 957.12336628 C921.80676219 958.47731714 921.80700605 959.831268 921.80724853 961.18521886 C921.81503512 1004.6518496 921.83741125 1048.11845332 921.86992495 1091.58507226 C921.90479349 1138.21551001 921.92540233 1184.84593541 921.92874306 1231.4763878 C921.9291606 1236.52237309 921.92964016 1241.56835837 921.93016624 1246.61434364 C921.93028944 1247.85680511 921.93041263 1249.09926658 921.93053955 1250.3793784 C921.93287064 1270.36554064 921.94852558 1290.35167115 921.96900809 1310.33782208 C921.98927509 1330.43272528 921.99473924 1350.52759041 921.98523746 1370.62250193 C921.98002584 1382.55603138 921.98588401 1394.489434 922.00777213 1406.42294517 C922.02130045 1414.40277659 922.02018524 1422.38252093 922.00737017 1430.36235326 C922.00048711 1434.90361361 921.99975716 1439.44463186 922.01693026 1443.98587038 C922.14117264 1479.01747802 922.14117264 1479.01747802 917.51171875 1495.203125 C917.18406031 1496.36686881 917.18406031 1496.36686881 916.8497825 1497.55412259 C909.53771529 1523.2612007 896.079293 1547.13048532 878.51171875 1567.203125 C877.79628906 1568.03972656 877.08085938 1568.87632813 876.34375 1569.73828125 C861.60280611 1586.61861876 843.97939172 1597.28301671 824.72013855 1608.23670959 C818.63467013 1611.69789641 812.57309239 1615.19997719 806.51171875 1618.703125 C804.34515787 1619.95330834 802.17849099 1621.20330801 800.01171875 1622.453125 C798.93921875 1623.071875 797.86671875 1623.690625 796.76171875 1624.328125 C657.01171872 1704.95312502 657.01171872 1704.95312502 653.76123047 1706.82836914 C651.59614804 1708.07748018 649.43110893 1709.32666629 647.26611328 1710.57592773 C641.82556169 1713.71514809 636.38424659 1716.85303063 630.94140625 1719.98828125 C620.48965676 1726.01059829 610.04872327 1732.04981837 599.63671875 1738.140625 C590.36672098 1743.56233678 581.05340123 1748.90517415 571.7232666 1754.22235107 C562.59889035 1759.42357629 553.51039101 1764.68340378 544.44482422 1769.98657227 C533.9208725 1776.14079242 523.35791738 1782.22682496 512.79394531 1788.31201172 C507.36511933 1791.43992648 501.93852594 1794.57170948 496.51171875 1797.703125 C494.34506292 1798.95314379 492.17839625 1800.20314378 490.01171875 1801.453125 C488.93921875 1802.071875 487.86671875 1802.690625 486.76171875 1803.328125 C217.01171872 1958.95312502 217.01171872 1958.95312502 213.76123047 1960.82836914 C211.59614804 1962.07748018 209.43110893 1963.32666629 207.26611328 1964.57592773 C201.82556169 1967.71514809 196.38424659 1970.85303063 190.94140625 1973.98828125 C180.48965676 1980.01059829 170.04872327 1986.04981837 159.63671875 1992.140625 C150.36924315 1997.56086164 141.0602302 2002.90559565 131.73031616 2008.21731567 C124.44960992 2012.36265671 117.19505871 2016.54817429 109.97509766 2020.79882812 C83.95777031 2036.09770514 59.97299016 2048.69079988 29.0078125 2048.671875 C27.55355044 2048.67901076 26.09929106 2048.68671443 24.64503479 2048.69494629 C21.61540895 2048.70827867 18.58604314 2048.71001298 15.55639648 2048.70410156 C12.49707607 2048.69940127 9.43879451 2048.71318189 6.37963867 2048.74511719 C-32.93237944 2049.15091245 -60.61208512 2037.63688469 -94.1171875 2017.94140625 C-100.51294878 2014.18191536 -106.93464682 2010.46855711 -113.36328125 2006.765625 C-114.44279053 2006.14349121 -115.5222998 2005.52135742 -116.63452148 2004.88037109 C-118.82492875 2003.61814667 -121.01543997 2002.35610263 -123.20605469 2001.09423828 C-128.63488067 1997.96632352 -134.06147406 1994.83454052 -139.48828125 1991.703125 C-141.65493708 1990.45310621 -143.82160375 1989.20310622 -145.98828125 1987.953125 C-228.32161458 1940.453125 -310.65494792 1892.953125 -392.98828125 1845.453125 C-394.06094238 1844.83429443 -395.13360352 1844.21546387 -396.23876953 1843.57788086 C-398.40385196 1842.32876982 -400.56889107 1841.07958371 -402.73388672 1839.83032227 C-408.17443831 1836.69110191 -413.61575341 1833.55321937 -419.05859375 1830.41796875 C-429.51034324 1824.39565171 -439.95127673 1818.35643163 -450.36328125 1812.265625 C-459.04090366 1807.19037377 -467.75433693 1802.18053733 -476.48828125 1797.203125 C-486.20943742 1791.6631077 -495.89722783 1786.06937691 -505.55517578 1780.41967773 C-516.0791275 1774.26545758 -526.64208262 1768.17942504 -537.20605469 1762.09423828 C-542.63488067 1758.96632352 -548.06147406 1755.83454052 -553.48828125 1752.703125 C-555.65493708 1751.45310621 -557.82160375 1750.20310622 -559.98828125 1748.953125 C-633.65494792 1706.453125 -707.32161458 1663.953125 -780.98828125 1621.453125 C-782.06182861 1620.83397217 -783.13537598 1620.21481934 -784.24145508 1619.5769043 C-786.39824798 1618.33219526 -788.55434101 1617.08627268 -790.7097168 1615.83911133 C-795.69289471 1612.957605 -800.68133625 1610.08754745 -805.69671631 1607.26235962 C-829.67999495 1593.75214487 -829.67999495 1593.75214487 -839.48828125 1585.203125 C-839.98924316 1584.77080566 -840.49020508 1584.33848633 -841.00634766 1583.89306641 C-867.81997789 1560.61217172 -886.65143454 1529.22698288 -896.48828125 1495.203125 C-896.68220772 1494.53366608 -896.87613418 1493.86420716 -897.07593721 1493.1744616 C-901.71785248 1476.24287334 -901.05770292 1458.83046845 -901.00215147 1441.43654194 C-900.99191772 1436.83072572 -901.00507841 1432.22496249 -901.0151248 1427.61915398 C-901.02951404 1419.56283838 -901.02916889 1411.50663017 -901.01893616 1403.45030975 C-901.00376094 1391.46997892 -901.01156462 1379.48973811 -901.02376939 1367.50940782 C-901.04480083 1346.10840408 -901.04301936 1324.70744819 -901.03145374 1303.30643994 C-901.02138231 1284.57780298 -901.018769 1265.84918354 -901.02354431 1247.12054443 C-901.02384985 1245.87710962 -901.02415539 1244.6336748 -901.02447019 1243.35256015 C-901.02571559 1238.30475867 -901.0269892 1233.25695719 -901.02830925 1228.20915573 C-901.03740882 1192.99291994 -901.03902806 1157.77668948 -901.02405548 1122.56045532 C-901.02377448 1121.89728174 -901.02349349 1121.23410816 -901.02320398 1120.55083841 C-901.01862463 1109.78252263 -901.01374657 1099.01420699 -901.00884328 1088.24589136 C-900.98941915 1045.54216599 -900.99032074 1002.83849078 -901.00976562 960.13476562 C-901.01465071 949.37177536 -901.01949505 938.60878508 -901.02405548 927.84579468 C-901.02433727 927.18300485 -901.02461907 926.52021502 -901.0249094 925.83734065 C-901.04003076 890.02527585 -901.03668177 854.21321392 -901.02731657 818.40114784 C-901.02603375 813.36266709 -901.02478238 808.32418633 -901.02354431 803.28570557 C-901.023228 802.0451486 -901.02291169 800.80459164 -901.0225858 799.52644204 C-901.01804035 780.81187113 -901.02334872 762.09731968 -901.03346252 743.38275146 C-901.04490786 722.09850578 -901.04202252 700.81431532 -901.02033955 679.5300765 C-901.00861112 667.62537111 -901.00780349 655.72078539 -901.02292425 643.81608316 C-901.03191785 635.85591305 -901.02626821 627.89583855 -901.00890517 619.93568257 C-900.99942537 615.40589192 -900.99606221 610.87633835 -901.0105291 606.34655547 C-901.11387993 571.39596315 -901.11387993 571.39596315 -896.48828125 555.203125 C-896.26987156 554.42716893 -896.05146188 553.65121287 -895.82643372 552.85174298 C-888.52600844 527.18643729 -875.08908907 503.20542474 -857.48828125 483.203125 C-856.64910156 482.23117187 -855.80992187 481.25921875 -854.9453125 480.2578125 C-838.29017812 461.27601462 -817.17405899 449.71743221 -795.36328125 437.51171875 C-789.428167 434.1835896 -783.54743886 430.76669554 -777.67578125 427.328125 C-766.06889086 420.53421634 -754.42435131 413.80722595 -742.77050781 407.09423828 C-737.34168183 403.96632352 -731.91508844 400.83454052 -726.48828125 397.703125 C-724.32162542 396.45310621 -722.15495875 395.20310622 -719.98828125 393.953125 C-718.91578125 393.334375 -717.84328125 392.715625 -716.73828125 392.078125 C-446.98828125 236.453125 -446.98828125 236.453125 -443.73779297 234.57788086 C-441.57271054 233.32876982 -439.40767143 232.07958371 -437.24267578 230.83032227 C-431.80212419 227.69110191 -426.36080909 224.55321937 -420.91796875 221.41796875 C-410.46621926 215.39565171 -400.02528577 209.35643163 -389.61328125 203.265625 C-380.34328348 197.84391322 -371.02996373 192.50107585 -361.6998291 187.18389893 C-352.57545285 181.98267371 -343.48695351 176.72284622 -334.42138672 171.41967773 C-323.897435 165.26545758 -313.33447988 159.17942504 -302.77050781 153.09423828 C-297.34168183 149.96632352 -291.91508844 146.83454052 -286.48828125 143.703125 C-284.32162542 142.45310621 -282.15495875 141.20310622 -279.98828125 139.953125 C-278.91578125 139.334375 -277.84328125 138.715625 -276.73828125 138.078125 C-221.48828125 106.203125 -166.23828125 74.328125 -110.98828125 42.453125 C-109.91497559 41.83373047 -108.84166992 41.21433594 -107.73583984 40.57617188 C-105.57793995 39.33159151 -103.41941492 38.08809436 -101.26025391 36.84570312 C-95.70372609 33.64656643 -90.16067291 30.42697827 -84.63671875 27.171875 C-58.03239345 11.54312008 -31.37610947 0.19099454 0 0 Z " transform="translate(900.48828125,-0.203125)" style="fill: #659BD3;"/><path d="M0 0 C2.65834435 1.29112728 3.21731466 2.76459113 4.47949219 5.41577148 C5.15902954 6.82862427 5.15902954 6.82862427 5.85229492 8.27001953 C6.31966064 9.28878174 6.78702637 10.30754395 7.26855469 11.35717773 C7.75461182 12.40107666 8.24066895 13.44497559 8.74145508 14.52050781 C12.84564979 23.50062029 16.19844432 32.43375921 18.89355469 41.91967773 C19.08334741 42.58151935 19.27314012 43.24336097 19.46868414 43.9252584 C24.09878891 60.87952441 23.46304069 78.27219225 23.4074249 95.68626079 C23.39719115 100.29207701 23.41035184 104.89784024 23.42039824 109.50364876 C23.43478747 117.55996435 23.43444233 125.61617256 23.42420959 133.67249298 C23.40903438 145.65282381 23.41683806 157.63306462 23.42904282 169.61339492 C23.45007427 191.01439865 23.4482928 212.41535454 23.43672717 233.8163628 C23.42665574 252.54499975 23.42404244 271.27361919 23.42881775 290.0022583 C23.42927606 291.86741052 23.42927606 291.86741052 23.42974363 293.77024259 C23.43098903 298.81804407 23.43226264 303.86584554 23.43358268 308.913647 C23.44268226 344.12988279 23.4443015 379.34611325 23.42932892 414.56234741 C23.42890742 415.55710778 23.42890742 415.55710778 23.42847742 416.57196433 C23.42389807 427.3402801 23.41902001 438.10859574 23.41411672 448.87691138 C23.39469259 491.58063675 23.39559417 534.28431195 23.41503906 576.98803711 C23.41992415 587.75102737 23.42476849 598.51401765 23.42932892 609.27700806 C23.42961071 609.93979789 23.4298925 610.60258771 23.43018284 611.28546208 C23.44530419 647.09752689 23.44195521 682.90958881 23.43259001 718.72165489 C23.43130718 723.76013564 23.43005582 728.7986164 23.42881775 733.83709717 C23.42850144 735.07765413 23.42818513 736.3182111 23.42785924 737.5963607 C23.42331379 756.31093161 23.42862216 775.02548306 23.43873596 793.74005127 C23.45018129 815.02429696 23.44729596 836.30848741 23.42561299 857.59272623 C23.41388456 869.49743162 23.41307693 881.40201734 23.42819768 893.30671958 C23.43719128 901.26688968 23.43154165 909.22696418 23.41417861 917.18712016 C23.40469881 921.71691082 23.40133565 926.24646439 23.41580254 930.77624726 C23.51915336 965.72683958 23.51915336 965.72683958 18.89355469 981.91967773 C18.675145 982.6956338 18.45673532 983.47158987 18.23170716 984.27105975 C10.91945925 1009.97792894 -2.53897927 1033.84716169 -20.10644531 1053.91967773 C-20.821875 1054.7562793 -21.53730469 1055.59288086 -22.27441406 1056.45483398 C-37.01535795 1073.3351715 -54.63877234 1083.99956944 -73.89802551 1094.95326233 C-79.98349394 1098.41444915 -86.04507167 1101.91652992 -92.10644531 1105.41967773 C-94.2730062 1106.66986107 -96.43967307 1107.91986074 -98.60644531 1109.16967773 C-99.67894531 1109.78842773 -100.75144531 1110.40717773 -101.85644531 1111.04467773 C-241.60644534 1191.66967775 -241.60644534 1191.66967775 -244.85693359 1193.54492188 C-247.02201602 1194.79403292 -249.18705513 1196.04321903 -251.35205078 1197.29248047 C-256.79260237 1200.43170083 -262.23391747 1203.56958336 -267.67675781 1206.70483398 C-278.12850731 1212.72715102 -288.56944079 1218.76637111 -298.98144531 1224.85717773 C-308.25144309 1230.27888951 -317.56476283 1235.62172689 -326.89489746 1240.93890381 C-336.01927371 1246.14012902 -345.10777305 1251.39995651 -354.17333984 1256.703125 C-364.69729156 1262.85734515 -375.26024669 1268.94337769 -385.82421875 1275.02856445 C-391.25304474 1278.15647922 -396.67963812 1281.28826221 -402.10644531 1284.41967773 C-404.27310114 1285.66969652 -406.43976781 1286.91969652 -408.60644531 1288.16967773 C-409.67894531 1288.78842773 -410.75144531 1289.40717773 -411.85644531 1290.04467773 C-681.60644531 1445.66967773 -681.60644531 1445.66967773 -684.85693359 1447.54492188 C-687.02201602 1448.79403292 -689.18705513 1450.04321903 -691.35205078 1451.29248047 C-696.79260237 1454.43170083 -702.23391747 1457.56958336 -707.67675781 1460.70483398 C-718.12850731 1466.72715102 -728.56944079 1472.76637111 -738.98144531 1478.85717773 C-748.24892091 1484.27741437 -757.55793386 1489.62214838 -766.8878479 1494.93386841 C-774.16855414 1499.07920944 -781.42310536 1503.26472703 -788.64306641 1507.51538086 C-814.66039375 1522.81425787 -838.6451739 1535.40735261 -869.61035156 1535.38842773 C-871.06461363 1535.39556349 -872.518873 1535.40326716 -873.97312927 1535.41149902 C-877.00275511 1535.42483141 -880.03212093 1535.42656572 -883.06176758 1535.4206543 C-886.12108799 1535.41595401 -889.17936955 1535.42973462 -892.23852539 1535.46166992 C-931.5505435 1535.86746518 -959.23024918 1524.35343743 -992.73535156 1504.65795898 C-999.13111284 1500.89846809 -1005.55281089 1497.18510985 -1011.98144531 1493.48217773 C-1013.06095459 1492.86004395 -1014.14046387 1492.23791016 -1015.25268555 1491.59692383 C-1017.44309281 1490.3346994 -1019.63360403 1489.07265536 -1021.82421875 1487.81079102 C-1027.25304474 1484.68287625 -1032.67963812 1481.55109326 -1038.10644531 1478.41967773 C-1040.27310114 1477.16965894 -1042.43976781 1475.91965895 -1044.60644531 1474.66967773 C-1126.93977865 1427.16967773 -1209.27311198 1379.66967773 -1291.60644531 1332.16967773 C-1292.67910645 1331.55084717 -1293.75176758 1330.9320166 -1294.85693359 1330.29443359 C-1297.02201602 1329.04532255 -1299.18705513 1327.79613644 -1301.35205078 1326.546875 C-1306.79260237 1323.40765464 -1312.23391747 1320.26977211 -1317.67675781 1317.13452148 C-1328.12850731 1311.11220445 -1338.56944079 1305.07298436 -1348.98144531 1298.98217773 C-1357.65906773 1293.9069265 -1366.37250099 1288.89709007 -1375.10644531 1283.91967773 C-1384.82760148 1278.37966044 -1394.51539189 1272.78592965 -1404.17333984 1267.13623047 C-1414.69729156 1260.98201032 -1425.26024669 1254.89597777 -1435.82421875 1248.81079102 C-1441.25304474 1245.68287625 -1446.67963812 1242.55109326 -1452.10644531 1239.41967773 C-1454.27310114 1238.16965894 -1456.43976781 1236.91965895 -1458.60644531 1235.66967773 C-1532.27311198 1193.16967773 -1605.93977865 1150.66967773 -1679.60644531 1108.16967773 C-1680.67999268 1107.5505249 -1681.75354004 1106.93137207 -1682.85961914 1106.29345703 C-1685.01641204 1105.04874799 -1687.17250508 1103.80282542 -1689.32788086 1102.55566406 C-1694.31105877 1099.67415774 -1699.29950031 1096.80410018 -1704.31488037 1093.97891235 C-1728.29815902 1080.4686976 -1728.29815902 1080.4686976 -1738.10644531 1071.91967773 C-1738.60740723 1071.4873584 -1739.10836914 1071.05503906 -1739.62451172 1070.60961914 C-1749.79810033 1061.77641592 -1758.66872271 1052.20095444 -1766.48144531 1041.23217773 C-1766.98160156 1040.53141113 -1767.48175781 1039.83064453 -1767.99707031 1039.10864258 C-1771.16945218 1034.55263064 -1773.72986403 1029.93753063 -1776.10644531 1024.91967773 C-1769.7714139 1020.55109119 -1763.26926351 1016.65356787 -1756.54394531 1012.91967773 C-1748.41698688 1008.36710947 -1740.33216621 1003.75219921 -1732.29394531 999.04467773 C-1720.68706484 992.25075218 -1709.04251526 985.52377862 -1697.38867188 978.81079102 C-1691.95984589 975.68287625 -1686.5332525 972.55109326 -1681.10644531 969.41967773 C-1678.93978949 968.16965894 -1676.77312282 966.91965895 -1674.60644531 965.66967773 C-1673.53394531 965.05092773 -1672.46144531 964.43217773 -1671.35644531 963.79467773 C-1479.60644529 853.16967772 -1479.60644529 853.16967772 -1476.35473633 851.29370117 C-1474.19375543 850.04697518 -1472.03278533 848.80023046 -1469.87182617 847.5534668 C-1464.3682568 844.3782189 -1458.86448499 841.20332278 -1453.36035156 838.02905273 C-1452.24982422 837.38846924 -1451.13929688 836.74788574 -1449.99511719 836.08789062 C-1447.80271457 834.82352573 -1445.61001317 833.55967876 -1443.41699219 832.29638672 C-1438.37578253 829.3908829 -1433.34062965 826.476106 -1428.32128906 823.53295898 C-1427.43562256 823.01507812 -1426.54995605 822.49719727 -1425.63745117 821.96362305 C-1423.99418874 821.00179065 -1422.35294815 820.03649251 -1420.71411133 819.06713867 C-1415.32962706 815.91967773 -1415.32962706 815.91967773 -1413.10644531 815.91967773 C-1411.68864312 818.1634763 -1410.39005599 820.4120488 -1409.10644531 822.73217773 C-1397.90608042 842.33069019 -1384.80833313 861.00149382 -1371.10644531 878.91967773 C-1370.37071289 879.88284912 -1370.37071289 879.88284912 -1369.62011719 880.86547852 C-1358.15135733 895.80997478 -1345.743088 909.95822574 -1333.10644531 923.91967773 C-1332.30722656 924.81299805 -1331.50800781 925.70631836 -1330.68457031 926.62670898 C-1325.08874617 932.82450815 -1319.31300869 938.81695421 -1313.41894531 944.73217773 C-1312.71833984 945.43737549 -1312.01773437 946.14257324 -1311.29589844 946.86914062 C-1307.30914523 950.8441736 -1303.22066099 954.63762389 -1298.95727539 958.31396484 C-1296.34446777 960.58074175 -1293.82508637 962.93699949 -1291.29394531 965.29467773 C-1286.70085156 969.53278475 -1281.99374309 973.57567966 -1277.12207031 977.49389648 C-1274.91002316 979.27327639 -1272.71437692 981.06598326 -1270.52832031 982.87670898 C-1240.39926501 1007.75878395 -1207.50339916 1029.14874499 -1172.97753906 1047.39379883 C-1170.32138512 1048.80544527 -1167.68090248 1050.24211104 -1165.04394531 1051.68920898 C-1127.14611973 1072.29622206 -1085.39295546 1088.04596066 -1043.56787109 1098.31274414 C-1041.39807763 1098.8477676 -1039.23389377 1099.39941686 -1037.07128906 1099.96264648 C-1033.85519924 1100.79118698 -1030.63423382 1101.59126155 -1027.40478516 1102.3659668 C-1025.75531216 1102.76335417 -1024.1073654 1103.16709704 -1022.46044922 1103.57495117 C-1007.73845681 1107.19279458 -992.96694588 1109.88211982 -977.98144531 1112.10717773 C-976.79145432 1112.28781769 -976.79145432 1112.28781769 -975.5774231 1112.47210693 C-948.31142929 1116.57449782 -921.07873579 1118.48981387 -893.52702332 1118.36569977 C-891.37506063 1118.35700033 -889.22314561 1118.35399331 -887.07116699 1118.35198975 C-852.99856088 1118.2993288 -818.55323558 1116.54568605 -785.05566406 1109.89624023 C-782.30216112 1109.35200465 -779.54809153 1108.81157741 -776.79248047 1108.27807617 C-719.22459267 1097.1309582 -664.53146615 1078.19316521 -612.10644531 1051.91967773 C-611.08325195 1051.40937012 -610.06005859 1050.8990625 -609.00585938 1050.37329102 C-551.06153167 1021.32450656 -499.37482536 981.17952368 -453.60644531 935.54467773 C-453.08752716 935.02843842 -452.56860901 934.5121991 -452.03396606 933.98031616 C-446.17018232 928.13953175 -440.4871675 922.21386275 -435.10644531 915.91967773 C-433.69320981 914.37486513 -432.27704122 912.83272449 -430.85644531 911.29467773 C-426.8470934 906.85188237 -423.13498853 902.23560218 -419.47241211 897.50830078 C-416.48115461 893.651058 -413.42416392 889.8600188 -410.31274414 886.09912109 C-403.09573869 877.35360684 -396.48834863 868.28822494 -390.10644531 858.91967773 C-389.54812012 858.10337891 -388.98979492 857.28708008 -388.41455078 856.44604492 C-381.77642899 846.71210914 -375.34236697 836.86906827 -369.23144531 826.79467773 C-368.71324219 825.94736084 -368.19503906 825.10004395 -367.66113281 824.22705078 C-367.19191406 823.44241455 -366.72269531 822.65777832 -366.23925781 821.84936523 C-365.82562988 821.16084473 -365.41200195 820.47232422 -364.98583984 819.76293945 C-363.89114912 817.80878615 -363.89114912 817.80878615 -364.10644531 814.91967773 C-364.6775 814.59918457 -365.24855469 814.27869141 -365.83691406 813.94848633 C-377.92018813 807.16004917 -389.95205179 800.29278866 -401.91357422 793.29199219 C-409.25473077 788.99615682 -416.6122216 784.7296819 -423.98144531 780.48217773 C-425.05998779 779.86044678 -426.13853027 779.23871582 -427.24975586 778.59814453 C-430.53505307 776.70486021 -433.8206852 774.81215856 -437.10644531 772.91967773 C-450.78198846 765.04305185 -464.44605489 757.14847682 -478.07226562 749.18676758 C-488.63264813 743.0204872 -499.22771297 736.91471824 -509.82421875 730.81079102 C-516.33515788 727.05939749 -522.84307725 723.30276779 -529.3515625 719.54711914 C-534.79229867 716.40785528 -540.23376008 713.26986277 -545.67675781 710.13452148 C-557.14785774 703.52498296 -568.60381766 696.89101217 -580.03271484 690.20874023 C-585.38118203 687.08415136 -590.73771695 683.97416806 -596.10644531 680.88452148 C-596.69232422 680.5472403 -597.27820312 680.20995911 -597.88183594 679.86245728 C-600.71328011 678.23287767 -603.54581941 676.60524545 -606.37988281 674.98022461 C-607.40339844 674.39176758 -608.42691406 673.80331055 -609.48144531 673.19702148 C-610.44695312 672.64256348 -611.41246094 672.08810547 -612.40722656 671.5168457 C-614.88043398 670.05341201 -617.27270503 668.50852889 -619.66894531 666.92358398 C-620.80332031 666.26229492 -621.93769531 665.60100586 -623.10644531 664.91967773 C-627.13465402 666.26241397 -627.97072001 668.7706622 -629.91894531 672.29467773 C-644.67108227 697.84242789 -665.66515349 721.81163478 -688.10644531 740.91967773 C-688.945625 741.64799805 -689.78480469 742.37631836 -690.64941406 743.12670898 C-746.89536879 791.14911722 -816.72339306 815.07316814 -890.23144531 815.23217773 C-891.3885199 815.23479614 -892.54559448 815.23741455 -893.73773193 815.2401123 C-911.24651235 815.24435723 -927.92028736 814.46844191 -945.10644531 810.91967773 C-946.6894695 810.62633779 -948.27278577 810.33456796 -949.85644531 810.04467773 C-1019.17580392 796.63785673 -1085.16694359 754.67721835 -1127.84228516 698.57788086 C-1129.02020862 697.0327947 -1130.21314893 695.49918888 -1131.40722656 693.96655273 C-1151.08809929 668.37792247 -1165.72517414 639.65169526 -1175.91894531 609.10717773 C-1176.1501004 608.41538422 -1176.38125549 607.7235907 -1176.61941528 607.01083374 C-1181.38524095 592.66094053 -1185.2878435 578.28903196 -1187.79394531 563.35717773 C-1188.00599609 562.15899414 -1188.21804688 560.96081055 -1188.43652344 559.72631836 C-1191.2734344 543.12546715 -1191.38260881 526.59256573 -1191.41894531 509.79467773 C-1191.42156372 508.63760315 -1191.42418213 507.48052856 -1191.42687988 506.28839111 C-1191.4311248 488.7796107 -1190.65520949 472.10583569 -1187.10644531 454.91967773 C-1186.81310537 453.33665355 -1186.52133553 451.75333728 -1186.23144531 450.16967773 C-1172.89797996 381.22960118 -1131.01270841 314.47557383 -1074.85693359 272.23754883 C-1073.10705682 270.92013812 -1071.37057337 269.58631111 -1069.63378906 268.25170898 C-1022.59561023 232.52364491 -962.20466175 208.97359787 -902.71972656 208.71655273 C-901.66021286 208.71085266 -900.60069916 208.70515259 -899.50907898 208.69927979 C-897.2745359 208.68989073 -895.03997936 208.68332028 -892.80541992 208.67944336 C-889.47255573 208.66983233 -886.1403348 208.63878854 -882.80761719 208.60717773 C-863.80879908 208.51324305 -845.16460337 210.31947915 -826.54394531 214.16967773 C-825.52204102 214.37874756 -824.50013672 214.58781738 -823.44726562 214.80322266 C-744.91703659 231.51113919 -675.50377182 281.12982824 -631.75390625 347.98657227 C-629.46750724 351.58957242 -627.26073081 355.23591462 -625.10644531 358.91967773 C-621.32125799 357.50362713 -617.9089521 355.76546708 -614.40722656 353.75170898 C-613.29395996 353.11354248 -612.18069336 352.47537598 -611.03369141 351.81787109 C-609.82872849 351.1227224 -608.62381441 350.42748903 -607.41894531 349.73217773 C-606.16209732 349.00999156 -604.9050962 348.28807183 -603.64794922 347.56640625 C-600.42007383 345.71224706 -597.19455182 343.8540382 -593.96990967 341.9942627 C-591.11119327 340.3457559 -588.25126077 338.69936086 -585.39160156 337.05249023 C-580.03366423 333.96488597 -574.6785203 330.87246841 -569.32421875 327.77856445 C-563.91973882 324.65643166 -558.51294424 321.53831247 -553.10644531 318.41967773 C-552.03523438 317.80157227 -550.96402344 317.1834668 -549.86035156 316.54663086 C-544.41998457 313.40745399 -538.97881577 310.26968145 -533.53613281 307.13452148 C-523.04412438 301.08912615 -512.56162855 295.02857555 -502.10644531 288.91967773 C-490.55915015 282.17266579 -478.97742504 275.48628456 -467.38867188 268.81079102 C-461.95984589 265.68287625 -456.5332525 262.55109326 -451.10644531 259.41967773 C-448.93978949 258.16965894 -446.77312282 256.91965895 -444.60644531 255.66967773 C-443.53394531 255.05092773 -442.46144531 254.43217773 -441.35644531 253.79467773 C-431.60644531 248.16967773 -431.60644531 248.16967773 -428.35595703 246.29443359 C-426.19087461 245.04532255 -424.02583549 243.79613644 -421.86083984 242.546875 C-416.42028825 239.40765464 -410.97897316 236.26977211 -405.53613281 233.13452148 C-395.08438252 227.11220399 -384.64351416 221.07287516 -374.23144531 214.98217773 C-365.59362531 209.93129755 -356.92324891 204.9394342 -348.23144531 199.98217773 C-330.84842837 190.06766543 -313.50576817 180.08510868 -296.23144531 169.98217773 C-286.96074861 164.56018757 -277.64707936 159.21643821 -268.315979 153.89944458 C-260.21936688 149.28483745 -252.1485573 144.62882887 -244.10644531 139.91967773 C-235.47146974 134.86336851 -226.80038212 129.87360651 -218.10644531 124.91967773 C-208.38520026 119.37981841 -198.69749663 113.78592842 -189.03955078 108.13623047 C-178.51559907 101.98201032 -167.95264394 95.89597777 -157.38867188 89.81079102 C-151.95984589 86.68287625 -146.5332525 83.55109326 -141.10644531 80.41967773 C-138.93978949 79.16965894 -136.77312282 77.91965895 -134.60644531 76.66967773 C-133.53394531 76.05092773 -132.46144531 75.43217773 -131.35644531 74.79467773 C-69.60644531 39.16967773 -69.60644531 39.16967773 -66.35546875 37.29418945 C-64.19197055 36.04596739 -62.02855888 34.79759534 -59.86523438 33.54907227 C-54.40079514 30.39562517 -48.93480886 27.24491678 -43.46582031 24.09936523 C-41.82347412 23.15383789 -41.82347412 23.15383789 -40.14794922 22.18920898 C-37.97391326 20.93787246 -35.79912222 19.68784678 -33.62353516 18.43920898 C-28.28692916 15.36782799 -22.98292184 12.2547121 -17.72363281 9.05249023 C-16.71333008 8.44099121 -15.70302734 7.82949219 -14.66210938 7.19946289 C-12.75386318 6.04058962 -10.8517856 4.87147727 -8.95703125 3.69067383 C-8.11172852 3.17843262 -7.26642578 2.66619141 -6.39550781 2.13842773 C-5.29263428 1.45683594 -5.29263428 1.45683594 -4.16748047 0.76147461 C-2.10644531 -0.08032227 -2.10644531 -0.08032227 0 0 Z " transform="translate(1799.1064453125,513.080322265625)" style="fill: #00599D;"/><path d="M0 0 C3.9769261 0.0054021 7.95374118 -0.0000041 11.93066406 -0.00634766 C28.14177891 -0.01147045 44.04089407 0.43670833 60.14160156 2.44287109 C61.72690674 2.63852661 61.72690674 2.63852661 63.34423828 2.83813477 C66.71536526 3.2602048 70.084901 3.69320197 73.45410156 4.13037109 C74.5651123 4.27345703 75.67612305 4.41654297 76.82080078 4.56396484 C110.68499308 8.98720279 143.7911176 15.80803432 176.34814453 26.15478516 C178.40532237 26.80094792 180.46688595 27.43332294 182.53271484 28.05126953 C191.60242912 30.76641589 200.46269156 33.94780004 209.32910156 37.25537109 C210.48028473 37.6838887 210.48028473 37.6838887 211.65472412 38.12106323 C275.07554228 61.78565808 334.43508316 95.77192149 386.45410156 139.13037109 C387.03385742 139.61103027 387.61361328 140.09168945 388.2109375 140.58691406 C395.15272909 146.3491978 401.8987773 152.2829083 408.50488281 158.42724609 C410.62238267 160.39232951 412.7952047 162.27551945 414.99316406 164.14990234 C420.50296374 168.95345122 425.62479176 174.1517022 430.78149414 179.32739258 C432.51304856 181.06430709 434.24988515 182.79580999 435.98730469 184.52685547 C441.69098317 190.22711215 447.23285636 195.97917553 452.45410156 202.13037109 C453.90855673 203.73805482 455.36631051 205.34276824 456.82910156 206.94287109 C461.55981659 212.19212992 466.0249385 217.62596105 470.45410156 223.13037109 C471.36784598 224.25172411 472.28192295 225.3728062 473.19628906 226.49365234 C489.48530004 246.54735652 504.04244755 267.71436293 517.70410156 289.63037109 C518.25332275 290.50870605 518.80254395 291.38704102 519.3684082 292.29199219 C519.87621826 293.11521973 520.38402832 293.93844727 520.90722656 294.78662109 C521.5747998 295.8665332 521.5747998 295.8665332 522.25585938 296.96826172 C523.54378739 299.2922003 524.51696368 301.64657476 525.45410156 304.13037109 C524.73158203 304.54174316 524.0090625 304.95311523 523.26464844 305.37695312 C509.60372014 313.15884958 495.96373839 320.97179425 482.39306641 328.91040039 C471.86714932 335.06573961 461.30225989 341.1529422 450.73632812 347.23925781 C445.30750214 350.36717258 439.88090875 353.49895557 434.45410156 356.63037109 C432.28744574 357.88038988 430.12077907 359.13038988 427.95410156 360.38037109 C426.88160156 360.99912109 425.80910156 361.61787109 424.70410156 362.25537109 C414.95410156 367.88037109 414.95410156 367.88037109 411.70361328 369.75561523 C409.53853086 371.00472627 407.37349174 372.25391239 405.20849609 373.50317383 C399.7679445 376.64239419 394.32662941 379.78027672 388.88378906 382.91552734 C378.39178063 388.96092268 367.9092848 395.02147328 357.45410156 401.13037109 C345.9068064 407.87738303 334.32508129 414.56376427 322.73632812 421.23925781 C318.38803198 423.74460607 314.04117815 426.25244931 309.69458008 428.76074219 C307.54692325 429.99985588 305.39897738 431.23846873 303.25073242 432.4765625 C298.176062 435.40181112 293.10404246 438.33139697 288.04074097 441.27627563 C285.65094488 442.66585739 283.2597332 444.05299282 280.8684082 445.43994141 C279.18269567 446.41900362 277.4990357 447.40159715 275.81542969 448.38427734 C274.79255859 448.97724609 273.7696875 449.57021484 272.71582031 450.18115234 C271.81822998 450.70362549 270.92063965 451.22609863 269.99584961 451.7644043 C267.53196654 453.08852549 265.07045425 454.14743684 262.45410156 455.13037109 C258.9147722 450.17100685 255.46308754 445.19375597 252.26660156 440.00537109 C234.53734174 411.92412735 210.86394293 387.11367412 184.45410156 367.13037109 C183.8640332 366.67807129 183.27396484 366.22577148 182.66601562 365.75976562 C161.86799402 349.84775398 138.63687963 336.82554925 114.39648438 326.92480469 C113.07238747 326.38324972 111.7515183 325.83375124 110.43359375 325.27734375 C76.353633 310.90810643 39.04082791 304.52090244 2.17236328 304.73925781 C-1.04535263 304.75536836 -4.26181322 304.73927171 -7.47949219 304.72021484 C-73.74732797 304.65726629 -139.27984074 329.41320921 -190.54589844 371.13037109 C-191.05459473 371.54287109 -191.56329102 371.95537109 -192.08740234 372.38037109 C-210.25754532 387.19194462 -226.36656975 403.46604831 -240.54589844 422.13037109 C-241.00641602 422.73397461 -241.46693359 423.33757812 -241.94140625 423.95947266 C-268.16464464 458.48888046 -286.54208201 497.87534621 -296.08886719 540.15673828 C-296.48684017 541.87533526 -296.91963688 543.58579484 -297.35839844 545.29443359 C-301.99229384 563.58866648 -303.02426344 582.18921133 -302.88208008 600.98364258 C-302.85833775 604.32641609 -302.86157262 607.66839281 -302.86816406 611.01123047 C-302.82642643 644.24646724 -297.38608099 675.67469272 -286.54589844 707.13037109 C-286.21187012 708.10087402 -285.8778418 709.07137695 -285.53369141 710.07128906 C-272.38456239 747.62017453 -251.54408691 781.60905776 -224.63574219 810.85302734 C-223.23157239 812.38317873 -221.84883428 813.93325144 -220.48730469 815.50146484 C-210.0729804 827.44449728 -198.17025993 837.61349132 -185.54589844 847.13037109 C-184.96259766 847.57590332 -184.37929688 848.02143555 -183.77832031 848.48046875 C-149.14323737 874.8939966 -110.04339417 892.63990749 -67.79589844 902.81787109 C-66.6316333 903.10364014 -65.46736816 903.38940918 -64.26782227 903.68383789 C-45.23309408 908.11260109 -26.31272148 909.61469529 -6.80249023 909.46655273 C-3.48168665 909.44285888 -0.16168797 909.44603945 3.15917969 909.45263672 C21.22287363 909.43010186 39.30320698 908.68049782 57.01660156 904.88037109 C58.05558594 904.66348633 59.09457031 904.44660156 60.16503906 904.22314453 C112.45809261 893.00152773 163.64847908 868.90064667 202.62207031 831.81396484 C204.9570681 829.60135315 207.32418516 827.47183835 209.76660156 825.38037109 C216.5562888 819.48931893 222.68202926 813.01162894 228.45410156 806.13037109 C228.90914062 805.58912598 229.36417969 805.04788086 229.83300781 804.49023438 C240.93872587 791.22230971 251.29054235 777.50674802 259.73535156 762.37646484 C260.30253906 761.63525391 260.86972656 760.89404297 261.45410156 760.13037109 C265.57156612 760.13037109 266.61761662 760.51271647 270.03222656 762.48193359 C271.38344604 763.2531958 271.38344604 763.2531958 272.76196289 764.04003906 C274.21832153 764.88912842 274.21832153 764.88912842 275.70410156 765.75537109 C276.72334717 766.3407666 277.74259277 766.92616211 278.79272461 767.52929688 C282.01904725 769.38639002 285.23746222 771.25656266 288.45410156 773.13037109 C289.44684082 773.70722656 290.43958008 774.28408203 291.46240234 774.87841797 C296.41097923 777.75513355 301.35405978 780.64110364 306.29394531 783.53271484 C312.62497133 787.23550078 318.97473609 790.90531519 325.32910156 794.56787109 C326.40764404 795.18960205 327.48618652 795.81133301 328.59741211 796.4519043 C331.88270932 798.34518861 335.16834145 800.23789027 338.45410156 802.13037109 C352.12964471 810.00699698 365.79371114 817.90157201 379.41992188 825.86328125 C391.07069341 832.66624732 402.763139 839.39679296 414.45410156 846.13037109 C428.12964471 854.00699698 441.79371114 861.90157201 455.41992188 869.86328125 C462.71032618 874.12019874 470.01548753 878.35096323 477.32910156 882.56787109 C478.39628418 883.1832373 479.4634668 883.79860352 480.56298828 884.43261719 C485.64011909 887.35900308 490.71863887 890.28295712 495.79916382 893.20344543 C497.57911496 894.22686364 499.35870826 895.25090122 501.13818359 896.27514648 C503.36759493 897.55815737 505.59769532 898.83997197 507.82861328 900.12036133 C513.44245496 903.35218098 518.98686188 906.65598616 524.45410156 910.13037109 C523.8739196 914.02036537 522.72810328 916.74135883 520.68066406 920.08740234 C520.10888428 921.02688721 519.53710449 921.96637207 518.94799805 922.93432617 C518.33126221 923.927146 517.71452637 924.91996582 517.07910156 925.94287109 C516.44496338 926.9724292 515.8108252 928.0019873 515.1574707 929.06274414 C509.85270566 937.61453499 504.29358557 945.9373308 498.45410156 954.13037109 C497.95056152 954.84499512 497.44702148 955.55961914 496.92822266 956.29589844 C489.61389803 966.67454485 481.94421817 976.65992616 473.84667969 986.43798828 C471.99697079 988.68591642 470.19372603 990.96920493 468.39160156 993.25537109 C454.81773279 1010.22270706 439.84600083 1025.82038264 424.51660156 1041.19287109 C423.97830719 1041.7338443 423.44001282 1042.2748175 422.88540649 1042.83218384 C416.92208468 1048.81802635 410.90192753 1054.66180595 404.45410156 1060.13037109 C403.28581245 1061.15195613 402.11912598 1062.17537703 400.95410156 1063.20068359 C386.00112658 1076.27711535 370.58226914 1088.5316532 354.45410156 1100.13037109 C353.23932129 1101.00677246 353.23932129 1101.00677246 352 1101.90087891 C300.51350938 1138.91637494 243.29969695 1165.756052 183.45410156 1186.13037109 C182.49004395 1186.45908203 181.52598633 1186.78779297 180.53271484 1187.12646484 C157.80718401 1194.79439906 134.42278736 1200.05390487 110.87695312 1204.48242188 C107.86448463 1205.05268517 104.85843284 1205.64777298 101.85253906 1206.25146484 C85.95967149 1209.33705988 69.86464068 1210.7724559 53.76269531 1212.29833984 C53.03303055 1212.36795425 52.30336578 1212.43756866 51.55158997 1212.5092926 C49.18663126 1212.72829485 46.82092371 1212.93247659 44.45410156 1213.13037109 C43.40693466 1213.21846039 42.35976776 1213.30654968 41.28086853 1213.39730835 C32.70912366 1214.06827097 24.18699416 1214.30517096 15.59082031 1214.33349609 C14.9056666 1214.33632347 14.22051289 1214.33915085 13.51459694 1214.3420639 C9.87146268 1214.35693181 6.22836657 1214.36623299 2.58520508 1214.37060547 C-0.34331068 1214.37493854 -3.2715232 1214.3886446 -6.19995117 1214.41162109 C-34.5416753 1214.62902593 -62.3800769 1212.57648019 -90.42089844 1208.31787109 C-91.27401611 1208.190979 -92.12713379 1208.06408691 -93.00610352 1207.93334961 C-106.99720127 1205.84379525 -120.7703743 1203.22642403 -134.51757812 1199.86279297 C-137.53358436 1199.13334935 -140.55657332 1198.44701921 -143.58496094 1197.77099609 C-239.50667324 1176.07515338 -330.01465151 1127.1481069 -410.63964844 1054.81787109 C-412.52357791 1053.07574276 -414.41881224 1051.34572947 -416.32714844 1049.63037109 C-422.67941362 1043.90635192 -428.80174728 1037.97918137 -434.85839844 1031.94287109 C-435.98785889 1030.82029907 -435.98785889 1030.82029907 -437.14013672 1029.67504883 C-441.24004251 1025.56380229 -445.16861091 1021.36268669 -448.95776367 1016.96362305 C-451.21725715 1014.35539299 -453.56883302 1011.84298637 -455.92089844 1009.31787109 C-461.03590049 1003.77377282 -465.83314565 998.02131207 -470.54589844 992.13037109 C-471.45665863 991.01131296 -472.3681532 989.89285222 -473.28027344 988.77490234 C-515.66475824 936.62526 -547.81683474 877.82878193 -571.54589844 815.13037109 C-571.96129883 814.04127441 -572.37669922 812.95217773 -572.8046875 811.83007812 C-577.11468177 800.49038484 -580.84380052 789.14875059 -583.92626953 777.41845703 C-584.57250815 775.03211015 -585.26508351 772.66358127 -585.97167969 770.29443359 C-592.28359977 749.08210841 -596.68472871 727.56673918 -600.10839844 705.71508789 C-600.52798595 703.23619674 -601.0321834 700.79096723 -601.56152344 698.33349609 C-602.87096646 691.92441588 -603.43204725 685.44901915 -604.04589844 678.94287109 C-604.16320312 677.74984375 -604.28050781 676.55681641 -604.40136719 675.32763672 C-604.65324347 672.73439435 -604.89755188 670.14130837 -605.13330078 667.54663086 C-605.41752263 664.43162474 -605.73752574 661.32217261 -606.07177734 658.2121582 C-607.779608 641.60760242 -607.9429238 625.0421855 -607.9234581 608.3688736 C-607.92086698 606.03959218 -607.92151998 603.71032497 -607.92227173 601.38104248 C-607.91402271 579.32239536 -607.2066243 557.59530345 -604.05419922 535.73242188 C-603.57934215 532.36736847 -603.18243255 529.00557304 -602.82324219 525.62646484 C-592.68304789 431.62473854 -553.85840221 339.48694957 -500.54589844 262.13037109 C-500.06427246 261.43137695 -499.58264648 260.73238281 -499.08642578 260.01220703 C-483.67339613 237.78021868 -466.48569935 216.73682784 -448.10058594 196.90380859 C-445.85671905 194.46780632 -443.66713817 191.99500433 -441.48339844 189.50537109 C-436.98091424 184.48901642 -432.24113936 179.71654034 -427.48339844 174.94287109 C-426.72728271 174.18216309 -425.97116699 173.42145508 -425.19213867 172.63769531 C-421.05568878 168.51249678 -416.83258225 164.55715064 -412.40600586 160.74536133 C-409.61363793 158.32095998 -406.93034077 155.78468521 -404.23339844 153.25537109 C-399.46980796 148.82894071 -394.60521693 144.59512437 -389.53027344 140.52490234 C-387.31562301 138.74796424 -385.12097463 136.95541307 -382.93652344 135.14208984 C-373.85867511 127.6325342 -364.52337576 120.59401386 -354.90087891 113.79833984 C-352.51476976 112.1083235 -350.14125896 110.40164247 -347.76855469 108.69287109 C-335.40916007 99.84811358 -322.63913811 91.84030378 -309.54589844 84.13037109 C-308.67884277 83.61764648 -307.81178711 83.10492188 -306.91845703 82.57666016 C-242.51020531 44.64008882 -171.37586959 19.03079146 -97.54589844 7.13037109 C-96.75248047 6.99824219 -95.9590625 6.86611328 -95.14160156 6.72998047 C-84.71098219 5.00147783 -74.23989127 3.68099825 -63.73339844 2.50537109 C-62.66847168 2.38218506 -61.60354492 2.25899902 -60.50634766 2.13208008 C-40.41043913 -0.02413968 -20.18797517 -0.03261791 0 0 Z " transform="translate(911.5458984375,417.86962890625)" style="fill: #FEFEFE;"/><path d="M0 0 C1.4178022 2.24379857 2.71638933 4.49237106 4 6.8125 C15.2003649 26.41101246 28.29811218 45.08181609 42 63 C42.49048828 63.64211426 42.98097656 64.28422852 43.48632812 64.94580078 C54.95508799 79.89029705 67.36335732 94.038548 80 108 C80.79921875 108.89332031 81.5984375 109.78664063 82.421875 110.70703125 C88.01769915 116.90483042 93.79343663 122.89727648 99.6875 128.8125 C100.38810547 129.51769775 101.08871094 130.22289551 101.81054688 130.94946289 C105.79730008 134.92449587 109.88578433 138.71794616 114.14916992 142.39428711 C116.76197754 144.66106401 119.28135894 147.01732176 121.8125 149.375 C126.40559375 153.61310701 131.11270222 157.65600193 135.984375 161.57421875 C138.19642216 163.35359865 140.39206839 165.14630553 142.578125 166.95703125 C172.7071803 191.83910622 205.60304615 213.22906726 240.12890625 231.47412109 C242.78506019 232.88576753 245.42554283 234.32243331 248.0625 235.76953125 C285.96032558 256.37654433 327.71348985 272.12628293 369.53857422 282.39306641 C371.70836768 282.92808987 373.87255154 283.47973913 376.03515625 284.04296875 C379.25124608 284.87150924 382.47221149 285.67158382 385.70166016 286.44628906 C387.35113315 286.84367644 388.99907991 287.24741931 390.64599609 287.65527344 C405.3679885 291.27311684 420.13949943 293.96244208 435.125 296.1875 C435.91832733 296.30792664 436.71165466 296.42835327 437.52902222 296.5524292 C464.79501602 300.65482009 492.02770952 302.57013614 519.579422 302.44602203 C521.73138468 302.43732259 523.88329971 302.43431558 526.03527832 302.43231201 C560.10788444 302.37965107 594.55320974 300.62600832 628.05078125 293.9765625 C630.80428419 293.43232691 633.55835379 292.89189968 636.31396484 292.35839844 C693.88185264 281.21128046 748.57497916 262.27348747 801 236 C802.53479004 235.23453857 802.53479004 235.23453857 804.10058594 234.45361328 C862.04491365 205.40482883 913.73161995 165.25984594 959.5 119.625 C960.01891815 119.10876068 960.5378363 118.59252136 961.07247925 118.06063843 C966.93626299 112.21985402 972.61927781 106.29418502 978 100 C979.4132355 98.4551874 980.82940409 96.91304675 982.25 95.375 C986.25935191 90.93220464 989.97145679 86.31592445 993.6340332 81.58862305 C996.6252907 77.73138027 999.68228139 73.94034106 1002.79370117 70.17944336 C1010.01035671 61.43435312 1016.62215471 52.37092218 1023 43 C1023.82951172 41.78352783 1023.82951172 41.78352783 1024.67578125 40.54248047 C1030.16573196 32.4640118 1035.60796863 24.37193232 1040.63671875 15.99609375 C1041.22267822 15.02381836 1041.8086377 14.05154297 1042.41235352 13.04980469 C1043.5344934 11.17439942 1044.6435982 9.29111867 1045.73803711 7.39941406 C1046.49032593 6.14016113 1046.49032593 6.14016113 1047.2578125 4.85546875 C1047.6923877 4.10934326 1048.12696289 3.36321777 1048.57470703 2.59448242 C1049.04505371 2.06830322 1049.51540039 1.54212402 1050 1 C1054.85526494 1 1057.67425445 2.77123006 1061.75 5.125 C1062.9265918 5.79172729 1062.9265918 5.79172729 1064.12695312 6.47192383 C1072.68144635 11.33990905 1081.1712286 16.32238656 1089.6640625 21.296875 C1096.05281992 25.03634589 1102.46116076 28.74125034 1108.875 32.4375 C1109.95458984 33.05971436 1111.03417969 33.68192871 1112.14648438 34.32299805 C1114.3368252 35.58511517 1116.52725502 36.84707785 1118.71777344 38.10888672 C1124.14659942 41.23680148 1129.57319281 44.36858448 1135 47.5 C1137.16665583 48.75001879 1139.3333225 50.00001878 1141.5 51.25 C1215.16666667 93.75 1288.83333333 136.25 1362.5 178.75 C1363.57419189 179.3697168 1364.64838379 179.98943359 1365.75512695 180.62792969 C1367.90473634 181.86810761 1370.05431358 183.10834127 1372.20385742 184.34863281 C1377.27309212 187.2735023 1382.34264936 190.19780833 1387.4133606 193.12011719 C1389.80426597 194.49806938 1392.19498672 195.87634172 1394.58569336 197.25463867 C1396.26983963 198.22540982 1397.95425231 199.19571874 1399.63867188 200.16601562 C1400.66154297 200.75576172 1401.68441406 201.34550781 1402.73828125 201.953125 C1403.63587158 202.47036133 1404.53346191 202.98759766 1405.45825195 203.52050781 C1407.98578745 204.9917272 1410.4957655 206.48951829 1413 208 C1411.5423806 213.48750832 1408.89718285 217.46215174 1405.625 222 C1405.09551758 222.74113037 1404.56603516 223.48226074 1404.02050781 224.24584961 C1398.74664606 231.52349847 1393.03204009 238.34395576 1387 245 C1386.36191406 245.721875 1385.72382812 246.44375 1385.06640625 247.1875 C1372.23791617 260.90169875 1355.65598038 269.9678197 1339.421875 278.97819519 C1333.19778298 282.43416213 1327.03465253 285.99311071 1320.875 289.5625 C1318.72670038 290.80362411 1316.57826302 292.04450982 1314.4296875 293.28515625 C1313.36975586 293.89762207 1312.30982422 294.51008789 1311.21777344 295.14111328 C1305.81329355 298.26324605 1300.40652588 301.38141204 1295 304.5 C1292.8333225 305.74998122 1290.66665583 306.99998121 1288.5 308.25 C1171.49999999 375.75000001 1171.49999999 375.75000001 1168.24951172 377.62524414 C1166.08442929 378.87435518 1163.91939018 380.12354129 1161.75439453 381.37280273 C1156.31384294 384.51202309 1150.87252784 387.64990563 1145.4296875 390.78515625 C1134.97793801 396.80747329 1124.53700452 402.84669337 1114.125 408.9375 C1104.85500223 414.35921178 1095.54168248 419.70204915 1086.21154785 425.01922607 C1077.0871716 430.22045129 1067.99867226 435.48027878 1058.93310547 440.78344727 C1048.40915375 446.93766742 1037.84619863 453.02369996 1027.28222656 459.10888672 C1021.85340058 462.23680148 1016.42680719 465.36858448 1011 468.5 C1008.83334417 469.75001879 1006.6666775 471.00001878 1004.5 472.25 C1003.4275 472.86875 1002.355 473.4875 1001.25 474.125 C731.5 629.75 731.5 629.75 728.24951172 631.62524414 C726.08442929 632.87435518 723.91939018 634.12354129 721.75439453 635.37280273 C716.31384294 638.51202309 710.87252784 641.64990563 705.4296875 644.78515625 C694.97793801 650.80747329 684.53700452 656.84669337 674.125 662.9375 C664.8575244 668.35773664 655.54851145 673.70247065 646.21859741 679.01419067 C638.93789117 683.15953171 631.68333996 687.34504929 624.46337891 691.59570312 C598.44605156 706.89458014 574.46127141 719.48767488 543.49609375 719.46875 C542.04183169 719.47588576 540.58757231 719.48358943 539.13331604 719.49182129 C536.1036902 719.50515367 533.07432439 719.50688798 530.04467773 719.50097656 C526.98535732 719.49627627 523.92707576 719.51005689 520.86791992 719.54199219 C481.55590181 719.94778745 453.87619613 708.43375969 420.37109375 688.73828125 C413.97533247 684.97879036 407.55363443 681.26543211 401.125 677.5625 C400.04549072 676.94036621 398.96598145 676.31823242 397.85375977 675.67724609 C395.6633525 674.41502167 393.47284128 673.15297763 391.28222656 671.89111328 C385.85340058 668.76319852 380.42680719 665.63141552 375 662.5 C372.83334417 661.24998121 370.6666775 659.99998122 368.5 658.75 C286.16666667 611.25 203.83333333 563.75 121.5 516.25 C120.42733887 515.63116943 119.35467773 515.01233887 118.24951172 514.37475586 C116.08442929 513.12564482 113.91939018 511.87645871 111.75439453 510.62719727 C106.31384294 507.48797691 100.87252784 504.35009437 95.4296875 501.21484375 C84.97793801 495.19252671 74.53700452 489.15330663 64.125 483.0625 C55.44737759 477.98724877 46.73394432 472.97741233 38 468 C28.27884383 462.4599827 18.59105342 456.86625191 8.93310547 451.21655273 C-1.59084625 445.06233258 -12.15380137 438.97630004 -22.71777344 432.89111328 C-28.14659942 429.76319852 -33.57319281 426.63141552 -39 423.5 C-41.16665583 422.24998121 -43.3333225 420.99998122 -45.5 419.75 C-119.16666667 377.25 -192.83333333 334.75 -266.5 292.25 C-268.11032104 291.32127075 -268.11032104 291.32127075 -269.75317383 290.3737793 C-271.90996673 289.12907026 -274.06605976 287.88314768 -276.22143555 286.63598633 C-281.20461346 283.75448 -286.193055 280.88442245 -291.20843506 278.05923462 C-315.1917137 264.54901987 -315.1917137 264.54901987 -325 256 C-325.75144287 255.351521 -325.75144287 255.351521 -326.51806641 254.68994141 C-336.69165502 245.85673818 -345.5622774 236.2812767 -353.375 225.3125 C-353.87515625 224.6117334 -354.3753125 223.9109668 -354.890625 223.18896484 C-358.06300687 218.63295291 -360.62341872 214.0178529 -363 209 C-356.66496859 204.63141346 -350.1628182 200.73389013 -343.4375 197 C-335.31054156 192.44743174 -327.22572089 187.83252148 -319.1875 183.125 C-307.58061953 176.33107444 -295.93606995 169.60410088 -284.28222656 162.89111328 C-278.85340058 159.76319852 -273.42680719 156.63141552 -268 153.5 C-265.83334417 152.24998121 -263.6666775 150.99998122 -261.5 149.75 C-259.89125 148.821875 -259.89125 148.821875 -258.25 147.875 C-66.50000001 37.25000001 -66.50000001 37.25000001 -63.24829102 35.37402344 C-61.08731012 34.12729744 -58.92634002 32.88055273 -56.76538086 31.63378906 C-51.26181149 28.45854117 -45.75803968 25.28364505 -40.25390625 22.109375 C-39.14337891 21.4687915 -38.03285156 20.82820801 -36.88867188 20.16821289 C-34.69626926 18.90384799 -32.50356786 17.64000103 -30.31054688 16.37670898 C-25.26933721 13.47120517 -20.23418434 10.55642826 -15.21484375 7.61328125 C-14.32917725 7.09540039 -13.44351074 6.57751953 -12.53100586 6.04394531 C-10.88774342 5.08211292 -9.24650284 4.11681477 -7.60766602 3.14746094 C-2.22318174 0 -2.22318174 0 0 0 Z " transform="translate(386,1329)" style="fill: #004283;"/><path d="M0 0 C1.0595137 -0.00570007 2.1190274 -0.01140015 3.21064758 -0.01727295 C5.44519066 -0.026662 7.6797472 -0.03323246 9.91430664 -0.03710938 C13.24717084 -0.0467204 16.57939177 -0.07776419 19.91210938 -0.109375 C38.91092748 -0.20330969 57.55512319 1.60292641 76.17578125 5.453125 C77.7086377 5.76672974 77.7086377 5.76672974 79.27246094 6.08666992 C158.22559469 22.88456272 226.61579079 72.5206186 270.96582031 139.23779297 C277.61328125 149.51043296 277.61328125 149.51043296 277.61328125 152.203125 C276.75669922 152.68386475 276.75669922 152.68386475 275.8828125 153.17431641 C263.84635597 159.93645126 251.86335063 166.77954734 239.95117188 173.75830078 C232.20140941 178.29228561 224.41448023 182.75855506 216.61328125 187.203125 C206.89194026 192.74281399 197.20433033 198.33687563 187.54638672 203.98657227 C177.022435 210.14079242 166.45947988 216.22682496 155.89550781 222.31201172 C150.46668183 225.43992648 145.04008844 228.57170948 139.61328125 231.703125 C137.44662542 232.95314379 135.27995875 234.20314378 133.11328125 235.453125 C132.04078125 236.071875 130.96828125 236.690625 129.86328125 237.328125 C-139.88671875 392.953125 -139.88671875 392.953125 -143.13720703 394.82836914 C-145.30228946 396.07748018 -147.46732857 397.32666629 -149.63232422 398.57592773 C-155.07287581 401.71514809 -160.51419091 404.85303063 -165.95703125 407.98828125 C-177.38285023 414.57185889 -188.7907886 421.1839727 -200.17236328 427.84375 C-205.7098065 431.0775071 -211.26196375 434.28381324 -216.83203125 437.4609375 C-217.77657669 437.99972282 -217.77657669 437.99972282 -218.74020386 438.5493927 C-221.80798994 440.29826569 -224.87735958 442.04429602 -227.94873047 443.78686523 C-232.71528432 446.49834694 -237.45576745 449.20979255 -242.07421875 452.16796875 C-245.38671875 454.203125 -245.38671875 454.203125 -247.38671875 454.203125 C-247.71671875 454.863125 -248.04671875 455.523125 -248.38671875 456.203125 C-261.0161852 433.03320956 -270.88575565 409.51095192 -278.38671875 384.203125 C-278.95132813 382.37974609 -278.95132813 382.37974609 -279.52734375 380.51953125 C-282.005303 372.0138378 -283.53667571 363.35795475 -285.07421875 354.640625 C-285.39640381 352.8296936 -285.39640381 352.8296936 -285.72509766 350.98217773 C-288.54446599 334.3871188 -288.66289887 317.86833003 -288.69921875 301.078125 C-288.70314636 299.34251312 -288.70314636 299.34251312 -288.70715332 297.57183838 C-288.71139824 280.06305796 -287.93548293 263.38928296 -284.38671875 246.203125 C-284.09337881 244.62010082 -283.80160897 243.03678454 -283.51171875 241.453125 C-270.17825339 172.51304844 -228.29298185 105.7590211 -172.13720703 63.52099609 C-170.38733026 62.20358538 -168.65084681 60.86975838 -166.9140625 59.53515625 C-119.87588367 23.80709218 -59.48493518 0.25704514 0 0 Z " transform="translate(896.38671875,721.796875)" style="fill: #659BD3;"/><path d="M0 0 C4.86262912 1.4095658 8.95515046 3.57057973 13.25 6.1875 C14.76618915 7.09498405 16.28316888 8.00114806 17.80078125 8.90625 C18.62916504 9.40125 19.45754883 9.89625 20.31103516 10.40625 C25.32667865 13.3790229 30.38418227 16.27939472 35.4375 19.1875 C36.54319336 19.82453857 37.64888672 20.46157715 38.78808594 21.11791992 C41.06024082 22.42700657 43.33254009 23.73584262 45.60498047 25.04443359 C51.0716998 28.19332054 56.53574887 31.34683264 62 34.5 C64.16665311 35.7500235 66.33331979 37.00002347 68.5 38.25 C81.5 45.75 94.5 53.25 107.5 60.75 C108.57266113 61.36883057 109.64532227 61.98766113 110.75048828 62.62524414 C112.91557071 63.87435518 115.08060982 65.12354129 117.24560547 66.37280273 C122.68615706 69.51202309 128.12747216 72.64990563 133.5703125 75.78515625 C144.02206199 81.80747329 154.46299548 87.84669337 164.875 93.9375 C173.55262241 99.01275123 182.26605568 104.02258767 191 109 C200.70860463 114.53286427 210.38388774 120.11937146 220.02954102 125.76147461 C227.65200716 130.21869559 235.29015481 134.6481568 242.9375 139.0625 C244.5455249 139.99171265 244.5455249 139.99171265 246.18603516 140.93969727 C252.09462289 144.3475646 258.02381377 147.71201134 264 151 C253.67540225 179.93095842 223.98241778 209.43120558 201 229 C200.16082031 229.72832031 199.32164062 230.45664063 198.45703125 231.20703125 C142.21107653 279.22943949 72.38305225 303.1534904 -1.125 303.3125 C-2.28207458 303.31511841 -3.43914917 303.31773682 -4.63128662 303.32043457 C-22.14006704 303.32467949 -38.81384204 302.54876418 -56 299 C-57.58302418 298.70666006 -59.16634046 298.41489022 -60.75 298.125 C-130.06935861 284.71817899 -196.06049827 242.75754062 -238.73583984 186.65820312 C-239.9137633 185.11311696 -241.10670362 183.57951114 -242.30078125 182.046875 C-246.78780969 176.21294104 -250.95505983 170.20926138 -255 164.0625 C-255.48146484 163.34022217 -255.96292969 162.61794434 -256.45898438 161.8737793 C-257.12897461 160.83991089 -257.12897461 160.83991089 -257.8125 159.78515625 C-258.21082031 159.17551025 -258.60914063 158.56586426 -259.01953125 157.93774414 C-260.17377609 155.65655855 -260.59647362 153.51417546 -261 151 C-98.5 57.25 -98.5 57.25 -95.24951172 55.37475586 C-93.08442929 54.12564482 -90.91939018 52.87645871 -88.75439453 51.62719727 C-83.31384294 48.48797691 -77.87252784 45.35009437 -72.4296875 42.21484375 C-61.00898697 35.63421537 -49.60585337 29.02557634 -38.22973633 22.36816406 C-32.60572346 19.08356522 -26.96578146 15.82857383 -21.30859375 12.6015625 C-20.66233032 12.23290573 -20.01606689 11.86424896 -19.35021973 11.48442078 C-16.1761029 9.6748308 -13.00036079 7.86815132 -9.82275391 6.06469727 C-8.68628418 5.41815186 -7.54981445 4.77160645 -6.37890625 4.10546875 C-4.85632202 3.24151489 -4.85632202 3.24151489 -3.30297852 2.36010742 C-1.11225619 1.19534713 -1.11225619 1.19534713 0 0 Z " transform="translate(910,1025)" style="fill: #004283;"/><path d="M0 0 C22.44 0 44.88 0 68 0 C68 22.11 68 44.22 68 67 C90.11 67 112.22 67 135 67 C135 89.44 135 111.88 135 135 C112.89 135 90.78 135 68 135 C68 157.11 68 179.22 68 202 C45.56 202 23.12 202 0 202 C0 179.89 0 157.78 0 135 C-22.11 135 -44.22 135 -67 135 C-67 112.56 -67 90.12 -67 67 C-44.89 67 -22.78 67 0 67 C0 44.89 0 22.78 0 0 Z " transform="translate(1383,924)" style="fill: #FDFEFE;"/><path d="M0 0 C22.44 0 44.88 0 68 0 C68 22.11 68 44.22 68 67 C90.11 67 112.22 67 135 67 C135 89.44 135 111.88 135 135 C112.89 135 90.78 135 68 135 C68 157.11 68 179.22 68 202 C45.89 202 23.78 202 1 202 C1 179.89 1 157.78 1 135 C-21.44 135 -43.88 135 -67 135 C-67 112.56 -67 90.12 -67 67 C-44.89 67 -22.78 67 0 67 C0 44.89 0 22.78 0 0 Z " transform="translate(1636,924)" style="fill: #FDFEFE;"/></svg>