<?xml version="1.0" ?>
<!-- Uploaded to: SVG Repo, www.svgrepo.com, Generator: SVG Repo Mixer Tools -->
<svg width="800px" height="800px" viewBox="0 0 64 64" id="Layer_1" version="1.1" xml:space="preserve" xmlns="http://www.w3.org/2000/svg" xmlns:xlink="http://www.w3.org/1999/xlink">
<style type="text/css">
	.st0{fill:#B4E6DD;}
	.st1{fill:#80D4C4;}
	.st2{fill:#D2F0EA;}
	.st3{fill:#FFFFFF;}
	.st4{fill:#FBD872;}
	.st5{fill:#DB7767;}
	.st6{fill:#F38E7A;}
	.st7{fill:#F6AF62;}
	.st8{fill:#32A48E;}
	.st9{fill:#A38FD8;}
	.st10{fill:#7C64BD;}
	.st11{fill:#EAA157;}
	.st12{fill:#9681CF;}
	.st13{fill:#F9C46A;}
	.st14{fill:#CE6B61;}
</style>
<g>
<g>
<path class="st2" d="M46.44,36.38H17.56V22.44C17.56,14.48,24.04,8,32,8s14.44,6.48,14.44,14.44V36.38z M23.32,28.7h17.37v-6.26    c0-4.79-3.9-8.68-8.68-8.68c-4.79,0-8.68,3.9-8.68,8.68V28.7z"/>
</g>
<path class="st4" d="M32,56L32,56c-9.8,0-17.74-7.94-17.74-17.74V27.74h35.48v10.52C49.74,48.06,41.8,56,32,56z"/>
<path class="st7" d="M36,37.73c0-2.21-1.79-4-4-4c-2.21,0-4,1.79-4,4c0,1.39,0.71,2.62,1.79,3.33v4.74c0,1.22,0.99,2.21,2.21,2.21   c1.22,0,2.21-0.99,2.21-2.21v-4.74C35.29,40.35,36,39.12,36,37.73z"/>
</g>
</svg>