<?xml version="1.0" encoding="utf-8"?>
<!-- Uploaded to: SVG Repo, www.svgrepo.com, Generator: SVG Repo Mixer Tools -->
<svg fill="#000000" width="800px" height="800px" viewBox="0 0 32 32" version="1.1" xmlns="http://www.w3.org/2000/svg">
<title>life-ring</title>
<path d="M0 16q0 0.832 0.128 2.016 0.032 0.16 0.096 0.48 0.128 0.832 0.32 1.6 0.032 0.064 0.032 0.16t0.064 0.128q0.544 1.984 1.6 3.744 2.080 3.552 5.664 5.664 1.728 1.024 3.712 1.6 0.064 0 0.16 0.032t0.128 0.032q0.704 0.192 1.632 0.352 0.064 0.032 0.224 0.032t0.256 0.032q0.96 0.128 1.984 0.128t2.016-0.128q0.064 0 0.224-0.032t0.224-0.032q0.928-0.16 1.632-0.352 0.032 0 0.128-0.032t0.16-0.032q1.952-0.544 3.712-1.6 3.584-2.112 5.664-5.664 1.056-1.76 1.632-3.744 0-0.032 0.032-0.128t0.032-0.16q0.192-0.704 0.352-1.6 0-0.096 0.032-0.256t0.032-0.224q0.128-0.992 0.128-2.016t-0.128-1.984q0-0.096-0.032-0.224t-0.032-0.256q-0.16-0.928-0.352-1.632-0.032-0.032-0.032-0.128t-0.032-0.128q-0.576-1.952-1.632-3.744-2.080-3.552-5.664-5.664-1.76-1.056-3.712-1.6-0.064-0.032-0.16-0.032t-0.128-0.064q-0.704-0.16-1.632-0.32-0.064-0.032-0.224-0.064t-0.224 0q-0.992-0.16-2.016-0.16t-1.984 0.16q-0.096 0-0.256 0t-0.224 0.064q-0.928 0.16-1.632 0.32-0.032 0.032-0.128 0.064t-0.16 0.032q-1.984 0.544-3.712 1.6-3.584 2.112-5.664 5.664-1.056 1.792-1.6 3.744-0.032 0.032-0.064 0.128t-0.032 0.128q-0.192 0.8-0.32 1.632-0.064 0.32-0.096 0.48-0.128 1.184-0.128 1.984zM2.016 16q0-3.424 1.728-6.592l2.976 2.976q-0.704 1.824-0.704 3.616t0.704 3.648l-2.976 2.976q-1.728-3.168-1.728-6.624zM8 16q0-0.608 0.128-1.216 0.032-0.288 0.16-0.832 0.544-2.080 2.080-3.584t3.584-2.048q0.288-0.096 0.8-0.192 0.672-0.128 1.248-0.128 0.608 0 1.248 0.128 0.512 0.096 0.8 0.192 2.080 0.544 3.584 2.048t2.080 3.584q0.064 0.288 0.16 0.8 0.128 0.672 0.128 1.248t-0.128 1.248q-0.096 0.544-0.16 0.8-0.544 2.080-2.080 3.616t-3.584 2.048q-0.544 0.128-0.8 0.16-0.64 0.128-1.248 0.128-0.576 0-1.248-0.128-0.256-0.032-0.8-0.16-2.080-0.544-3.584-2.048t-2.080-3.616q-0.128-0.512-0.16-0.8-0.128-0.672-0.128-1.248zM9.408 28.288l2.944-2.976q1.824 0.704 3.648 0.704 1.856 0 3.648-0.736l2.976 3.008q-3.2 1.728-6.624 1.728t-6.592-1.728zM9.408 3.744q3.168-1.728 6.592-1.728t6.624 1.728l-2.976 2.976q-1.824-0.704-3.648-0.704t-3.648 0.704zM25.312 19.648q0.704-1.824 0.704-3.648t-0.704-3.616l2.944-2.976q1.76 3.168 1.76 6.592t-1.76 6.624z"></path>
</svg>