<?xml version="1.0" encoding="iso-8859-1"?>
<!-- Uploaded to: SVG Repo, www.svgrepo.com, Generator: SVG Repo Mixer Tools -->
<svg version="1.1" id="Layer_1" xmlns="http://www.w3.org/2000/svg" xmlns:xlink="http://www.w3.org/1999/xlink" 
	 viewBox="0 0 512 512" xml:space="preserve">
<path style="fill:#2D527C;" d="M438.557,512H19.785c-8.216,0-14.876-6.66-14.876-14.876V256.916c0-8.216,6.66-14.876,14.876-14.876
	s14.876,6.66,14.876,14.876v225.332h389.021v-32.833c0-8.216,6.661-14.876,14.876-14.876c8.215,0,14.876,6.66,14.876,14.876v47.709
	C453.433,505.34,446.772,512,438.557,512z"/>
<g>
	<polygon style="fill:#CEE8FA;" points="19.785,177.122 19.785,172.332 175.581,14.876 175.581,177.122 	"/>
	<rect x="196.154" y="219.435" style="fill:#CEE8FA;" width="296.061" height="163.65"/>
</g>
<g>
	<path style="fill:#2D527C;" d="M492.215,204.559h-38.782V14.876C453.433,6.66,446.772,0,438.557,0H175.581
		c-0.182,0-0.361,0.021-0.543,0.027c-0.17,0.006-0.336,0.013-0.506,0.025c-0.641,0.045-1.278,0.118-1.904,0.244
		c-0.018,0.003-0.036,0.01-0.054,0.013c-0.613,0.126-1.211,0.302-1.8,0.504c-0.158,0.054-0.315,0.11-0.472,0.171
		c-0.58,0.22-1.148,0.466-1.697,0.756c-0.024,0.012-0.048,0.021-0.071,0.034c-0.567,0.305-1.105,0.66-1.63,1.037
		c-0.137,0.098-0.271,0.198-0.403,0.302c-0.521,0.402-1.026,0.827-1.495,1.3L9.21,161.868c-0.35,0.353-0.678,0.721-0.988,1.104
		c-0.207,0.254-0.388,0.521-0.576,0.784c-0.092,0.131-0.195,0.256-0.283,0.388c-0.214,0.326-0.405,0.66-0.592,0.998
		c-0.046,0.083-0.1,0.162-0.143,0.245c-0.183,0.345-0.342,0.701-0.495,1.056c-0.037,0.086-0.082,0.168-0.116,0.256
		c-0.14,0.341-0.256,0.689-0.369,1.038c-0.036,0.112-0.08,0.219-0.113,0.33c-0.095,0.321-0.17,0.646-0.242,0.971
		c-0.033,0.147-0.076,0.293-0.106,0.442c-0.058,0.3-0.095,0.604-0.134,0.907c-0.024,0.177-0.057,0.353-0.074,0.53
		c-0.028,0.303-0.034,0.607-0.045,0.912c-0.006,0.167-0.024,0.332-0.024,0.498v4.792c0,8.216,6.66,14.876,14.876,14.876h155.796
		c8.216,0,14.876-6.66,14.876-14.876V29.752h233.225v174.807H196.156c-8.216,0-14.876,6.66-14.876,14.876v163.644
		c0,8.216,6.66,14.876,14.876,14.876h296.059c8.215,0,14.876-6.66,14.876-14.876V219.435
		C507.091,211.219,500.43,204.559,492.215,204.559z M50.691,162.246L160.705,51.06v111.186H50.691z M477.339,368.203H211.032
		V234.311h266.308V368.203z"/>
	<path style="fill:#2D527C;" d="M265.4,270.343c-3.927,0-6.153-4.188-6.153-9.031c0-4.189,1.831-8.771,6.153-8.771h22.907
		c4.451,0,8.902,2.095,8.902,6.285v59.298c0,22.516-14.269,30.894-31.418,30.894c-18.718,0-32.857-9.949-32.857-27.36
		c0-7.854,3.273-9.687,10.342-9.687c5.236,0,9.687,1.309,10.078,6.153c0.393,5.105,1.047,13.091,11.521,13.091
		c7.593,0,11.913-4.188,11.913-13.091v-47.78H265.4V270.343z"/>
	<path style="fill:#2D527C;" d="M304.411,339.854c0-0.393,0.131-0.916,0.262-1.44l24.349-79.853c1.44-4.58,7.331-6.806,13.353-6.806
		s11.913,2.225,13.353,6.806l24.48,79.853c0.131,0.524,0.262,1.047,0.262,1.44c0,4.844-7.463,8.378-13.091,8.378
		c-3.273,0-5.891-1.047-6.676-3.796l-4.451-16.364h-27.62l-4.449,16.364c-0.785,2.749-3.404,3.796-6.676,3.796
		C311.871,348.232,304.411,344.698,304.411,339.854z M351.929,312.363l-9.556-35.082l-9.556,35.082H351.929z"/>
	<path style="fill:#2D527C;" d="M388.06,258.693c0-3.271,2.487-6.153,6.284-6.153h27.098c17.934,0,32.2,6.676,32.2,28.014
		c0,14.66-6.675,23.038-15.838,26.573l15.971,28.929c0.524,0.785,0.653,1.703,0.653,2.356c0,5.105-6.807,10.604-12.829,10.604
		c-2.618,0-5.105-1.047-6.544-3.796L417.12,310.4h-8.64v31.547c0,4.189-5.107,6.284-10.211,6.284
		c-5.104,0-10.209-2.093-10.209-6.284L388.06,258.693L388.06,258.693z M408.481,270.343v24.349h12.96
		c7.331,0,11.78-3.011,11.78-12.176c0-9.162-4.449-12.174-11.78-12.174h-12.96V270.343z"/>
</g>
</svg>